<?xml version="1.0" encoding="UTF-8"?>
<svg id="Layer_2" data-name="Layer 2" xmlns="http://www.w3.org/2000/svg" xmlns:xlink="http://www.w3.org/1999/xlink" viewBox="0 0 54.09 54.09">
  <defs>
    <linearGradient id="linear-gradient" x1="32.56" y1="21.74" x2="38.21" y2="32.45" gradientUnits="userSpaceOnUse">
      <stop offset="0" stop-color="#237966"/>
      <stop offset="1" stop-color="#193833"/>
    </linearGradient>
    <linearGradient id="linear-gradient-2" x1="20.26" y1="20.75" x2="16.51" y2="33.39" gradientUnits="userSpaceOnUse">
      <stop offset="0" stop-color="#227c6a"/>
      <stop offset="1" stop-color="#183833"/>
    </linearGradient>
  </defs>
  <g id="Layer_1-2" data-name="Layer 1">
    <g>
      <circle cx="27.05" cy="27.05" r="27.05" fill="#1e2323" stroke-width="0"/>
      <g>
        <path d="M44.6,8.18c-.11.28-.78-.06-1.03,0-.04,0-.38.39-.62.44-.66.13-2.87-.74-3.75-.87-.08.02-.49.98-.47,1.09.05.25,2.53,1.61-.12,3.09-8.3-6.26-19.9-4.81-26.46,3.19-2.03-1.45-4.47-2.03-6.93-1.69-.12-.08.83-1.39.97-1.59C14.9-.41,33.03-2.73,44.6,8.18Z" fill="#1a6f59" stroke-width="0"/>
        <path d="M5.65,13.87c1.87-.16,4.57.51,6.03,1.78-4.92,6.71-4.97,16.17.12,22.8-1.93,1.45-4.49,1.98-6.87,1.69C.02,32.28.03,21.9,4.77,13.99c.29-.02.59-.1.87-.12Z" fill="#313b36" stroke-width="0"/>
        <path d="M47.25,13.87c.38-.02,1.73-.02,2,.12,4.74,8.14,5.02,18.15-.12,26.18-2.36.12-4.83-.21-6.78-1.66,5.06-6.58,5.12-16.25,0-22.8,1.25-1.05,3.3-1.74,4.9-1.84Z" fill="#313b36" stroke-width="0"/>
        <g>
          <path d="M17.05,50.79c-.73-2.54,1.51-2.03,1.12-4.03-.03-.16-.19-.45-.37-.5l.12-2.47c7.93,4.42,18.42,2.34,24.02-4.81,2.18,1.57,4.27,1.87,6.9,1.72-6.78,10.84-19.96,15.14-31.8,10.09Z" fill="#135241" stroke-width="0"/>
          <path d="M17.92,43.79l-.12,2.47c.19.05.34.34.37.5.38,2-1.86,1.49-1.12,4.03-5.12-2.19-8.64-5.37-11.68-10.03,2.39.12,4.97-.23,6.84-1.84,1.57,1.96,3.53,3.65,5.72,4.87Z" fill="#1a6f59" stroke-width="0"/>
        </g>
        <path d="M44.6,8.18c1.64,1.54,3.06,3.25,4.22,5.19-2.4-.23-4.96.27-6.87,1.81-1.01-1.18-2.1-2.31-3.34-3.25,2.66-1.49.18-2.84.12-3.09-.02-.11.39-1.07.47-1.09.87.14,3.08,1,3.75.87.24-.05.59-.43.62-.44.25-.06.92.28,1.03,0Z" fill="#135241" stroke-width="0"/>
        <g>
          <path d="M26.14,8.49c7.37-.33,14.64,3.98,17.71,10.71,4.2,9.2.34,20.38-8.9,24.64-13.6,6.28-28.51-4.99-26.14-20.02,1.33-8.43,8.85-14.96,17.34-15.34Z" fill="#e7e8d6" stroke-width="0"/>
          <g>
            <path d="M26.01,11.55c10.91-.6,18.89,9.37,15.96,19.9-2.97,10.68-16.43,14.57-24.89,7.59-10.5-8.66-5.29-26.71,8.93-27.49Z" fill="#151815" stroke-width="0"/>
            <path d="M26.01,12.87c12.56-.79,19.6,13.53,12.21,22.96-6.08,7.76-18.48,7.01-23.43-1.56-5.28-9.16.83-20.75,11.21-21.4Z" fill="#e5e9e3" stroke-width="0"/>
          </g>
          <g>
            <path d="M31.41,16.37c.64.25,1.25.57,1.83.93.78.5,1.61,1.2,2.24,1.87,0,.25-.29-.03-.45-.15-.28-.23-.52-.52-.8-.75-1.02-.81-2.08-1.44-3.31-1.87.17-.06.42.15.49-.04Z" fill="#0c3028" stroke-width="0"/>
            <path d="M31.41,16.37c-.06.19-.32-.02-.49.04-.83-.29-1.78-.54-2.65-.64l-.07-.22c1.02.09,2.26.44,3.21.82Z" fill="#0e1d1a" stroke-width="0"/>
            <path d="M37.62,23.17c1.43,4.21.51,8.56-2.56,11.77l-.32-1.44c.07-.41.27-.69.45-1.07.49-.99,1.08-1.94,1.57-2.93l-1.49-.97c.9-.34,1.85-.61,2.65-1.16-.54-.34-2-1.12-2.56-1.1-.08,0-.35.17-.47.07-.02-.07-.05-.23-.15-.22.66-.54,1.33-1.07,1.98-1.63-.66-1.05-1.05-2.26-1.79-3.25.07-.39.19-.77.26-1.16.14-.74-.09-1.01.45-.45.84.89,1.59,2.37,1.98,3.53Z" fill="url(#linear-gradient)" stroke-width="0"/>
            <path d="M19.16,34.6c-.03.15-.03.44-.06.45-2.23-2.48-3.46-5.58-3.23-8.93.17-2.5,1.16-4.96,2.92-6.78l.41,1.94c-.71.74-1.3,2.23-1.72,3.21l1.79,1.53c-.25.71-.44.18-1.03.28-.14.02-1.69.87-2,1.07,2.7,1.67,3.43.45,1.08,2.13.31.64,1.84,3.36,1.91,3.55.2.6.04.97-.07,1.55Z" fill="url(#linear-gradient-2)" stroke-width="0"/>
            <path d="M28.27,15.77c.87.1,1.83.34,2.65.64,1.23.43,2.29,1.06,3.31,1.87.29.23.52.52.8.75-.65-.14-1.33-.05-2-.07-1.1-.69-2.35-1.14-3.33-2.02l-1.35,2.02c-.4-.86-.7-1.95-1.14-2.77-.02-.04-.07-.47-.3-.24-.12.11-.99,2.63-1.21,3.01-.14-.27-1.16-1.99-1.31-1.98-1.01.79-2.23,1.24-3.25,2.02l-2.07.04c2.2-2.38,6.02-3.61,9.19-3.25Z" fill="#248973" stroke-width="0"/>
            <g>
              <path d="M37.24,32.47c-.98,1.89-2.38,3.32-4.19,4.45-2.56,1.59-5.26,1.96-8.22,1.46-1.02-.17-2.06-.48-2.99-.93-.3-.15-.61-.34-.9-.52-1.14-.74-2.51-2.02-3.29-3.14-1.85-2.65-2.51-5.92-1.87-9.08.19,0-.07.65-.07.95,0,.11.04.64.15.47-.23,3.35,1,6.45,3.23,8.93.02-.01.03-.3.06-.45.22.06-.05.49.15.45.53.09,3.7-.35,4.41-.71-.08.62-1.44.46-.86.75-.3.04.07.07.11.22-.52-.21-.8-.55-1.33-.19l2.62,1.31,1.42-2.32c.16.31,1.24,3.47,1.42,3.44.55-1.1.92-2.28,1.31-3.44.51.74.99,1.5,1.38,2.32.28-.07,2.71-1.27,2.67-1.42-.03-.11-.51-.03-.45-.26.92.15,1.85.23,2.78.3.11-.08-.28-1.25-.28-1.36,0-.19.46-1.06-.06-.28-.06-.1-.37-.94-.3-.97.23.29.37,1,.43.54.04-.26-.29-1.05-.28-1.48-.76-.24-2.03-.41-2.67-.75.32.03.6.28.92.11.06-.07-.02-.07-.02-.07,0,0,.04-.04.04-.04,0,0,.05.05.11-.15.45.46,1.22.49,1.81.71.26-.5.13-1.22.36-.86.02.03.14.46.21.56.35-.25.08-.72-.13-.93,0-.06-.03-.13-.04-.19l.47.37c.03-.1.23-.4.21-.47-.01-.04-.66-.38-.69-.36-.08.05.14.35-.02.37-.12-.47-.01-.44-.49-.75-.11-.07-.21-.12-.34-.15l-.04-.04c.04-.29-.11-.11-.19-.26.32-.09.65-.16.97-.26-.1.22.08.1.11.26-.23-.06-.32-.02-.56.13l1.53,1.01c-.11.3-1.06,1.83-1.08,1.94-.05.24.09.61.17.84.07-.2.23-.4.32-.56l-.07.45c-.18.37-.38.66-.45,1.07l.32,1.44c3.07-3.21,3.99-7.56,2.56-11.77.22-.12,0-.42,0-.64,1.36,3.29,1.27,6.77-.37,9.94Z" fill="#0e1d1a" stroke-width="0"/>
              <g>
                <path d="M25.56,34.68l.09.06c.18.8.59,1.54.82,2.32.05.17.34,1.21.24,1.25-2.86-.11-5.2-1.04-7.34-2.93l1.89-.21c.98.62,1.99,1.21,3.06,1.64l1.23-2.13Z" fill="#0c3028" stroke-width="0"/>
                <path d="M28.24,35.61c.25.21.63.07.71-.19.3.48.6.9.77,1.46.99-.58,2.08-.99,2.95-1.76l1.96.21c-1.91,1.89-4.6,3.06-7.33,2.95.24-.91.65-1.78.93-2.67Z" fill="#0c3028" stroke-width="0"/>
                <path d="M28.95,35.43c-.08.26-.46.4-.71.19.08-.25.11-.67.24-.93.07-.01.41.66.47.75Z" fill="#0c3028" stroke-width="0"/>
                <g>
                  <path d="M34.89,29.9s-.01.03-.04-.07c.16-.02-.06-.33.02-.37.03-.02.68.32.69.36.03.07-.17.37-.21.47l-.47-.37Z" fill="#be6c24" stroke-width="0"/>
                  <path d="M34.85,30.46c.19-.01.09-.25.07-.37.21.21.48.69.13.93-.07-.1-.19-.54-.21-.56Z" fill="#8e5c20" stroke-width="0"/>
                </g>
              </g>
            </g>
            <g>
              <path d="M32.87,26.79s-.11-.02-.11.02c.37.18,3,.82,3.16.8.08,0,.15-.13.26-.11v-.07l-2.3-.49s-.08-.04.02-.11c.31-.22.55-.47.84-.71.1,0,.13.16.15.22.02.07,0,.23.09.3.7-.4,1.8.39,2.49.73-.86.44-1.78.7-2.69.99-.32.1-.65.17-.97.26-.73.21-1.45.48-2.21.62.09-.08.2-.32.22-.34.27-.24,2.21-.78,2.73-.93-.91-.29-1.83-.58-2.69-1.01.48-.27,1.01-.5,1.48-.8,1.44-.94.97-.72.62-2.86-1.01.12-.88,1.48-2.04,1.66-.09-.05.92-1.62,1.01-1.79.26-.06,1.35-.41,1.42-.41.28,0,.36,1.44.58,1.49,0,.01,0,.03,0,.04-.17.23-.2.43-.09.71l.99-.77c-.24-.36-.35-.8-.56-1.18-.56-1.01-.68-.09-.34-1.63h.07l1.46,2.99c-1.38,1.01-1.97,1.68-3.59,2.37Z" fill="#e1e5e0" stroke-width="0"/>
              <path d="M29.62,27.8s.02,0,.07-.11c.06-.11.39-.55.56-.88.55-1.03,1.07-2.08,1.44-3.2l.88-.28-1.1,1.89c1.69-.26,1.26-.74,2.28-1.64l.36,1.66c-.9.86-2.09,1.28-3.18,1.83l.77-.13c.19.13.54.71.19.82-.1.03-1.73.09-2.02.11-.08,0-.2.03-.24-.07Z" fill="#248973" stroke-width="0"/>
              <path d="M30.33,26.23s-.05-.12-.04-.17c.06-.22.64-1.52.77-2.11-1.79.67-1.72.45-1.48,1.79-.12-.19-.51-1.27-.56-1.33-.03-.03-.07.03-.07.04-.03.2,1.49,3.25-.07,3.57.03-.12.38-.27.45-.39.36-.65-.68-4-1.31-4.67.31.71,1.42,3.96,1.23,4.48-.18.52-.32-.85-.34-.93-.47-1.99-1.25-4.05-1.89-6-.84,2.26-1.5,4.58-2,6.93l.06.13c.28,0,1.74,1.04,1.78,1.14.14.41-.07.28-.26.13-.39-.3-.68-.53-1.18-.71-.53-.19-1.19-.02-.77-.64.05.18.03.33.04.36.14.4.28-1.3.41-1.91.2-.95.53-1.88.82-2.8-.55.88-.85,1.87-1.05,2.88-.08.42-.1,1.04-.26,1.36-.03-.22-.05-.35-.04-.62.03-.45.31-1.5.3-1.78,0-.04.06-.05.04-.09-.1-.26-1.68-.99-2.06-.95-.01-.06-.03-.12-.07-.17.06-.1,1.91.63,2.15.65.59-.95,1.31-2.76,1.81-3.61.1-.17.19-.41.36-.36.21.07,1.69,3.53,2.06,3.92l2.19-.62c-.25.85-.62,1.65-1.01,2.45Z" fill="#e1e5e0" stroke-width="0"/>
              <path d="M23,25.71c.12.04.12.08.13.07.03,0,.03-.18.13-.15.09.2.23.42.34.64.25.53.54,1.04.75,1.59-.6.04-1.68-.12-2.17-.06-.45-.58.32-.76.82-.84-.69-.2-2.91-1.21-2.99-1.94-.02-.21.09-1.35.32-1.4.31-.07.74.84.97,1.05.08.07,1.6,1.01,1.7,1.05Z" fill="#0b7960" stroke-width="0"/>
              <path d="M24.87,25c-.29.76-.42,1.56-.58,2.35-.2-.41-.42-.82-.62-1.23-.27-.58-.69-1.57-.82-2.17.37-.04,1.95.69,2.06.95.02.04-.04.06-.04.09Z" fill="#f2ae51" stroke-width="0"/>
              <path d="M28.46,21.67s0,.08,0,.11c-.16-.1.2.33-.34.22-.36-.67-.65-1.38-1.07-2.02-.17-.04-.92,1.58-1.03,1.79-.38.06-.2-.15-.37-.19.51-1.11,1.01-2.24,1.42-3.4.36,1.19.8,2.37,1.38,3.48Z" fill="#0aab7e" stroke-width="0"/>
              <path d="M31.94,28.44c-.11.2-.91,1.2-1.16,1.74-.17.28-.63.06-.11.24,0,0,.03.12-.11.22-.04-.01-.44-.13-.45-.09.16.07.32.12.49.17-.12.48.22.2.34.37-.58-.05-1.59-.31-2.09-.56-.24-.12-1.46-.94-1.7-1.2l2.39,1.01c-.41-.3-1.5-.68-1.83-.9-.65-.43,1.11.33,1.42.41.24.06,1,.23,1.2.19.24-.15.61-.5.77-.73.5-.75.06-.96.86-.88Z" fill="#e1e5e0" stroke-width="0"/>
              <path d="M27.23,16.18l-.07.22c-.03-.07-.05-.15-.09-.22-.63,1.56-1.19,3.16-1.94,4.67-.34.1.48-1.63.47-1.74l-1.18-1.92c-.98.8-2.22,1.19-3.21,1.98h-2.26c.05-.07.1-.09.15-.15l2.07-.04c1.02-.78,2.24-1.22,3.25-2.02.15-.01,1.17,1.71,1.31,1.98.22-.38,1.1-2.89,1.21-3.01.23-.23.28.2.3.24Z" fill="#0c3028" stroke-width="0"/>
              <path d="M33.99,28.89l.04.04-.17,1.57c-.36-.11-1.39-1.25-1.7-.69-.16.3.32.67.41.95,0,0-.03.03-.04.04-.24.05-1.41-.62-1.42-.77,0-.03.33-.49.36-.5.11-.06,1.95-.35,2.52-.64Z" fill="#076750" stroke-width="0"/>
              <path d="M30.33,26.23c-.16.33-.32.65-.49.97.05-.42-.18-1.02-.26-1.46-.25-1.34-.32-1.12,1.48-1.79-.12.59-.71,1.89-.77,2.11-.01.05-.01.17.04.17Z" fill="#f2ae51" stroke-width="0"/>
              <path d="M24.61,27.39c.02.11.02.06.04.11-.42.61.24.44.77.64.49.18.78.41,1.18.71l-.07.04c-.66-.78-2.01-.77-2.92-.82-.33-.02-1.24.03-1.44-.04-.12-.04-.09-.11-.09-.11,0-.09.04-.1.11-.11.49-.07,1.57.09,2.17.06-.21-.55-.5-1.06-.75-1.59l.07-.15c.19.42.42.82.62,1.23.16-.79.29-1.6.58-2.35.02.28-.27,1.33-.3,1.78-.02.26,0,.4.04.62Z" fill="#0e1d1a" stroke-width="0"/>
              <path d="M26.03,21.79c-.15.3-1.09,2.34-1.21,2.39-.02,0-.33-.13-.34-.15-.05-.08.69-1.45.8-1.68.12-.25.26-.49.37-.75.17.04,0,.25.37.19Z" fill="#098e65" stroke-width="0"/>
              <path d="M27.08,18.2c-.41,1.16-.91,2.29-1.42,3.4-.12.26-.25.5-.37.75l-.07-.11c.71-1.45,1.19-3.01,1.83-4.48.27.53.05.42.04.45Z" fill="#0c5544" stroke-width="0"/>
              <path d="M29.58,25.75c.08.43.31,1.04.26,1.46-.03.31-.46.67-.15.49-.06.1-.07.11-.07.11-.07.18.02.23.19.3-.23.02-.44,0-.67.04-.16-.11-.31.06-.26-.11,1.56-.32.05-3.37.07-3.57,0,0,.05-.07.07-.04.05.05.44,1.13.56,1.33Z" fill="#0e1d1a" stroke-width="0"/>
              <path d="M28.57,21.52c-.12,0-.11.06-.11.15-.59-1.1-1.02-2.28-1.38-3.48,0-.03.23.08-.04-.45-.01-.15.08.02.11.09.37.85.75,2.23,1.42,3.68Z" fill="#11453e" stroke-width="0"/>
              <path d="M29.81,28.1s.02,0,.04,0c.07.29.24.13.34.22-1.46.13-1.48.1-2.78.86-.11-.06.48-.89,1.74-1.05.23-.03.45-.02.67-.04Z" fill="#f6f2df" stroke-width="0"/>
              <path d="M31.97,28.25c-.41.06-1.19.02-1.79.07-.09-.09-.27.07-.34-.22.4-.03,2-.08,2.11-.11.09-.03.2-.32.3-.3.14.03.18.5-.28.56Z" fill="#fbf9f3" stroke-width="0"/>
              <path d="M32.87,26.79l.77.26c.14-.09.23-.1.24-.11l2.3.49v.07c-.11-.02-.19.1-.26.11-.16.02-2.79-.62-3.16-.8,0-.04.09,0,.11-.02Z" fill="#0e1d1a" stroke-width="0"/>
              <path d="M22.07,27.92s-.03.07.09.11c.2.07,1.11.02,1.44.04l.07.26c-.36-.02-.72.02-1.08,0-.17,0-.51.02-.58,0-.15-.04-.51-.56-.19-.6.06,0,.18.15.24.19Z" fill="#fbf9f3" stroke-width="0"/>
              <g>
                <path d="M31.56,19.13c-.44.19-1.21.17-1.68.15-.22,0-.48.03-.52-.04.36-.28.79-.36,1.18-.56.23-.02.77.35,1.03.45Z" fill="#d69534" stroke-width="0"/>
                <path d="M31.64,19.06c-.06,0-.01.05-.07.07-.26-.1-.79-.47-1.03-.45-.39.2-.82.28-1.18.56-.03.03-.07.06-.11.07,0-.02-.06-.08-.04-.19.02-.07.66-1.14.8-1.31l-.26.75c.97-.22,1.1.09,1.89.49Z" fill="#023839" stroke-width="0"/>
                <path d="M29.88,19.28c.01.19.55-.03.67.13-.63.1-1.23.74-1.31-.09.04-.02.08-.05.11-.07.05.07.3.03.52.04Z" fill="#248973" stroke-width="0"/>
              </g>
              <g>
                <path d="M28.2,15.54l.07.22c-3.17-.36-6.99.87-9.19,3.25-.05.06-.1.08-.15.15,0,0-.13.05-.11.17l1.03,3.2,4.41,1.38c.5-.43-.39-.45-1.03-1.03-.12-.64-.32-1.28-.41-1.92.24-.07.12-.33-.04-.34,0-.13-.08-.16.02-.22l2.15,1.03-.75,1.68c.49.44.56.04,1.01-.88l.07.11c-.11.23-.85,1.6-.8,1.68,0,.02.32.16.34.15.12-.05,1.06-2.09,1.21-2.39.11-.21.86-1.83,1.03-1.79.42.64.71,1.35,1.07,2.02.18.34.98,1.89,1.12,2.04.09.09.59.1.41-.26-.16-.31-1.1-1.55-1.2-2,0-.03,0-.08,0-.11,0-.09,0-.15.11-.15.11.23.86,1.84.99,1.87.02,0,.42-.19.43-.24.01-.1-.85-1.5-.82-1.79.19-.1,2.18-1.08,2.24-.97l-.52,2.62c-.53.42-1.34.63-.95.92l4.34-1.38c.13-.1.92-2.9.92-3.16,0-.52-1.46-.19-2.3-.28-.92-.68-2.41-1.11-3.1-1.94-.14.16-.91,1.32-.92,1.4,0,.06.26.68.34.58-.03.11.04.16.04.19.07.84.68.19,1.31.09-.13-.16-.66.06-.67-.13.47.02,1.24.04,1.68-.15.06-.03.02-.07.07-.07.07.03.26.08.36.11-.86.29-1.79.52-2.65.86l-.64-1.23c-.51.35.47,1.39.3,2.09-.75-1.44-1.21-3-1.85-4.48l.07-.22c.44.81.74,1.91,1.14,2.77l1.35-2.02c.97.88,2.22,1.33,3.33,2.02.67.03,1.35-.07,2,.07.16.12.45.4.45.15.38.4.74.81,1.05,1.27.43.65.79,1.37,1.08,2.09,0,.21.22.51,0,.64-.39-1.16-1.14-2.64-1.98-3.53-.53-.57-.31-.29-.45.45-.07.39-.19.77-.26,1.16.75,1,1.13,2.2,1.79,3.25-.65.56-1.32,1.08-1.98,1.63-.29.24-.54.49-.84.71-.1.07,0,.1-.02.11-.01,0-.11.02-.24.11l-.77-.26c1.62-.69,2.21-1.37,3.59-2.37l-1.46-2.99h-.07c-.35,1.54-.22.61.34,1.63l-.07.15c-.03-.09-.44-.5-.49-.32.13.44.14.91.22,1.36-.22-.06-.3-1.5-.58-1.49-.07,0-1.16.35-1.42.41-.09.17-1.1,1.74-1.01,1.79,1.15-.19,1.02-1.54,2.04-1.66.35,2.14.83,1.92-.62,2.86-.47.3-.99.53-1.48.8.86.43,1.78.72,2.69,1.01-.51.15-2.46.69-2.73.93-.02.02-.13.26-.22.34.75-.13,1.47-.4,2.21-.62.08.15.23-.03.19.26-.57.28-2.41.57-2.52.64-.03.01-.36.47-.36.5,0,.14,1.18.81,1.42.77,0,0,.08,0,.02.07-.32.17-.6-.08-.92-.11-.62-.32-.61-.77-.97-.34-.52-.18-.06.04.11-.24.25-.54,1.05-1.54,1.16-1.74.04-.07.01-.12.04-.19.46-.06.42-.53.28-.56-.1-.02-.21.27-.3.3-.11.04-1.71.08-2.11.11-.01,0-.02,0-.04,0-.17-.07-.25-.12-.19-.3.04.11.16.08.24.07.29-.02,1.92-.08,2.02-.11.35-.11,0-.69-.19-.82l-.77.13c1.09-.55,2.27-.97,3.18-1.83l-.36-1.66c-1.02.9-.59,1.39-2.28,1.64l1.1-1.89-.88.28c-.37,1.11-.88,2.16-1.44,3.2-.17.32-.5.76-.56.88-.31.18.11-.18.15-.49.17-.32.33-.65.49-.97.39-.8.76-1.6,1.01-2.45l-2.19.62c-.37-.39-1.85-3.85-2.06-3.92-.16-.05-.25.18-.36.36-.5.85-1.22,2.66-1.81,3.61-.24-.02-2.09-.75-2.15-.65.05.05.06.11.07.17.13.6.55,1.59.82,2.17l-.07.15c-.1-.22-.25-.43-.34-.64-.27-.61-.51-1.23-.64-1.89l-1.03-.39c.53.75.78,1.68,1.4,2.35-.1-.03-1.62-.97-1.7-1.05-.23-.21-.66-1.11-.97-1.05-.23.05-.34,1.19-.32,1.4.08.73,2.3,1.74,2.99,1.94-.5.08-1.27.26-.82.84-.08.01-.12.02-.11.11-.07-.04-.18-.19-.24-.19-.32.03.04.56.19.6.07.02.41,0,.58,0-.04.07-.28,0-.3.11,0,.04.31.32.49.62.26.43.44.92.78,1.31-.13.19-.3-.17-.36-.17-.06,0-.57.51-1.05.71-.36.15-2.25.53-2.37.69-.6,1.82-.19,1.95-.19,2.06,0,.07-.41,1.12-.3,1.4-.2.04.07-.39-.15-.45.11-.58.27-.95.07-1.55-.06-.19-1.6-2.91-1.91-3.55,2.34-1.68,1.62-.46-1.08-2.13.31-.2,1.86-1.04,2-1.07.59-.1.77.43,1.03-.28l-1.79-1.53c.42-.99,1.01-2.48,1.72-3.21l-.41-1.94c-1.75,1.82-2.74,4.28-2.92,6.78-.11.17-.15-.36-.15-.47,0-.31.26-.94.07-.95,1.18-5.84,6.49-9.7,12.41-9.16Z" fill="#0c3028" stroke-width="0"/>
                <g>
                  <path d="M18.93,22.87c-.09.13-.62,1.36-.6,1.44l1.07.73-.28-1.01c.05-.12.13-.22.19-.34,0,0,.04.1.07.02.06-.13.22-.92.28-.95l1.46.37.21.17c.31.63.76,1.25,1.07,1.85-1.25-.58-1.6-2.07-2.24-1.79-.19.08-.41,1.8-.28,2.07.66.68,1.52,1.08,2.32,1.57-.9.38-1.81.75-2.77.93.5.18,2.62.76,2.86.92.06.04.34.43.32.47-.61-.18-5.9-1.63-5.9-1.94.75-.35,1.51-1.09,2.37-.73l.26-.56c.07-.02.77.76.88.86-.26.12-2.16.4-2.21.5,0,0,.07.16.09.17.14.06,2.35-.5,2.67-.6.45-.14.52-.09.43-.19-.06-.06-.87-.41-1.53-.86-.7-.48-1.31-1.09-2-1.59l1.42-2.92.3,1.01c-.26.12-.3.17-.45.39Z" fill="#e1e5e0" stroke-width="0"/>
                  <path d="M20.03,28.89c.77.4,2.61.6,2.73.67.02.01.29.4.28.43-.02.08-1.32.87-1.44.8-.02-.24.57-.91.41-1.05-.17.03-.24-.18-.41-.15-.08.01-1.1.82-1.31.9l-.26-1.61Z" fill="#076750" stroke-width="0"/>
                  <path d="M18.33,29.9c.1.33.28.63.45.93.16.29.33.56.56.8l-.19.97-1.53-3.06c.64-.31,1.47-1.23,2.09-.82l-1.44.99c-.07.09.05.18.06.19Z" fill="#e1e5e0" stroke-width="0"/>
                  <path d="M19.3,30.49l-.22-.3c.16-.25.1-.43.15-.71.08-.1.46-.42.6-.43l.28,1.74s.84-.42.93-.49c.5-.35.76-.9.8-.43.02.16-.47.78-.62.95-.26.02-1.54.61-1.66.43-.11-.48.02-1.21-.26-.77Z" fill="#e1e5e0" stroke-width="0"/>
                  <path d="M31.1,20.78c-.04.29-.38,1.98-.43,2.07-.03.06-.4.29-.43.28-.09-.02-.69-1.41-.8-1.59l1.66-.77Z" fill="#0aab7e" stroke-width="0"/>
                  <path d="M23.02,20.81l1.63.77c-.13.16-.64,1.42-.73,1.44-.04,0-.42-.2-.47-.28-.05-.09-.42-1.65-.43-1.92Z" fill="#0aab7e" stroke-width="0"/>
                  <path d="M23.27,25.64c-.1-.03-.1.14-.13.15,0,0-.01-.03-.13-.07-.63-.67-.87-1.6-1.4-2.35l1.03.39c.13.66.37,1.28.64,1.89Z" fill="#0aab7e" stroke-width="0"/>
                  <path d="M28.46,21.79c.1.45,1.04,1.69,1.2,2,.18.36-.32.36-.41.26-.14-.15-.94-1.69-1.12-2.04.54.1.17-.32.34-.22Z" fill="#098e65" stroke-width="0"/>
                  <path d="M21.86,27.21l.06.06c-.48.6-.59.48-.28,1.07l-1.29-.43,1.51-.69Z" fill="#076750" stroke-width="0"/>
                  <g>
                    <path d="M19.3,23.69c-.06.11-.13.21-.19.34-.06.14-.2-.05-.02.67l-.5-.39.52-1.4c.59-.15-.04.42.19.78Z" fill="#b37a2a" stroke-width="0"/>
                    <path d="M19.12,22.91l-.52,1.4.5.39c-.18-.73-.04-.53.02-.67l.28,1.01-1.07-.73c-.02-.07.51-1.31.6-1.44.08.11.06.07.19.04Z" fill="#122b2e" stroke-width="0"/>
                  </g>
                  <path d="M20.2,26.94c.29.28.16.02.56.07-.32.1-2.53.65-2.67.6-.03-.01-.1-.16-.09-.17.04-.11,1.95-.38,2.21-.5Z" fill="#0e1d1a" stroke-width="0"/>
                  <path d="M32.18,27.35l1.48.54-.99.36c-.24-.41-.03-.43-.49-.9Z" fill="#076750" stroke-width="0"/>
                  <path d="M19.23,29.48c-.05.29,0,.46-.15.71-.15.24-.38.08-.19.49l-.11.15c-.17-.3-.35-.6-.45-.93.15.1.08-.02.15-.07.17.64.53.37.56-.07.18.02.02-.05.19-.26Z" fill="#0e1d1a" stroke-width="0"/>
                  <path d="M19.04,29.75c-.03.44-.39.71-.56.07.69-.47.57-.26.56-.07Z" fill="#be6c24" stroke-width="0"/>
                  <path d="M19.3,30.49s-.11.38-.21.49c-.02,0-.19-.26-.21-.3-.2-.4.04-.24.19-.49l.22.3Z" fill="#be6c24" stroke-width="0"/>
                  <path d="M22.82,20.96c-.01-.1-.03-.24-.04-.34.16,0,.27.27.04.34Z" fill="#11453e" stroke-width="0"/>
                </g>
              </g>
              <path d="M35.19,32.44l.07-.45c.43-.79.8-1.64,1.2-2.45-.38-.2-1.25-.83-1.57-.92-.03-.16-.21-.04-.11-.26.91-.29,1.83-.55,2.69-.99-.69-.34-1.78-1.13-2.49-.73-.1-.07-.07-.23-.09-.3.12.09.39-.07.47-.07.56-.02,2.02.76,2.56,1.1-.8.55-1.75.82-2.65,1.16l1.49.97c-.48.99-1.08,1.94-1.57,2.93Z" fill="#0c3028" stroke-width="0"/>
              <path d="M34.89,28.63c.32.09,1.19.72,1.57.92-.4.81-.77,1.65-1.2,2.45-.09.16-.25.36-.32.56-.08-.24-.21-.61-.17-.84.02-.11.97-1.64,1.08-1.94l-1.53-1.01c.24-.15.33-.19.56-.13Z" fill="#e1e5e0" stroke-width="0"/>
              <path d="M34.37,29.07c.47.31.36.28.49.75.03.1.04.07.04.07.01.06.03.13.04.19.02.12.12.36-.07.37-.22-.36-.1.36-.36.86-.59-.22-1.37-.25-1.81-.71-.12-.13-.64-.83-.21-.82.22,0,.49.54.64.64.04.03.69.23.9.34.24-.49.09-1.8.36-1.68Z" fill="#e1e5e0" stroke-width="0"/>
              <path d="M34.37,29.07c-.26-.12-.11,1.19-.36,1.68-.21-.11-.85-.31-.9-.34-.14-.1-.41-.63-.64-.64-.44,0,.08.7.21.82-.06.2-.11.14-.11.15-.09-.28-.57-.66-.41-.95.31-.56,1.34.58,1.7.69l.17-1.57c.13.03.23.08.34.15Z" fill="#0c3028" stroke-width="0"/>
              <path d="M23.23,33.71c.23-.57.19-.44-.22-.3l.26-1.29.04-.75c.05-.16,1.46-.4,1.7-.47.62.38.82,1.3,1.29,1.49.03.04.09.08.11.11.7.95.58.87,1.16.34.6-.56.97-1.3,1.38-2l.13-.06,1.66.47c.08.69.29,1.36.26,2.06-.56-.06-.13.19-.39.47-.92-.24-1.73-.75-2.62-1.05-.44.76-.59,1.63-.93,2.43l-1.01-2.54c-.5.24-.94.61-1.46.82-.18.07-1.41.48-1.36.26Z" fill="#076750" stroke-width="0"/>
              <path d="M30.93,31.09c.07.1.4,2.24.34,2.34-.1.15-.71-.43-.41.56-.07.09-1.53-.36-1.79-.39.02-.1-.17-.11-.26-.11.04-.14.17-.19.13-.22l-.78-.34c-.15.03-.96,2.47-1.08,2.8l-1.08-2.84c-1.36.56-.52.45-.5.54.03.12-2.25.61-2.43.6.08-.08.14-.21.19-.32-.05.22,1.18-.19,1.36-.26.52-.21.96-.58,1.46-.82l1.01,2.54c.34-.8.49-1.67.93-2.43.88.3,1.69.81,2.62,1.05.26-.28-.17-.53.39-.47.03-.69-.18-1.37-.26-2.06l-1.66-.47-.13.06c-.41.7-.78,1.44-1.38,2-.09.02-.05-.07-.11-.07.4-.43,1.15-1.64,1.35-2.13.01-.03,0-.07.04-.11.51.25,1.52.51,2.09.56Z" fill="#0c3028" stroke-width="0"/>
              <path d="M25.25,30.79c.04.12.43.32.52.43.06.44.28.82.52,1.18-.47-.19-.67-1.12-1.29-1.49-.24.07-1.65.3-1.7.47l-.04.75-.26,1.29c-.1.03-.21.15-.22.02l.37-2.21c.07-.09,1.84-.52,2.09-.58.06.07-.02.09,0,.15Z" fill="#0c3028" stroke-width="0"/>
              <g>
                <path d="M34.93,24.29c.03.14.06.28.09.41.11-.09.27-.18.36-.3,0-.01.13.05.04-.13-.53-.49-.05-.62-.22-1.07l.07-.15c.21.38.32.81.56,1.18l-.99.77c-.11-.28-.07-.48.09-.71Z" fill="#122b2e" stroke-width="0"/>
                <path d="M35.19,23.21c.18.45-.3.57.22,1.07.09.18-.03.12-.04.13-.35-.73-.22-.09-.45-.15-.08-.45-.09-.92-.22-1.36.05-.18.45.23.49.32Z" fill="#d69534" stroke-width="0"/>
                <path d="M35.38,24.4c-.08.11-.24.21-.36.3-.03-.14-.07-.27-.09-.41,0-.01,0-.03,0-.04.22.06.1-.58.45.15Z" fill="#b37a2a" stroke-width="0"/>
              </g>
              <path d="M26.52,28.89c.12.15.25.31-.02.3-.39-.02-.17-.72-2.82-.86l-.07-.26c.9.05,2.26.05,2.92.82Z" fill="#f6f2df" stroke-width="0"/>
              <path d="M24.65,27.5s-.02,0-.04-.11c.16-.33.18-.94.26-1.36.2-1.01.5-2,1.05-2.88-.29.92-.62,1.85-.82,2.8-.13.6-.27,2.3-.41,1.91,0-.03.01-.17-.04-.36Z" fill="#0e1d1a" stroke-width="0"/>
              <g>
                <path d="M29.06,33.6c-.38-.05-.23.21-.09.3.29.19,2.57.78,3.05.86-.06.23.42.16.45.26-.74-.24-1.66.57-2.49.71-.25-.84-1.15-1.69-1.21-1.89-.08-.24,0-.21.04-.36.09,0,.28.01.26.11Z" fill="#17191a" stroke-width="0"/>
                <path d="M30.78,35.13c-.4-.16-.87-.4-1.05-.78.18.02.36.06.54.07.29.35,1.04.49.93.6-.12.04-.35.08-.43.11Z" fill="#e38226" stroke-width="0"/>
                <path d="M29.73,34.34c.18.39.64.62,1.05.78-.09.03-.49.24-.54.22l-.8-1.03c.04-.06.19,0,.3.02Z" fill="#be6c24" stroke-width="0"/>
              </g>
              <g>
                <path d="M22.86,35.09c-.58-.29.78-.12.86-.75h.07c1.36.04,1.08-.4-.13,1.05-.19-.14-.67-.24-.8-.3Z" fill="#e38226" stroke-width="0"/>
                <g>
                  <path d="M22.97,35.32c-.04-.15-.41-.19-.11-.22.13.06.61.16.8.3,1.22-1.44,1.49-1.01.13-1.05.75-.27,1.19-.29,1.79-.88-.31.61-1.22,1.43-1.23,1.53-.01.13.29-.08-.22.75-.09.05-1-.36-1.16-.43Z" fill="#17191a" stroke-width="0"/>
                  <path d="M24.11,35.32c.14,0-.08.38-.19.22-.07-.09.1-.11.19-.22Z" fill="#573212" stroke-width="0"/>
                </g>
              </g>
              <g>
                <path d="M27.15,16.4c.64,1.48,1.1,3.05,1.85,4.48.17-.7-.81-1.74-.3-2.09l.64,1.23c.86-.34,1.8-.57,2.65-.86-.09-.03-.28-.08-.36-.11-.79-.39-.91-.71-1.89-.49l.26-.75c-.15.17-.79,1.23-.8,1.31-.07.1-.34-.52-.34-.58,0-.08.78-1.24.92-1.4.69.83,2.18,1.26,3.1,1.94.84.09,2.29-.24,2.3.28,0,.25-.78,3.05-.92,3.16l-4.34,1.38c-.39-.28.42-.49.95-.92l.52-2.62c-.06-.11-2.05.87-2.24.97-.03.29.84,1.7.82,1.79,0,.06-.41.25-.43.24-.13-.03-.88-1.64-.99-1.87-.67-1.45-1.05-2.83-1.42-3.68-.03-.07-.12-.25-.11-.09-.64,1.48-1.13,3.04-1.83,4.48-.45.92-.52,1.31-1.01.88l.75-1.68-2.15-1.03c-.1.07-.02.09-.02.22,0,.1.02.24.04.34.09.65.29,1.28.41,1.92.64.57,1.53.6,1.03,1.03l-4.41-1.38-1.03-3.2c-.02-.11.11-.16.11-.17h2.26c.99-.79,2.23-1.18,3.21-1.98l1.18,1.92c.01.11-.8,1.84-.47,1.74.76-1.51,1.31-3.11,1.94-4.67.04.07.06.15.09.22Z" fill="#e1e5e0" stroke-width="0"/>
                <g>
                  <path d="M33.99,19.99c.08,0,0,.04,0,.07-.37.18-.71.43-1.12.5.31,1.36,1.1.08.93.86-.02.1-.28.34-.37.43-.13.07-.13.07-.22.19-.04.02-.07.05-.11.07-.05.03-.18,0-.04.11-.49.25-1.04.42-1.55.64-.05-.04.14-.81.17-.93.1.05.11-.07.22.11,0,.02-.02.04-.04.11-.02.1-.05.16-.04.26,0,.03-.08.08-.02.15.1.06,1.24-.27,1.66-.99.37-.62-.23.2-.71-.69-.05-.09-.09-.33-.11-.45,0,0-.01-.07.02-.07.17-.03.46-.04.64,0,.16-.19.46-.26.69-.37Z" fill="#0c3028" stroke-width="0"/>
                  <path d="M33.81,19.69l.07.11c-.29.07-1.34.32-1.49.45,0,0-.05-.03-.11.09-.09.57-.26,1.13-.37,1.7-.11-.18-.12-.06-.22-.11.13-.6.28-1.19.41-1.79.52-.11,1.02-.27,1.53-.41.1-.03.16-.03.19-.04Z" fill="#11453e" stroke-width="0"/>
                  <path d="M33.62,19.73c-.51.15-1.02.3-1.53.41,0-.01-.06-.07-.04-.21.04-.08,1.6-.45,1.79-.34l-.22.13Z" fill="#e1e5e0" stroke-width="0"/>
                  <path d="M31.47,19.84c.32.16-1.8.89-1.85.8-.07-.12,1.76-.85,1.85-.8Z" fill="#0e1d1a" stroke-width="0"/>
                  <path d="M22.69,19.88c.11.1,1.83.56,1.74.73-.17,0-2.08-.47-1.74-.73Z" fill="#17191a" stroke-width="0"/>
                  <path d="M20.03,19.51l2.07.36c-.7-.02-1.41-.15-2.07-.36Z" fill="#17191a" stroke-width="0"/>
                  <path d="M20.16,21.34c-.06.06.07.2.15.26.05.26.32.3.52.37l-.04.11c-.15-.08-.31-.16-.47-.22-.17-.14-.22-.35-.32-.52.05,0,.13.01.15,0Z" fill="#282822" stroke-width="0"/>
                  <path d="M20.31,21.6c-.08-.06-.21-.21-.15-.26.02,0,.13-.16.3-.26v.62c-.06,0-.11-.06-.15-.09Z" fill="#d69534" stroke-width="0"/>
                  <g>
                    <path d="M20.8,22.08l.04-.11c.94.35.15.02.09-.3.62.35-.1-.15-.34-.71-.07-.01-.12.11-.13.11-.17.1-.28.25-.3.26-.02.01-.1,0-.15,0-.37-.62-.66-1.32-.95-1.98.98.35,2.01.55,3.03.78l.54,2.67c-.61-.21-1.26-.43-1.83-.73Z" fill="#0c3028" stroke-width="0"/>
                    <g>
                      <path d="M19.47,19.73l2.43.6.43,2.11c-1.13-.55-.72-.57-.99-1.59l-1.23-.26-.64-.86Z" fill="#098e65" stroke-width="0"/>
                      <path d="M20.84,21.97c-.21-.08-.47-.11-.52-.37.04.03.09.09.15.09v-.62s.06-.13.13-.11c.24.56.95,1.06.34.71.06.32.85.64-.09.3Z" fill="#f2ae51" stroke-width="0"/>
                      <path d="M20.05,21.08s.12-.06-.04-.07c-.15-.12-.01-.08.3-.06.02.03-.25.48-.26.13Z" fill="#b37a2a" stroke-width="0"/>
                      <path d="M20.78,21s.28.06.28.09c0,.05-.19.17-.28-.09Z" fill="#c9f0df" stroke-width="0"/>
                      <path d="M20.05,21.08s-.03-.07-.04-.07c.16.01.04.07.04.07Z" fill="#664102" stroke-width="0"/>
                    </g>
                  </g>
                  <g>
                    <path d="M23.38,19.58l-.34-.3c.38.09.51.1.9.07,0,.02.01.06-.02.07-.36.13-.36-.1.67.37l.24-.5-.11-.06c.15,0,0-.06-.09-.11-.34-.18-.77-.27-1.12-.45-.12-.01-.4.07-.54.11.13-.17.54-.25.75-.3-.13.14.76.41,1.14.56-.03-.12-.51-.74-.56-.75-.03.02-.05.07-.09.07l.06-.41.88,1.21-.34.78c-.06.04-1.25-.34-1.42-.39Z" fill="#0c3028" stroke-width="0"/>
                    <path d="M24.72,19.24c-.26.06-.52.1-.78.11-.39.02-.51.02-.9-.07-.16-.04-.46-.16-.64-.22.15-.07.48-.24.56-.26.14-.04.42-.12.54-.11.35.18.78.26,1.12.45.09.05.24.12.09.11Z" fill="#f2ae51" stroke-width="0"/>
                    <path d="M23.71,18.5c.15-.04.33-.09.49-.11.04,0,.06-.05.09-.07.05,0,.53.63.56.75-.38-.15-1.27-.42-1.14-.56Z" fill="#0b7960" stroke-width="0"/>
                    <path d="M22.41,19.06c.17.06.48.19.64.22l.34.3c-.12-.04-1.38-.36-1.33-.41.12-.02.25-.06.36-.11Z" fill="#0e1d1a" stroke-width="0"/>
                    <path d="M24.72,19.24l.11.06-.24.5c-1.04-.47-1.03-.25-.67-.37.03-.01.02-.05.02-.07.27-.01.52-.05.78-.11Z" fill="#098e65" stroke-width="0"/>
                  </g>
                  <path d="M33.99,20.07c.05.43.02.86.07,1.29-.03.19-.38.44-.54.54,0,0-.04-.07-.09-.04.09-.09.35-.33.37-.43.17-.78-.63.5-.93-.86.41-.08.75-.32,1.12-.5Z" fill="#f2ae51" stroke-width="0"/>
                  <path d="M33.99,19.99c-.23.11-.53.19-.69.37-.18-.04-.46-.03-.64,0-.03,0-.01.07-.02.07-.01,0-.07-.05-.22,0,0-.11.08-.15-.04-.19.15-.13,1.21-.37,1.49-.45.29-.08.57-.17.86-.24-.17.83-.41.25-.54.24-.07,0-.19.18-.21.19Z" fill="#076750" stroke-width="0"/>
                  <g>
                    <path d="M33.06,22.23c-.15-.11-.01-.08.04-.11.08.02.08-.03.11-.07.03-.02.18-.08.24-.11.04-.02-.04-.06-.02-.07.05-.03.09.04.09.04.16-.1.52-.35.54-.54-.05-.43-.02-.86-.07-1.29,0-.04.08-.07,0-.07.01,0,.13-.19.21-.19.13,0,.37.59.54-.24-.29.08-.57.17-.86.24l-.07-.11c.37-.11.73-.27,1.1-.37.12.03-.26.96-.32,1.1-.44,1.07-.51,1.3-1.53,1.81Z" fill="#0e1d1a" stroke-width="0"/>
                    <path d="M34.24,20.37c.15-.17.19.32.07.37-.16.07-.13-.31-.07-.37Z" fill="#0c5544" stroke-width="0"/>
                    <path d="M33.21,22.05c.1-.11.09-.11.22-.19-.02.02.06.05.02.07-.06.03-.21.09-.24.11Z" fill="#f2ae51" stroke-width="0"/>
                    <path d="M33.21,22.05s-.04.09-.11.07c.04-.03.08-.05.11-.07Z" fill="#f2ae51" stroke-width="0"/>
                  </g>
                  <path d="M31.82,22.42l1.23-.77c-.28-.09-.35-.51-.3-.77.48.89,1.08.07.71.69-.42.72-1.56,1.05-1.66.99-.06-.07.02-.12.02-.15Z" fill="#0b7960" stroke-width="0"/>
                  <path d="M32.39,20.25c.12.04.03.08.04.19.04.4.08.81.15,1.21l-.71.5c.01-.07.03-.09.04-.11.11-.57.29-1.13.37-1.7.06-.13.11-.09.11-.09Z" fill="#098e65" stroke-width="0"/>
                  <path d="M32.65,20.44c.02.12.06.36.11.45-.05.25.02.68.3.77l-1.23.77c0-.11.02-.16.04-.26l.71-.5c-.06-.4-.11-.81-.15-1.21.15-.05.21,0,.22,0Z" fill="#0c5544" stroke-width="0"/>
                </g>
              </g>
              <g>
                <path d="M28.8,30.64c-.19.49-.95,1.7-1.35,2.13-.01,0-.14.18-.04-.06.16-.35.89-1.06.93-2.13-.03-.11-1.17-.79-1.36-.92-.29.35-.78.5-1.01.9-.03.02-.58.04-.73.07-.26.06-2.03.49-2.09.58l-.37,2.21c.01.13.12.02.22-.02.41-.14.45-.27.22.3-.04.11-.11.23-.19.32.18,0,2.46-.47,2.43-.6-.02-.09-.85.02.5-.54l1.08,2.84c.12-.33.94-2.77,1.08-2.8l.78.34s-.09.09-.13.22c-.04.14-.12.12-.04.36.07.2.97,1.05,1.21,1.89.83-.14,1.74-.95,2.49-.71.04.15-2.4,1.35-2.67,1.42-.39-.81-.87-1.58-1.38-2.32-.39,1.16-.76,2.34-1.31,3.44-.18.03-1.26-3.13-1.42-3.44l-1.42,2.32-2.62-1.31c.53-.37.8-.02,1.33.19.16.06,1.07.48,1.16.43.51-.83.21-.62.22-.75.01-.1.92-.93,1.23-1.53-.6.59-1.04.61-1.79.88h-.07c-.71.36-3.88.8-4.41.71-.11-.28.3-1.33.3-1.4,0-.11-.41-.24.19-2.06.12-.17,2.01-.54,2.37-.69.48-.2.98-.71,1.05-.71.05,0,.22.35.36.17-.34-.39-.52-.88-.78-1.31-.18-.3-.49-.58-.49-.62.96-.05.34.19.9,1.14.13.23.62.72.69.73.34.03-.23-.38-.39-.58-.59-.76.39.24.62.32.51.16,1.56-.46,2.09-.6.6-.16.62-.08.15.3-.35.28-1.19.62-1.27.67-.03.02-.09.08,0,.07.71-.32,1.4-.52,1.94-1.12.5.54,1.23.78,1.78,1.27Z" fill="#e1e5e0" stroke-width="0"/>
                <path d="M28.14,33.52l-.9,2.8c.06-.91.47-2,.9-2.8Z" fill="#17191a" stroke-width="0"/>
                <path d="M26.01,33.63c.34.83.76,1.76.82,2.65-.3-.87-.7-1.73-.82-2.65Z" fill="#17191a" stroke-width="0"/>
                <path d="M19.7,32.55c0,.2.07.51.06.62-.06.63-.29-.25-.06-.62Z" fill="#17191a" stroke-width="0"/>
                <g>
                  <path d="M22.65,31.2c.08-.01.05.06.06.13,0,.15-.47,2.33-.45,2.88-.1.19-2.45.72-2.82.62.26-1.02.33-2.25,1.16-2.99l2.06-.64Z" fill="#0e1d1a" stroke-width="0"/>
                  <g>
                    <path d="M21.42,32.29l.88.09c-.1.19-.36,0-.6.22-.06.05-.18.43-.52.67-.19,1.48-.2.58-.52.19-.27-.32-.67-.13-.45-.78.15-.44.15.27.54.17.04-.01.36-.44.67-.56Z" fill="#e38226" stroke-width="0"/>
                    <path d="M22.43,31.39c.17-.01-.44.8-.49.82-.18.09-.25-.26-.9.11-.08.05-.35.33-.37.34-.28.04-.12-.64-.07-.67.08-.07,1.62-.35,1.83-.6Z" fill="#0c5544" stroke-width="0"/>
                    <path d="M21.77,34.01c-.12-.05-.21-.21-.22-.34-.04-.24.25-1.13.64-.92-.17.67-.04,1.41-.41,1.25Z" fill="#11453e" stroke-width="0"/>
                    <path d="M20.15,33.45c.15-.06.8.13-.26.9-.13-.01.2-.87.26-.9Z" fill="#123c2c" stroke-width="0"/>
                    <path d="M21.55,33.67c.02.12.1.28.22.34-1.84.74-2.86.74-.24,0l.02-.34Z" fill="#f6f2df" stroke-width="0"/>
                  </g>
                </g>
              </g>
              <g>
                <path d="M27.45,32.77c.06,0,.02.1.11.07-.57.53-.46.61-1.16-.34-.24-.57-.61-1.13-.45-1.78l-.71.06c-.02-.06.06-.08,0-.15.15-.03.7-.06.73-.07.23-.4.72-.54,1.01-.9.19.13,1.34.81,1.36.92-.04,1.07-.78,1.79-.93,2.13-.1.23.03.05.04.06Z" fill="#0e1d1a" stroke-width="0"/>
                <path d="M26.41,32.51s-.09-.07-.11-.11c-.24-.36-.46-.74-.52-1.18-.09-.11-.49-.31-.52-.43l.71-.06c-.16.64.21,1.21.45,1.78Z" fill="#e1e5e0" stroke-width="0"/>
                <path d="M27.02,29.9c.15.21.93.62.99.8.15.48-.65,1.83-.95,2.26-.76-1.01-1.4-2.24-.04-3.06Z" fill="#e38226" stroke-width="0"/>
              </g>
              <g>
                <path d="M28.87,28.03c-.05.17.11,0,.26.11-1.25.16-1.85.98-1.74,1.05,1.3-.76,1.32-.73,2.78-.86.6-.05,1.38-.02,1.79-.07-.02.07,0,.12-.04.19-.8-.08-.36.12-.86.88-.15.23-.52.58-.77.73-.2.04-.96-.12-1.2-.19-.31-.08-2.07-.84-1.42-.41.33.22,1.43.6,1.83.9l-2.39-1.01c.24.26,1.46,1.08,1.7,1.2-.03.04-.03.08-.04.11-.55-.49-1.28-.73-1.78-1.27-.55.6-1.23.81-1.94,1.12-.09,0-.03-.05,0-.07.08-.05.92-.39,1.27-.67.47-.38.45-.46-.15-.3-.53.14-1.59.76-2.09.6-.23-.07-1.21-1.07-.62-.32.16.2.73.61.39.58-.07,0-.56-.5-.69-.73-.56-.95.07-1.19-.9-1.14.01-.1.26-.04.3-.11.36.02.72-.02,1.08,0,2.65.14,2.43.84,2.82.86.27.01.14-.15.02-.3l.07-.04c.19.15.41.28.26-.13-.03-.1-1.49-1.13-1.78-1.14l-.06-.13c.5-2.35,1.16-4.68,2-6.93.64,1.95,1.41,4.01,1.89,6,.02.08.15,1.46.34.93.18-.53-.92-3.77-1.23-4.48.63.67,1.67,4.02,1.31,4.67-.07.12-.41.27-.45.39Z" fill="#0e1d1a" stroke-width="0"/>
                <path d="M27.02,20.96c.6,2.17,1.29,4.32,1.74,6.52-.6.14-1.7,1.04-1.81,1.03l-1.61-1.05c.49-2.16,1.02-4.37,1.68-6.5Z" fill="#e38226" stroke-width="0"/>
                <path d="M30.76,28.44c.06,0,.25-.02.28.02-.04.6-.47,1.11-.95,1.44-.71-.04-1.53-.22-1.92-.88.66-.7.51.37,1.4.47l.06-.06-.73-.77c.06-.07,1.69-.23,1.87-.22Z" fill="#e38226" stroke-width="0"/>
                <path d="M28.59,27.73c1.24-.25-.46.58-.6.67-.67.42-1.23,1.02-.95.39.08-.18,1.35-1.03,1.55-1.07Z" fill="#e1e5e0" stroke-width="0"/>
                <g>
                  <path d="M23.25,28.48c.86.15,2.38-.22,2.63.92-1.13.42-1.35.78-2.07.21-.3-.24-.78-.72-.56-1.12Z" fill="#e38226" stroke-width="0"/>
                  <path d="M25.08,28.74c.66-.12.24.47-.11.56-.66.16-.18-.51.11-.56Z" fill="#0e1d1a" stroke-width="0"/>
                </g>
              </g>
              <g>
                <path d="M31.64,30.76c.65.34,1.91.51,2.67.75,0,.43.32,1.22.28,1.48-.06.46-.2-.25-.43-.54-.07.03.24.87.3.97.51-.78.05.09.06.28,0,.12.39,1.28.28,1.36-.93-.07-1.86-.14-2.78-.3-.48-.08-2.76-.67-3.05-.86-.13-.09-.28-.35.09-.3.26.04,1.72.48,1.79.39-.3-.99.31-.41.41-.56.07-.1-.27-2.24-.34-2.34-.12-.17-.46.11-.34-.37.38.11.2.02-.04-.07.14-.1.1-.21.11-.22.36-.44.35.01.97.34Z" fill="#e1e5e0" stroke-width="0"/>
                <path d="M30.55,30.64c.24.09.42.18.04.07-.17-.05-.33-.09-.49-.17,0-.03.41.08.45.09Z" fill="#44433f" stroke-width="0"/>
                <g>
                  <path d="M33.92,32.59c-.24.72.01.69.11,0,.12-.01.08.29.11.39.2.61.42,1.22.49,1.87-.36.01-2.66-.4-2.77-.6l-.39-3.01c.97.44,2.66.41,2.45,1.35Z" fill="#0e1d1a" stroke-width="0"/>
                  <g>
                    <path d="M34.03,32.59c-.1.69-.35.72-.11,0,.04,0,.08,0,.11,0Z" fill="#723c33" stroke-width="0"/>
                    <path d="M31.99,32.18c.88.3,1.58-.05,1.63.02.16.93-.5,1.98-1.53,1.49l-.09-1.51Z" fill="#0c5544" stroke-width="0"/>
                    <path d="M33.13,34.23s-.03,0-.04,0c.04-.21-.16,0-.19-.13-.05-.2.23-.09.54-.36.34-.29.31-.94.62-.24.04.1.19.72.15.78-.88-.2-.69-.02-.73-.02-.18,0-.31-.2-.36-.04Z" fill="#0c5544" stroke-width="0"/>
                    <path d="M31.92,31.65c.07-.04,1.56.3,1.51.39-.58.25-1.72-.27-1.51-.39Z" fill="#0c5544" stroke-width="0"/>
                    <path d="M33.1,34.23s.03,0,.04,0c.62.13,1.56.38.99.34-.39-.03-1.47-.33-1.92-.47.02-.09.81.11.9.13Z" fill="#fbf9f3" stroke-width="0"/>
                  </g>
                </g>
              </g>
            </g>
          </g>
        </g>
      </g>
    </g>
  </g>
</svg>