<?xml version="1.0" encoding="UTF-8"?>
<svg id="Layer_2" data-name="Layer 2" xmlns="http://www.w3.org/2000/svg" xmlns:xlink="http://www.w3.org/1999/xlink" viewBox="0 0 489.46 487.02">
  <defs>
    <style>
      .cls-1 {
        fill: url(#linear-gradient);
      }

      .cls-1, .cls-2, .cls-3, .cls-4, .cls-5, .cls-6, .cls-7, .cls-8, .cls-9, .cls-10, .cls-11, .cls-12, .cls-13, .cls-14, .cls-15, .cls-16, .cls-17, .cls-18, .cls-19, .cls-20, .cls-21, .cls-22, .cls-23, .cls-24, .cls-25, .cls-26, .cls-27, .cls-28, .cls-29, .cls-30, .cls-31, .cls-32, .cls-33, .cls-34, .cls-35, .cls-36, .cls-37, .cls-38 {
        stroke-width: 0px;
      }

      .cls-2 {
        fill: #f8f9f8;
      }

      .cls-3 {
        fill: #5d5e59;
      }

      .cls-4 {
        fill: #787d78;
      }

      .cls-5 {
        fill: #7a624a;
      }

      .cls-6 {
        fill: #828876;
      }

      .cls-7 {
        fill: #4ca38d;
      }

      .cls-8 {
        fill: #4f5c53;
      }

      .cls-9 {
        fill: #7b4e39;
      }

      .cls-10 {
        fill: #474848;
      }

      .cls-11 {
        fill: #2a2920;
      }

      .cls-12 {
        fill: #898d87;
      }

      .cls-13 {
        fill: #2f332f;
      }

      .cls-14 {
        fill: #0d291c;
      }

      .cls-15 {
        fill: #358368;
      }

      .cls-16 {
        fill: #07604c;
      }

      .cls-17 {
        fill: #167259;
      }

      .cls-18 {
        fill: #101a16;
      }

      .cls-19 {
        fill: #171715;
      }

      .cls-20 {
        fill: #150b04;
      }

      .cls-21 {
        fill: #c7ccc6;
      }

      .cls-22 {
        fill: #e0934b;
      }

      .cls-23 {
        fill: #d66422;
      }

      .cls-24 {
        fill: #c39d66;
      }

      .cls-25 {
        fill: #adb0ac;
      }

      .cls-26 {
        fill: #b7bdb0;
      }

      .cls-27 {
        fill: #666c61;
      }

      .cls-28 {
        fill: #32392e;
      }

      .cls-29 {
        fill: #8bc0a9;
      }

      .cls-30 {
        fill: #8b7761;
      }

      .cls-31 {
        fill: #9f9f93;
      }

      .cls-32 {
        fill: #a0a99a;
      }

      .cls-33 {
        fill: #686647;
      }

      .cls-34 {
        fill: #e3e7df;
      }

      .cls-35 {
        fill: #fc9b4b;
      }

      .cls-36 {
        fill: #ec782d;
      }

      .cls-37 {
        fill: #efa761;
      }

      .cls-38 {
        fill: #028f6f;
      }
    </style>
    <linearGradient id="linear-gradient" x1="179.26" y1="32.56" x2="241.37" y2="243.47" gradientUnits="userSpaceOnUse">
      <stop offset="0" stop-color="#404241"/>
      <stop offset="1" stop-color="#4f5949"/>
    </linearGradient>
  </defs>
  <g id="Layer_1-2" data-name="Layer 1">
    <g>
      <path class="cls-21" d="M82.97,64.11c-15.82,14.4-30.16,31.51-42.47,48.97-2.36-.83-1.27-1.12-.5-2.75.78-1.66,19.67-26.83,21.99-29.48,2.15-2.46,16.75-16.47,18.24-17.24.64-.33,1.74,1.23,2.75.5Z"/>
      <g>
        <path class="cls-2" d="M24.5,139.06c1.33-2.31,3.25-4.35,4-7,4.47-6.06,7.69-12.89,11.99-18.99,12.32-17.46,26.65-34.57,42.47-48.97,15.98-14.54,38.73-30.19,58.21-39.48C167.92,11.9,222.94-1.58,252.11.15c22.65,1.34,50.04,11.32,72.95,14.99,55.27,19.85,109.31,65.71,136.16,118.18,28.28,55.24,36.66,113.67,18.99,173.89-5.14,17.51-12.47,30.52-19.99,46.47-10.69,22.67-10.54,28.49-31.48,51.97-22.43,25.15-58.93,52.73-90.69,64.21-14.92,5.39-68.1,16.29-83.95,16.99-4.83.21-12.72.25-17.49,0-11.29-.6-63.43-11.03-74.95-14.49-39.89-11.99-84.57-49.69-111.68-81.2-18.27-34-39.33-67.37-46.47-105.93-8.31-44.89-2.12-106.16,20.99-146.16Z"/>
        <g>
          <path class="cls-25" d="M24.5,139.06c-1.17-3.08,3.75-6.66,4-7-.74,2.64-2.66,4.69-4,7Z"/>
          <path class="cls-34" d="M83.47,375.41c-2.68.19-1.59,7.56-2.25,7.99-2.08-.74-10.06-2.65-10.99-2.5-.49.08,0,1.35-.5,1.5-2.55.77-1.31-.52-4.25,1.5-2.58,1.77-3.65,3.41-2.5,6.5-1-.18-4,2.51-4.25,2.5-2.11-.11-21.25-34.17-21.74-36.23-.28-1.2-.56-7.92,1.5-6.25,5.7,7.43,10.75,8.27,19.74,8.99l2.5-7.5c8.38,3,7.82-4.28,9.99-5,2.42-.8,43.52.61,50.97,0-4.54,3.6-15.24,14.22-19.49,10.49-5.44,13.26-9.93,7.98-11.99,8.49-.57.14-6.36,8.42-6.75,9.49Z"/>
          <path class="cls-33" d="M41.99,215.01c-5.26,18.47-8.39,37.44-10.74,56.46-2.72-9.67-6.11-19.41-8.24-29.23-1.16-5.33-1.36-14-3.5-16.24-.22-.97.35-2.43-.5-1.75-2.25,5.39-2.7,14.13-5.5,16.74,1.12-21.01,3.99-41.75,9.99-61.96l10.74-2c4.51,11.98,6.37,25.11,7.75,37.98Z"/>
          <path class="cls-2" d="M90.46,163.55c21.6-17.36-1.76-32.64,23.74-30.48,13.3-11.6,31.04-15.68,47.72-19.99,4.27,5.91-17.89,8.71-27.73,12.49-6.61,2.54-12.64,6.4-18.99,9.49-15.42-1.21-9.37,3.25-11.74,15.24-.35,1.79-1.66,6.54-2.5,7.99-1.35,2.33-8.72,8.74-10.49,5.25Z"/>
          <path class="cls-2" d="M178.41,29.13c-30.24,9.77-53.3,25.2-79.45,42.47-.04-.11,0-.34,0-.5-.01-2.65,14.39-13.01,17.24-14.99,15.78-10.98,33.29-19.6,50.97-26.98,4.31.47,8.11-.58,12.24-1.5.19.84-.5,1.08-1,1.5Z"/>
          <path class="cls-2" d="M383.28,66.61c1.78,3.77,1.17,3.13-1,3-14.76-14.35-35.48-27.19-54.72-34.48-5.19-1.97-10.99-2.78-16.24-4.5-.09-.07-.22-1.3-2-1-.88-.34-3.39-.96-3.5-2,7.18,1.65,14.51,2.12,21.74,3.5,12.15,4.91,50.68,24.81,55.71,35.48Z"/>
          <g>
            <path class="cls-10" d="M132.94,431.88c-11.89-4.53-21.85-12.91-33.48-17.49l-10.99-13.24c1.57-1.48,2-1.49.5-3.25v-.5c8.59,8.05-2.26-11.32-2.5-12.24-1.65-6.47,2.37-13.16,4-14.49,2.09-1.7,2.83.65,6.25-.75.79-.32,5.27-5.15,6.5-6,7.56-5.24,15.74-9.59,22.49-15.99,18.1,19.29,32.89,30.73,56.21,43.22-12.55,18.71-28.85,31.1-48.97,40.72Z"/>
            <path class="cls-10" d="M132.94,431.88c-3.6,1.72-6.98,4.06-10.74,5.5-6.95-5.05-14.43-9.39-20.74-15.24-.29-.6-.44-1.68-.5-1.75-.77-.86-1.45-2.37-2.5-3.5l1-2.5c11.63,4.58,21.58,12.96,33.48,17.49Z"/>
          </g>
          <path class="cls-2" d="M257.36,79.6c-.32.96-.4,3.59-.5,3.75-.84,1.3-22.25-.86-30.73.75-6.69,1.18-25.42,6.21-24.73,3,.95-.9,1.41-1.94,2.75-2.5,1.46-.61,29.4-6.43,30.98-6.5,3.14-.12,16.74,2.63,19.49,2.5.77-.04,1.45-.85,2.75-1Z"/>
          <path class="cls-2" d="M371.29,140.56c-1.63-1.15-1.3,3.35-4,.25-3.25-3.73-6.85-19.91-23.74-35.73-5.54-5.2-16.47-10.88-13.24-12.99,3.11,1.83,6.32,3.3,9.24,5.5,23.07,17.32,27.18,36.31,31.73,42.97Z"/>
          <path class="cls-2" d="M390.27,187.53c-4.52,15.13-14.48,32.1-28.98,39.48,3.02-3.83.23-7.93,2.25-5.5,1.06-3.02,9.47-9.21,10.74-7.75,1.79-7.83,6.05-14.22,9.99-21.49,1.56-2.87-.89-5.2,6-4.75Z"/>
          <path class="cls-2" d="M331.81,237.5c-2.29-3.75-8.82-5.73-12.99-7.99.72-3.53,13.22,2.46,13.74,3,1.04,1.06.56,6.62-.75,5Z"/>
          <path class="cls-19" d="M178.41,29.13c-7.42,6.19-32,16.32-44.72,23.49-5.57,3.14-30.13,19.77-33.48,19.99-1.73.11-1.04-.44-1.25-1,26.15-17.27,49.21-32.7,79.45-42.47Z"/>
          <g>
            <path class="cls-36" d="M19.51,226.01c2.03,9.13,2.93,18.46,4,27.73,2.07,10.32,6.86,20.36,8.99,27.98.5,1.77-1.35,2.19-1,3.5,6.01,22.46,19.38,44.18,31.48,63.96-4.31,5.53-18.9-22.07-20.74-25.23,1.19,11.35,13.52,25.24,13.74,26.73.83,5.58-5.78,8.62-14.99-5-8.39-12.4-21.25-46.57-24.48-61.46-3.55-16.33-3.87-26.83-3-43.22,2.79-2.61,3.25-11.35,5.5-16.74.85-.68.28.78.5,1.75Z"/>
            <path class="cls-20" d="M30.75,301.46c.72,1.7,2.45,5.23,2.75,6.75,1.86,9.42-3.67,2.73-2.75-6.75Z"/>
          </g>
          <g>
            <path class="cls-1" d="M299.33,28.13c.12-.36-.07-1.03,0-1.5,2.28-.3,4.34.51,6.5,1,.11,1.04,2.62,1.66,3.5,2,.1.04.16.4,2,1,3.59,2.86,24.99,10.68,33.23,14.99,7.58,3.96,35.49,23.85,37.73,23.98,2.17.13,2.78.77,1-3,2.22-1.32,4.98,2.28,6,3,.9,1.03,1.38,1.75,2,3,6.7,13.59,26.71,30.4,29.98,36.23,1.04,1.86,1.14,2.84-1.75,2.25-1.87-.38-24.01-22.63-27.98-25.98-42.85-36.17-95.73-58.04-152.4-56.46-4.65.13-28.62,1.17-28.73,6.75-.18,9.49,23.16,1.22,28.48,3.5.82,8-9.24,9.18-10.74,10.74-3.94,4.1,7.93.59,11.24,6.75.51.94,1.03,5.38,1.75,5.75,6.08,3.13,4.31-6.2,7-7.99,24.55-3.85-4.11-4.36-1.5-15.99,50.3,1.01,101.56,21.86,139.41,54.97,4.57,4,26.1,24.56,26.73,28.73.81,5.35-3.25,9.45-5.75,13.74-18.41-5.23-.37,11.86-21.99,9.49-14.15-1.55-12.88-15.66-26.73-33.23-20.89-26.49-57.68-40.43-90.69-37.23-6.95.67-12.81,4.62-28.98,1-10.86,1.5-38.05,3.47-42.97,12.99-19.83.36-39.1,10.55-50.97,26.48-11.39,2.9-22.66,6.98-31.48,14.99-28.29-1.99-5.03,18.94-25.48,31.48-1.1-.33.58-11.47-10.49-18.99-1.08-.73-3.12-2.43-4.5-2-5.66,1.79,9.15,19.21.75,37.73l7.99,7.5c-4.57,12.02-5.44,25.04-8.49,37.48-.59,3.12,3.52,6.59,3.5,7-.14,2.5-15.37,9.54-12.49,46.97-16.69,11.38-14.95,34.89-8.99,51.72l-.5.5c-7.84-14.89-16.47-29.3-20.99-45.72.48-1.45,23.63-7.34,27.98-11.49.41-2.13-9.25-37.18-10.99-41.97-1.46-4.03-6.14-16.88-8.49-15.24-1.37-12.87-3.24-26-7.75-37.98l-10.74,2c10.53-35.47,15.29-25.26,24.98-39.23,2.35-10.98,34.87-45.3,32.98-53.72-.07-.29.03-.68,0-1,4.01-4.08,15.83-16.65,17.49-13.99,0,.16-.04.39,0,.5.21.56-.49,1.11,1.25,1,3.35-.22,27.91-16.85,33.48-19.99,12.72-7.17,37.3-17.29,44.72-23.49.5-.41,1.19-.66,1-1.5,2.64-.59,20.34-5.61,20.99-4.75.55.74-.84,2.95-.25,3.25,2.39,1.22,29.95-4.65,53.47-3.5,15.54.76,45,7.69,45.72,5.5Z"/>
            <path class="cls-19" d="M382.28,69.61c-2.24-.14-30.15-20.02-37.73-23.98-8.24-4.31-29.63-12.13-33.23-14.99,5.25,1.72,11.05,2.53,16.24,4.5,19.23,7.29,39.95,20.12,54.72,34.48Z"/>
            <path class="cls-19" d="M311.32,30.63c-1.84-.6-1.89-.96-2-1,1.78-.3,1.91.93,2,1Z"/>
            <g>
              <path class="cls-19" d="M93.21,93.09c1.66.07,2.9,5.01,2.75,6.25-.29,2.32-20.93,31.88-24.98,39.48-4.87,9.12-15.16,36.39-16.49,37.98-3.35,3.97-9.05.31-9.49-2-.65-3.37,12.76-33.81,15.49-38.98,3.32-6.29,26.81-42.98,32.73-42.72Z"/>
              <path class="cls-2" d="M93.21,95.59c3.01,2.29-9.3,15.53-12.74,20.74-8.3,12.53-15.46,25.71-21.49,39.48-1.12,2.57-6.74,19.39-7.75,19.74-5.49,1.91.02-11.17.75-13.24,8.45-23.97,23.43-48.6,41.22-66.71Z"/>
            </g>
            <g>
              <path class="cls-19" d="M382.53,111.58c.98-.28,5.47,9.76,13.24,15.24-.22,1.59-6.35,0-8.24,1.25-2.55,1.67-3.06,16.28-8.49-.5-17.23-2.02-3.63-1.81.25-7.25,1.04-1.46,2.48-8.52,3.25-8.74Z"/>
              <path class="cls-36" d="M383.03,116.58c11.75,15.81,4.21,2.66.5,14.49-1.77-4.67-1.72-5.13-6.75-6.25,4.5-2.27,5.27-3.25,6.25-8.24Z"/>
            </g>
          </g>
          <g>
            <path class="cls-19" d="M434.75,104.58c-2.04.79-4.14,1.35-4.5,1.5-14.23-11.67-25.9-25.87-40.97-36.48-1.02-.71-3.77-4.32-6-3-5.03-10.67-43.57-30.56-55.71-35.48-7.22-1.37-14.56-1.85-21.74-3.5-2.15-.49-4.22-1.3-6.5-1-22.72-8.14-47.07-12.38-71.21-9.99-1.66.16-31.88,5.07-24.48,7.5,1.27.42,22.55-3.7,26.48-4,24.92-1.86,45.2,2.36,69.21,7.99-.72,2.19-30.18-4.74-45.72-5.5-23.52-1.15-51.07,4.72-53.47,3.5-.59-.3.8-2.51.25-3.25-.65-.87-18.35,4.16-20.99,4.75-4.13.92-7.93,1.97-12.24,1.5-17.67,7.38-35.19,16.01-50.97,26.98-2.85,1.98-17.25,12.34-17.24,14.99-1.66-2.66-13.48,9.91-17.49,13.99-4.8,4.89-35.14,40.44-34.48,44.22.41,2.39,3.07.47,4-.5,1.82-1.9,26.75-36.44,30.48-42.72,1.89,8.42-30.63,42.73-32.98,53.72-9.69,13.97-14.45,3.76-24.98,39.23-6,20.21-8.87,40.95-9.99,61.96-.87,16.39-.55,26.89,3,43.22,3.23,14.89,16.1,49.06,24.48,61.46,9.21,13.62,15.82,10.58,14.99,5-.22-1.5-12.55-15.38-13.74-26.73,1.84,3.17,16.42,30.76,20.74,25.23-12.1-19.78-25.47-41.5-31.48-63.96-.35-1.31,1.5-1.72,1-3.5-2.13-7.63-6.93-17.67-8.99-27.98-1.06-9.27-1.97-18.6-4-27.73,2.14,2.24,2.34,10.91,3.5,16.24,2.13,9.82,5.52,19.56,8.24,29.23,2.35-19.03,5.48-37.99,10.74-56.46,2.35-1.64,7.03,11.21,8.49,15.24,1.74,4.79,11.41,39.84,10.99,41.97-4.35,4.16-27.5,10.05-27.98,11.49,4.51,16.42,13.15,30.83,20.99,45.72,2.49,4.72,4.2,10.1,7,14.74,8.8,14.63-5.59-12.68-6.5-15.24-5.95-16.83-7.69-40.34,8.99-51.72-2.87-37.43,12.35-44.47,12.49-46.97.02-.4-4.09-3.88-3.5-7,3.05-12.44,3.93-25.46,8.49-37.48l-7.99-7.5c8.4-18.51-6.4-35.94-.75-37.73,1.38-.44,3.42,1.27,4.5,2,11.07,7.52,9.39,18.66,10.49,18.99,20.46-12.54-2.81-33.47,25.48-31.48,8.82-8.01,20.09-12.09,31.48-14.99,11.87-15.93,31.14-26.13,50.97-26.48,4.92-9.52,32.11-11.49,42.97-12.99,16.17,3.62,22.03-.32,28.98-1,33.02-3.21,69.8,10.73,90.69,37.23,13.85,17.57,12.58,31.68,26.73,33.23,21.61,2.37,3.58-14.73,21.99-9.49,2.5-4.3,6.55-8.39,5.75-13.74-.63-4.18-22.16-24.74-26.73-28.73-37.85-33.1-89.11-53.96-139.41-54.97-2.61,11.63,26.05,12.14,1.5,15.99-2.69,1.8-.91,11.13-7,7.99-.72-.37-1.24-4.8-1.75-5.75-3.32-6.15-15.18-2.65-11.24-6.75,1.5-1.56,11.57-2.75,10.74-10.74-5.33-2.28-28.67,5.99-28.48-3.5.11-5.58,24.08-6.62,28.73-6.75,56.67-1.57,109.55,20.3,152.4,56.46,3.97,3.35,26.11,25.6,27.98,25.98,2.89.59,2.79-.39,1.75-2.25-3.27-5.83-23.28-22.64-29.98-36.23,8.57,9.77,26.87,26.92,32.98,36.98.95,1.57,2.91,4,2.25,5-.76.44-7.03-.56-8.24-1-3.35-1.21-23.42-21.96-28.73-26.48-33.52-28.59-76-49.04-119.92-54.47-2.95-.36-24.49-2.27-25.23-1.25-.12.17,1.44,3.62,1.75,3.75,1.37.57,17.9.71,29.48,2.5,42.4,6.56,84.13,27.87,115.93,56.46,2.62,2.35,21.4,20.9,22.24,22.24,1.76,2.82,2.23,4.92,2,8.24-.27,3.83-6.32,13.36-7,13.74-1.31.74-5.89-.8-7.75-.75-1.93.9,2.1,9.07-8.99,10.49-7.2.93-16.45-1.21-20.74-7.5-4.55-6.66-8.66-25.65-31.73-42.97-2.92-2.2-6.14-3.67-9.24-5.5-17.22-10.13-37.84-17.11-58.21-15.49-4.31.34-10.28,2.49-14.74,3-1.3.15-1.98.96-2.75,1-2.75.13-16.34-2.62-19.49-2.5-1.58.06-29.52,5.88-30.98,6.5-1.34.56-1.8,1.6-2.75,2.5-6.08,5.78-.29,17.3-19.24,22.49-4.25,1.16-13.53,1.77-20.24,3.5-16.68,4.31-34.42,8.39-47.72,19.99-25.5-2.16-2.13,13.12-23.74,30.48-1.52,1.22-3.8,2.41-5.5,3.5-1.65-10.48-1.29-17.3-11.24-23.49l-.75.75c5.35,7.81,7.43,14.7,6.5,24.23-.3,3.04-2.23,6.13-2.5,9.24l8.49,6c-2.62,6.48-10.02,36.28-8.49,40.47,1.79,4.93,7.7.39,7.99,0,1.73-2.26,6.12-25.38,23.98-51.47,7.79-11.37,21.78-27.77,33.23-35.23,18.8-12.25,45.5-16.16,67.46-13.99,35.32,3.49,24.3,11.08,41.72,41.22,9.43,16.32,29.1,39.95,44.22,51.22,7.95,5.92,14.94,8.98,23.24,13.49,4.17,2.27,10.7,4.24,12.99,7.99.74,1.21,2.1,7.26,3.25,7,6.9-14.43,15.6-12.08,26.23-17.49,14.51-7.37,24.46-24.35,28.98-39.48,2.18-7.28,3.34-18.2,4.25-18.49,7.14,5.91,12.61-6.21,13.49-6.5,3.48-1.14,5.73,6.54,9.99-4.5,5.13,1.01,12.02-.09,8.74-6.75l.75-.75c1.07.68,5.46,3.52,6,3.5.92-.04,13.2-9.09,15.74-9.74.07-1.65-9.26-.31-7.5-2.25,3.16-4.63,9.3-2.38,12.99.25,30.79,58.62,35.08,123.77,8.49,184.88-1.79,4.12-15.08,29.69-17.24,30.73-.34.17-2.71-.35-4.75.75,4.49,9.79.96,13.33-7,24.98-24.49,35.87-68.34,65.63-108.68,80.7-9.91-2.49-19.77,3.3-32.48,6-26.64,5.66-53.48,7.07-80.45,3-13.41-2.03-26.32-6.47-39.48-9.49-1.2-.28-2.3,1.37-4,1-23.4-5.05-59.02-29.17-77.45-44.97-5.02-4.31-27.11-25.14-28.73-29.48-1.15-3.09-.08-4.72,2.5-6.5,10-4.36,16.32,8.81,23.49,13.99,1.5,1.76,1.07,1.77-.5,3.25l10.99,13.24-1,2.5c-4.33-4.7-24.58-25.72-28.23-27.48-.75-.36-1.37-.74-1.25.25,9.64,11.24,19.54,22.48,31.98,30.73.06.07.21,1.15.5,1.75,6.3,5.85,13.79,10.19,20.74,15.24,3.76-1.44,7.15-3.78,10.74-5.5,20.12-9.63,36.42-22.01,48.97-40.72-23.32-12.49-38.12-23.93-56.21-43.22-6.74,6.4-14.93,10.75-22.49,15.99-1.23.85-5.71,5.67-6.5,6-3.41,1.4-4.16-.95-6.25.75-1.63,1.33-5.65,8.02-4,14.49.23.92,11.08,20.29,2.5,12.24-4.15-3.89-7.54-16.32-5.5-21.99.39-1.07,6.18-9.35,6.75-9.49,2.06-.51,6.55,4.76,11.99-8.49,4.24,3.73,14.95-6.9,19.49-10.49-7.45.61-48.55-.8-50.97,0-2.18.72-1.61,8-9.99,5l-2.5,7.5c-8.98-.72-14.04-1.56-19.74-8.99-12.23-15.97-26.45-61.39-28.98-81.7-3.95-31.72,1.71-74.62,13.49-104.43,8.24-20.85,15.88-13.79,26.23-30.73-2.22-.38-8.62-.32-8.24-3.75.45-4.08,24.5-34.53,28.98-39.48,26.42-29.19,60.13-50.87,96.19-66.21,1.66-.24,3.46,1.11,4,1,28.25-5.71,47.86-14.96,82.95-12.99,24.04,1.35,49.54,10.74,66.46,13.49,3,.49,4.15-1.17,6-1,44.97,19.27,75.33,45.56,109.18,79.95Z"/>
            <g>
              <path class="cls-10" d="M310.82,457.86c-26.71,2.51-41.44,7.4-68.96,6l-.5-1.5c4.48.18,30.14-2.99,31.48-6.75.06-.15-1.01-1.17-1-1.25.08-.62,1-.68,0-2,.79-2.37,11.1,2.08,18.24,2.5,9.36.54,24.29-3.66,31.98-8.99,7.57-5.25,3.71-9.27-2.5-8.49-5.29.66-20.75,12.84-53.47,0-19.2-7.53-26.1-16.97-36.73-33.73,25.79-2.33,70.63-4.23,92.19-20.74,5.47-4.18,25.21-28.35,34.48-35.98h39.48c2.05.91-.22,35.25.75,38.23.51,1.55,3.29,2.12,4.75,1.75,1.39-.35,17.38-18.8,19.24-21.24,5.76-7.56,11.22-19.18,12.24-18.74,5.91,13.73,6.26,14.84-2.75,27.23-6.04,8.3-18.59,19.03-22.49,29.98-.32.91,1.08.74,1,1-.63,2.06-9.4,4.6-12.24,6.25-6.59,3.83-17.8,13.13-25.48,17.99-17.41,11.01-40.02,22.63-59.71,28.48Z"/>
              <path class="cls-2" d="M310.82,457.86c20.85-1.87,47.61-17.26,65.21-28.98,6.4-4.26,13.07-10.45,18.99-14.49,15.85-10.83,7.78-2.34-2,6-13.33,11.37-59.89,41.81-77.45,38.98-60.91,19.7-96.13,13.14-155.9-2.5-11.95-5.35-23.69-11.18-34.73-18.24,18.79-7.55,36.72-18.39,50.47-33.48,5.79-6.35,9.67-16.02,12.74-11.24.91,1.42-8.91,13.22-10.74,15.24-11.77,12.96-28.25,23.72-44.22,30.73,26.03,17.43,87.39,28.58,117.93,27.98,19.32-.38,41.15-4.48,59.71-9.99Z"/>
              <path class="cls-10" d="M191.65,395.4c9.98,3.85,16.02,7.91,27.48,7.99l4.25,7.25q-8.62,3.12-17.24,6.25c-14.14-17.71-7.3-17.28-20.49.5,4.94,1.52,9.86,7.55,14.24,6.25q.12,10.37.25,20.74c-14.45-3.68-29.06-7.13-42.72-13.24,12.67-10.68,25.34-21.52,34.23-35.73Z"/>
              <path class="cls-2" d="M241.87,399.4c-.37-1.73,2.41-.52,1.75-1.5-3.24-4.82-44.9-5.89-43.22-15.49,28.86,7.88,85.12,7.87,111.68-7,14.57-8.16,33.29-27.83,35.48-28.48,10.38-3.08-7.36,10.58-14.74,18.24-4.04,4.19-6.81,9.87-11.24,13.74-16.76,14.61-57.96,19.43-79.7,20.49Z"/>
              <path class="cls-2" d="M418.26,113.58c1.66,3.58,2.71,10.75-2.5,10.99.23-3.33-.24-5.42-2-8.24-.83-1.33-19.62-19.88-22.24-22.24-31.79-28.59-73.52-49.91-115.93-56.46-11.58-1.79-28.12-1.93-29.48-2.5-.31-.13-1.87-3.58-1.75-3.75.74-1.02,22.28.88,25.23,1.25,43.93,5.42,86.4,25.88,119.92,54.47,5.31,4.53,25.38,25.28,28.73,26.48Z"/>
              <path class="cls-2" d="M43.74,223.51c6.15,15.06,9.71,31,13.74,46.72l-22.24,8.74c-1.06-.31,1.38-19.19,1.75-21.74,1.65-11.28,4.65-22.52,6.75-33.73Z"/>
              <path class="cls-10" d="M227.13,416.89c15.93,18.89-9.39,19-8.74,21.74,7.67,1.92,12.61,2.18,14.49,10.99q-11.37-1.12-22.74-2.25-.12-10.12-.25-20.24c.53-1.39,16.37-6.39,17.24-10.24Z"/>
              <path class="cls-10" d="M149.67,434.88c14.67,12.5,42.32,20.13,61.46,20.99,6.53,3.28,13.8,3.68,14.49,4,.48.22.6,3,.25,3.25-1.76,1.25-38.11-5.24-42.72-6.25-15.06-3.27-30.47-9.33-44.22-16.24l10.74-5.75Z"/>
              <path class="cls-2" d="M174.41,372.91c-.01.6-1.53.74-1.5,1.25.09,1.5,23.03,13.72,26.73,13.24.37,7.25,0,4.52,4.75,9.99-5.63-4.34-12.02-5.05-17.24-7.5-23.51-10.99-39.66-23.85-57.71-42.22,4.61-3.66,10.33,5.08,16.74,9.74,12.19,8.86,14.88,9.83,28.23,15.49Z"/>
              <path class="cls-2" d="M223.13,403.4c1.06-.38,3.16-.09,4.25.75,2.35,1.82,7.28,24,37.73,36.23,36.27,14.57,50.79-.53,55.96-.5,8.73.05-7.01,6.62-7.99,7-2.88,1.1-14.43,4.35-16.99,4.5-13.67.8-41.57-9.36-52.47-17.99-5.29-4.19-21.73-27.49-21.24-29.23.02-.08.65-.72.75-.75Z"/>
              <path class="cls-36" d="M189.65,91.09c11.77-1.13,3.28,10.8-3,13.99-6.35,3.23-28.16,4.88-37.73,8.74,8.29-10.33,27.95-21.51,40.72-22.74Z"/>
              <path class="cls-34" d="M200.39,382.41c-1.68,9.6,39.98,10.67,43.22,15.49.66.98-2.12-.23-1.75,1.5-11.42.56-27.17,2.01-37.48-2-4.75-5.47-4.38-2.74-4.75-9.99-3.71.48-26.65-11.74-26.73-13.24-.03-.51,1.48-.65,1.5-1.25,8.48,3.59,17.08,7.06,25.98,9.49Z"/>
              <path class="cls-2" d="M396.02,183.03c2.85,5.35,11.76,35.61,10.74,38.73-.78,2.38-6.56,2.75-7.99,1-.77-.94-5.4-20.05-7.99-22.99q2.62-8.37,5.25-16.74Z"/>
              <path class="cls-2" d="M299.33,26.63c-.07.47.12,1.14,0,1.5-24.01-5.64-44.28-9.86-69.21-7.99-3.93.29-25.21,4.41-26.48,4-7.39-2.42,22.82-7.33,24.48-7.5,24.14-2.38,48.49,1.85,71.21,9.99Z"/>
              <path class="cls-34" d="M271.85,452.36c1,1.32.08,1.38,0,2-6.78,5.62-55.17,3.82-58.46-1.25-.28-.43-.74-2.1-.5-2.5.71-1.18,18.41,3.44,27.23,3.75,10.66.37,21.1-2.05,31.73-2Z"/>
              <path class="cls-2" d="M430.25,106.08c-.14.06-1.17,1.54-2.25,2-1.54.66-3.15-.6-3.75,1.5-6.11-10.06-24.41-27.21-32.98-36.98-.62-1.25-1.09-1.96-2-3,15.08,10.61,26.74,24.81,40.97,36.48Z"/>
              <path class="cls-2" d="M81.47,86.1c-3.73,6.28-28.66,40.83-30.48,42.72-.93.97-3.58,2.88-4,.5-.66-3.78,29.68-39.33,34.48-44.22.03.32-.07.71,0,1Z"/>
              <path class="cls-36" d="M387.52,204.52q3.12,8.87,6.25,17.74l-19.24.25c5.03-5.44,9.68-11.3,12.99-17.99Z"/>
              <path class="cls-10" d="M250.61,441.37c2.29.12,12.29,6.22,16.24,7.25-.24,1.32-23.7,2.09-26.23,1.75-.86-2,.06-6.51,2-7.5.36-.18,7.59-1.52,7.99-1.5Z"/>
              <path class="cls-10" d="M405.51,346.93l13.24.25c-15.5,23.78-14.16,27.57-13.24-.25Z"/>
              <path class="cls-36" d="M242.12,38.13c2.38-.7-.1,4.56,6,9.49.61.49,3.91,1.93,5.25,2.75-8.07,1.93-7.74.72-10.24,8.74-1.31.08.25-8.99-10.74-8.74,7.12-3.18,8.01-4.79,9.74-12.24Z"/>
              <path class="cls-2" d="M237.12,31.13c7.23.07,2.4,4.34,2,4.5-.99.38-16.94.51-20.99,2.5-14.36-4.49,14.56-7.04,18.99-7Z"/>
              <path class="cls-2" d="M84.97,167.04c-.51.33.27,2.97-5.5,1.5.94-9.54-1.15-16.43-6.5-24.23l.75-.75c9.96,6.19,9.59,13,11.24,23.49Z"/>
              <path class="cls-2" d="M98.46,416.89c1.04,1.13,1.73,2.64,2.5,3.5-12.44-8.25-22.34-19.49-31.98-30.73-.12-.99.5-.61,1.25-.25,3.66,1.76,23.91,22.79,28.23,27.48Z"/>
              <path class="cls-2" d="M436.99,367.92c-6.67,14.04-15.89,27.13-28.48,36.48l28.48-36.48Z"/>
              <path class="cls-2" d="M83.47,375.41c-2.05,5.67,1.35,18.1,5.5,21.99v.5c-7.17-5.18-13.48-18.35-23.49-13.99,2.94-2.02,1.69-.73,4.25-1.5.49-.15.01-1.42.5-1.5.93-.15,8.91,1.75,10.99,2.5.66-.44-.43-7.8,2.25-7.99Z"/>
              <g>
                <path class="cls-2" d="M221.13,414.89c.52.05.83,2.58.75,2.75-.89,1.71-12.62,5.2-14.99,7.5q-.12,13.87-.25,27.73c-7.09.79-53.8-14.5-55.22-17.74-.28-.64,3.29-2.27,3.75-2.25,1.13.04,11.13,5.44,20.99,8.49,3.07.95,25.38,7.29,26.48,6.5q.12-12.62.25-25.23c2.15-1.4,17.25-7.84,18.24-7.75Z"/>
                <path class="cls-36" d="M195.65,408.39l7.75,8.24c-6.69,4.57-6.96,3.54-12.99-1.5l5.25-6.75Z"/>
              </g>
              <path class="cls-13" d="M241.37,462.36l.5,1.5c-2.23-.11-13.55.1-14.49-.75-.1-.09-.43-2.66-.25-2.75,1.64-.85,11.68,1.9,14.24,2Z"/>
              <path class="cls-30" d="M54.48,329.44l.5-.5c.91,2.56,15.29,29.87,6.5,15.24-2.79-4.64-4.51-10.02-7-14.74Z"/>
              <g>
                <path class="cls-36" d="M245.86,438.37l-.5,1c-10.44,1.54-7.11,9.57-8.74,9.49-2.6-5.68-4.89-10.11-11.74-10.74,6.65-1.94,8.49-2.94,10.24-9.74,2.48,4.48,6.46,7.51,10.74,9.99Z"/>
                <path class="cls-9" d="M245.36,439.37l.5-1c2.27,1.32,3,.48-.5,1Z"/>
              </g>
              <g>
                <path class="cls-2" d="M286.84,343.93c6.62-2.06,52,1.07,54.22-.5,1.68-1.19-1.46-3.15-1.25-4.5,1.98-.11,2.76.77,4.75,0l16.49-14.99,13.49,15.49c8.88.6,47.49-.8,50.47,0,.31.08,4.69,3.93,4.75,4.25.74,3.77-19.65,29.94-24.23,33.73-2.32-5.82,5.52-11.86,10.74-19.74,2.8-4.22,5.14-8.8,7.99-12.99l-21.49-.5c-.16,5.98.22,36.66-.5,38.48-.35.89-3.28,2.01-4,.5-.84-1.77.83-33.87-.25-39.23h-111.18Z"/>
                <path class="cls-19" d="M359.04,329.94c11.46,12.9,9.96,9.25-10.24,9.24l10.24-9.24Z"/>
              </g>
              <path class="cls-19" d="M160.92,336.44c1.15,1.56,2.61,2.5,3.75,4-4.49-.58-18.64.98-21.74-.5l10.74-9.49q3.62,3,7.25,6Z"/>
              <g>
                <path class="cls-34" d="M208.89,338.94c-5.47,4.53-7.3,3.27-6,5-45.3-.24-90.62.9-135.91-.5l2.5-4c14.28-.88,59.72,1.17,67.21,0,1.02-.16,3.73-1.37,4.75-2-.13,1.48.14,1.85,1.5,2.5,3.09,1.48,17.25-.08,21.74.5-1.14-1.5-2.59-2.43-3.75-4-6.29-8.53,3.04-.64,5,.5,9.68,5.65,31.11,4.59,41.22-.5,4.29-2.16,13.28-10.69,7.75-3.25-1.32,1.78-4.22,4.28-6,5.75Z"/>
                <path class="cls-22" d="M211.89,226.01c-.46,1.54,5.46,1.54,5,0,9.99-.33,48.92-.59,55.71,1,9.55,2.23,20.6,11.37,14.99,21.99-.86-9.81-7.89-16.42-17.49-17.49-3.35-.37-64.12-.46-67.46,0-8.35,1.15-12.23,7.57-12.99,7.5-.74-.07-5.44-3.94,5-9.49,6.68-3.55,10.21-3.14,17.24-3.5Z"/>
                <path class="cls-22" d="M130.44,239.5h-1c-1.33-1.22-2.55-3.87-6.25-6-9.18-5.27-35.78-7.52-45.22,7.25-9.46,14.8-4.44,36.58-6.25,37.23-7.09,2.54-3.6-22.98-2.75-26.73,4.94-21.64,21.13-27.67,41.72-26.23,15.21,1.06,17.98,9.4,18.99,8.99,1.19-.48-1.57-2.92,0-3.5,6.29.51,6.05-.49.75,8.99Z"/>
                <path class="cls-21" d="M339.8,338.94c-.21,1.35,2.93,3.31,1.25,4.5-2.21,1.57-47.6-1.56-54.22.5h-44.97c1.35-1.64,2.64-2.94,4-4.5,4.07.85,9.17.96,12.99-.5,3.28,2.7,5.07,6.47,5.5-.5l3.25,1c23.01-1.87,49.67.8,72.2-.5Z"/>
                <path class="cls-37" d="M430.75,306.96c-.96.68.17,1.9-2.5,1.5.87-11.16-5.18-16.08-12.49-23.24,7.18-13.44,6.13-41.34-7.5-50.22-.04-2.5-6.75-3.41-7-3.75-.61-.84,2.84-1.18,1-3.75,23.22,7.1,26.26,38.2,17.49,57.21,8.3,5.49,11.51,12.2,10.99,22.24Z"/>
                <path class="cls-22" d="M149.67,225.51c14.04-1.83,39.97,5.02,36.73,16.24-1.26,4.36-2.88-5.73-15.74-9.74-9.93-3.1-25.59-4.49-31.73,5.75-4.57,7.62-4.31,25.75-6,16.49-1.95-10.7,3.4-26.99,16.74-28.73Z"/>
                <path class="cls-22" d="M402.27,227.51c1.84,2.57-1.61,2.9-1,3.75.24.34,6.95,1.25,7,3.75-10.29-6.7-32.84-1.95-45.47-3.75,1.52-1.23,4.78-5.38,6.25-5.75,4.69-1.16,27.97.39,33.23,2Z"/>
                <g>
                  <path class="cls-36" d="M59.98,307.96c-1.93.19-1.34,4.18-2.25,4.5-3.94,1.38-2.15-8.53-3.25-10.49.39-5.75,1.54-11.5,5-16.24,2.88-3.94,8.93-8.19,9.99-4.5.4,1.38-9.08,11.53-9.49,26.73Z"/>
                  <path class="cls-35" d="M59.98,307.96c-.23,8.43,2.86,25.62,9.49,31.48l-2.5,4c-9.98-11.21-13.49-26.81-12.49-41.47,1.1,1.97-.7,11.87,3.25,10.49.91-.32.32-4.31,2.25-4.5Z"/>
                </g>
                <path class="cls-34" d="M264.35,338.44c-.43,6.97-2.22,3.2-5.5.5-2.52-2.07-4.51-4.67-7.25-6.5-2.41,1.89-3.8,4.76-5.75,7-1.36,1.56-2.65,2.85-4,4.5-1.47,1.8-2.5,3.92-4.25,5.5-3.42-5.82-3.1-5.04-8.24-5.5,4.8-.36,3.71-2.48,7.99-4,.69.06.97,1.21,1.75,1l11.99-13.49,13.24,10.99Z"/>
                <path class="cls-37" d="M306.58,227.51c.2,0,3.27,2.05,3.25,2.25-.25,2.35-13.95-.63-19.74,40.72-1.46-10.99,1.29-27.36,8.24-36.23,1.02-1.3,7.05-6.78,8.24-6.75Z"/>
                <path class="cls-21" d="M237.37,339.94c-4.29,1.52-3.2,3.64-7.99,4-5.82-.52-18.88.04-26.48,0-1.3-1.72.52-.46,6-5,9.51.99,18.95.17,28.48,1Z"/>
                <g>
                  <path class="cls-34" d="M158.42,243c5.29,6.27,1.9,4.44,2.5,6.25.58,1.75,23.93,26.63,25.73,26.23,2.19-.48.63-3.02-.25-4,3.13-3,28.54-33.3,30.48-32.23.76,2.15,3.21,6.61,3.5,8.49.41,2.69.43,51.78,0,54.47-1.06,6.64-10.03,15.03-16.49,16.99q-.37-22.36-.75-44.72l-17.49,24.98c-27.05-36.29-14.64-25.85-17.74,5.25-.17,1.7-2.95,14.26-4.25,14.24-4.6-4.56-9.01-9.33-13.24-14.24.6-8.72-1.97-61.63,3.5-64.96.66-.83,2.15,1.3,4.5,3.25Z"/>
                  <path class="cls-2" d="M186.4,271.48c.88.98,2.44,3.52.25,4-1.8.39-25.16-24.48-25.73-26.23-.6-1.81,2.79.03-2.5-6.25,7.32,6.07,17.81,19.1,24.98,26.73,1.37,1.45,2.88,1.62,3,1.75Z"/>
                </g>
                <path class="cls-2" d="M165.91,336.94c-1.95-1.14-11.29-9.03-5-.5q-3.62-3-7.25-6l-10.74,9.49c-1.36-.65-1.62-1.02-1.5-2.5,1.93-1.21,9.08-9.91,11.74-12.49l12.74,11.99Z"/>
                <path class="cls-37" d="M295.08,232.5l.75.75c-1.08.52-3.87,5.79-4.25,5.75-.5-.05-4.52-4.09,3.5-6.5Z"/>
                <path class="cls-22" d="M216.88,226.01c.46,1.54-5.46,1.54-5,0,1.66-.09,3.34.05,5,0Z"/>
                <path class="cls-5" d="M130.44,239.5c-.1.17.22.73-.25,1-.73-.53-.7-.96-.75-1h1Z"/>
                <g>
                  <path class="cls-34" d="M234.12,239c29.91.89,49.01-7.59,46.72,31.73l-7.5,6.5c22.81,40.72-15.59,36.43-43.97,34.48.89-14.35-1.19-56.28,0-64.46.31-2.11,2.41-7.64,4.75-8.24Z"/>
                  <path class="cls-19" d="M247.11,253.99c21.68-3.73,18.25,13.63,12.99,14.99-3.62.94-8.76-1.1-12.49.5l-.5-15.49Z"/>
                  <path class="cls-19" d="M247.61,283.47c20.8-4.06,21.39,21.1-.25,15.74q.12-7.87.25-15.74Z"/>
                </g>
                <g>
                  <path class="cls-34" d="M367.04,239c19.69,1.38,42.08-7.33,44.22,20.24,1.76,22.57-11.02,25.66-10.99,27.98,8.87,15.16,11.04,14.23,8.24,32.73-10.86-10.22-19.78-22.22-29.48-33.48-1.64,12.66,1.03,20.22-7,31.98q-4.87-5.37-9.74-10.74c1.63-9.73-3.99-66.33,4.75-68.71Z"/>
                  <path class="cls-19" d="M380.03,253.99c4.87.36,12.94-1.91,14.24,4.75,2.61,13.34-2.73,14.6-14.49,12.99q.12-8.87.25-17.74Z"/>
                </g>
                <g>
                  <path class="cls-34" d="M111.2,240c4.34-.42,28.81,55.48,30.73,62.21.62,2.19,1.51,3.86,1,6l-4.75,10.24c-21.76-32.26-32.46-21.27-54.47,2-1.47-.21,0-10.8.25-12.24,1.27-7.5,22.98-67.8,27.23-68.21Z"/>
                  <path class="cls-19" d="M112.2,272.98q3.75,7.99,7.5,15.99l-13.74-.25,6.25-15.74Z"/>
                </g>
                <g>
                  <path class="cls-34" d="M322.57,240c5.61,6.79,30.74,62.55,30.73,66.21,0,1.08-2.9,9.11-3.75,11.24-25.07-32.39-33.22-18.22-57.46,2.5-1.44-.52-.16-12.94.25-14.74.94-4.11,24.2-56.91,30.23-65.21Z"/>
                  <path class="cls-19" d="M322.07,272.98l7,15.99-12.74-.25q2.87-7.87,5.75-15.74Z"/>
                </g>
                <path class="cls-19" d="M258.86,338.94c-3.83,1.46-8.93,1.35-12.99.5,1.95-2.23,3.34-5.1,5.75-7,2.73,1.82,4.72,4.42,7.25,6.5Z"/>
              </g>
              <g>
                <path class="cls-12" d="M203.14,373.91c3.06-.07,11.18,5.36,13.74,7.75q-9.62-2.37-19.24-4.75c.54-1.26,4.72-2.98,5.5-3Z"/>
                <path class="cls-26" d="M174.66,347.43c2.48-.77,4.22,3.89,5,4,.82.12,4.66-3.9,5-4,9.04-2.55,2.07,3.17-5,7.5-2.63-3.32-6.66-6.99-5-7.5Z"/>
                <g>
                  <path class="cls-4" d="M194.9,368.42c.93,1.05,2.66,1.91,2,4.25-1.99,7.04-22.42-4.28-26.73-5.25-.87-1,1.42-1.49,2.25-2,1.44,3.28,5.13-3.57,12.24-2.5,1.21.18,9.78,4.98,10.24,5.5Z"/>
                  <path class="cls-31" d="M194.9,368.42c-.46-.52-9.04-5.32-10.24-5.5-7.11-1.07-10.8,5.78-12.24,2.5,8.03-4.94,17.09-5.74,22.49,3Z"/>
                </g>
                <path class="cls-10" d="M290.34,352.93c-2.05-.18-5.1-3.36-6-5.5,4.96-.03,7.9-2.98,7,4.75-.05.4-1,.69-1,.75Z"/>
                <path class="cls-27" d="M239.37,384.41l3.5-4.5c11.14,4.93,11.39,5.39-3.5,4.5Z"/>
                <g>
                  <path class="cls-12" d="M232.37,373.41c1.68,4.46-1.38,6.16-1.5,6.5-.84-2.11-1.67-3.17-3.5-4.5-.48-7.69-12.48-7.74-17.49-3-.35-.23-3.54-1.56-3.5-1.75,11.45-6.41,16.48-4.87,25.98,2.75Z"/>
                  <path class="cls-3" d="M227.38,375.41c-4.05-2.95-8.67-3.98-11.74,1-2.02-1.16-3.81-2.72-5.75-4,5.01-4.74,17.01-4.69,17.49,3Z"/>
                  <path class="cls-10" d="M230.87,379.91c.12-.34,3.18-2.03,1.5-6.5.3.24,3.88,1.73,6,4.75-4.78,4.14-9.65,7.75-7.5,1.75Z"/>
                  <path class="cls-10" d="M225.88,382.91c-3.42.22-4.97-.8-6.5-4-.05-4.29,6.63-1.68,6.5,4Z"/>
                  <path class="cls-31" d="M225.88,382.91c.13-5.68-6.55-8.29-6.5-4-3.44-7.18,9.08-3.3,8.99,2.75-.04,2.98-2.21,1.23-2.5,1.25Z"/>
                </g>
                <g>
                  <path class="cls-3" d="M295.83,363.92c1.42-1.3,1.14,1.95,2,3.25,5.3,7.96,16.43,3.81,11.49-15.24-.38-1.47-1.31-2.94-1.5-4.5.16,0-.32-.79,3.25-.5,3.23,1.18,11.38,23.72-11.99,29.48-1.22-.43-3.06-10.69-3.25-12.49Z"/>
                  <path class="cls-12" d="M294.58,346.93c7.49-.71,9.54,7.35,5.25,3.75-.7,2.98,13.66,12.8,6.75,14.74-2.38.67-17.31-13.24-11.99-18.49Z"/>
                  <path class="cls-12" d="M309.32,351.93c4.94,19.05-6.19,23.2-11.49,15.24-.86-1.29-.58-4.55-2-3.25-.16-1.51-.93-4.48-.25-5,3.21,1.4,4.59,7.73,7.5,8.49,8.3,2.17,8.61-5.98-.25-14.74,2.12-.36-1.26-3.05.5-4.75,4.45,8.25,2.24,2.97,6,4Z"/>
                  <path class="cls-31" d="M307.83,347.43c.19,1.56,1.12,3.02,1.5,4.5-3.75-1.03-1.54,4.25-6-4-.02-.86,2.11-.41,4.5-.5Z"/>
                </g>
                <path class="cls-12" d="M277.59,378.91l7.75,1.75c-9.68,1.76-12.86,3.62-7.75-1.75Z"/>
                <path class="cls-2" d="M335.06,347.43l5.25.25c-2.67,2.85-3.41,4.15-5.25-.25Z"/>
                <path class="cls-25" d="M242.87,379.91l-3.5,4.5c-.67-.04-2.7.23-3-.25l6.5-4.25Z"/>
                <g>
                  <path class="cls-3" d="M240.87,362.42c-4.47,2.27-1.82-.74-2.75-1-.26-.07-2.76,4.47-2.75,4.75.12,2.3,9.5,7.02,11.49,8.24,2.13,1.31,10.32,6.22,10.99,6.5,1.76,2.84-11.01-2.82-14.74-5-1.35-.79-11.17-8.04-11.24-8.74,4.54-5.23,6.16-10.96,6.75-11.24,2.58-1.25,4.02,3.56,3.75,5.25-.07.43-1.47,1.16-1.5,1.25Z"/>
                  <path class="cls-3" d="M262.85,352.43c-2.52-2.5-.21-1.39-3,3.5-2.21-.17-4.24,3.82-7.99,5.5-.21.09-.26-1.38-4.25,1.5-4.43-1.94-6.37-7.05-4.25-11.49l4.5.5c-.34,1.96-.38,4.2-1,5.25l1,.75c1.91.34,3.29-.39,5-1,9.62-3.43,4.01-14.14,8.99-7.75.56.71.85,2.31,1,3.25Z"/>
                  <path class="cls-3" d="M262.85,352.43c1.04,6.56-.83,18.86,10.99,25.73-.04.44-3.38,1.95-4,2.25,2.13-3.83-2.3-3.77-5-7.75-2.7-3.98-2.32-9.47-7.99-13.49.96-1.1,2.26-1.96,3-3.25,2.79-4.89.48-6,3-3.5Z"/>
                  <path class="cls-12" d="M249.86,373.91c3.78,3.5,15.18,2.75,15.99,7.99-4.76.77-4.06.61-7.99-1-.67-.27-8.86-5.19-10.99-6.5-.11-.66,1.62-.62,3-.5Z"/>
                  <path class="cls-19" d="M268.85,380.91c-.89.33-2.08.85-3,1-.81-5.25-12.21-4.49-15.99-7.99,9.86.89,11.91-1.25,18.99,7Z"/>
                  <path class="cls-3" d="M252.86,350.43c0,.98-1.2,4.47-.5,6,.06.14-.1.55.5.5-1.7.61-3.09,1.34-5,1-.44-2.18,5.05-13.18,5-7.5Z"/>
                  <path class="cls-21" d="M252.36,356.43c-.7-1.53.49-5.02.5-6,7.19-6.27,5.49.04-.5,6Z"/>
                  <path class="cls-2" d="M247.86,351.93l-4.5-.5c1.53-3.2,4.49-3.66,5.75-3,.45.24-.96,1.82-1.25,3.5Z"/>
                  <g>
                    <path class="cls-12" d="M259.86,355.93c-.74,1.29-2.04,2.15-3,3.25,5.68,4.02,5.29,9.51,7.99,13.49,2.69,3.97,7.12,3.91,5,7.75-.35.17-.63.36-1,.5-7.08-8.24-9.13-6.11-18.99-7-1.38-.12-3.11-.16-3,.5-1.99-1.22-11.37-5.95-11.49-8.24-.01-.27,2.48-4.82,2.75-4.75.93.26-1.72,3.27,2.75,1-1.25,4.03-.08,2.47,3,6.25.24.3-1.42,1.89,1,1-4.49-7.18,2.66-10.03,4-2,6.05,5.49,1.63.09,1.5-1.5-.13-1.62.8-3.34,1.5-4.75,3.76-1.68,5.78-5.67,7.99-5.5Z"/>
                    <path class="cls-19" d="M255.61,363.92c.47-.11,3.55,5,2.5,5.5-.63.3-5.5-4.8-2.5-5.5Z"/>
                  </g>
                </g>
                <g>
                  <path class="cls-12" d="M288.84,361.92l-2,.5c-1.37-2.98-11.07-13.81-15.49-9.74,10.45,1.84,11.04,10.84,16.99,18.24-.34,2.33-.67,2.14-3,2-4.7-5.24-9.09-10.58-13.99-15.49-1.17-1.17-1.44-.45-2-1.25-.69-.99,1.72-3.53-2.5-2.25.07-.49-.11-1.14,0-1.5,1.02-3.28,16.21-10.38,21.99,9.49Z"/>
                  <path class="cls-3" d="M284.34,347.43c.9,2.14,3.94,5.32,6,5.5-.2,3.41.94,12.3,1.5,16.24.63,4.44,4.53,9.65-1,8.74,0-5.53-.44-10.63-2-15.99-5.78-19.87-20.97-12.78-21.99-9.49-1.22.5-3.68-4.78-3.25-5,6.91-.04,13.83.05,20.74,0Z"/>
                  <path class="cls-12" d="M271.35,357.42c1.05,2.42,1.87,9.26,2.5,10.24,1.41,2.2,10.62,5.19,11.49,5.25,2.33.14,2.66.33,3-2,.34-2.34-.51-6.32-1.5-8.49l2-.5c1.56,5.36,2,10.46,2,15.99-1.69-.28-1.41-.97-1.5-1-.06-.02.2-.79-.25-1-4.12.75-3.32-1.66-5.5-2.5-3.57-1.38-8.75-.86-12.24-4-3.23-2.9-5.09-11.37-4.5-15.49,4.22-1.28,1.81,1.25,2.5,2.25.56.8.83.08,2,1.25Z"/>
                  <path class="cls-3" d="M289.34,376.91c-4.99,1.24-17.8-2.78-17.99-7.5,3.5,3.14,8.67,2.62,12.24,4,2.18.84,1.38,3.25,5.5,2.5.45.21.19.98.25,1Z"/>
                  <path class="cls-19" d="M285.34,372.91c-.87-.05-10.09-3.05-11.49-5.25-.63-.99-1.45-7.82-2.5-10.24,4.9,4.91,9.29,10.25,13.99,15.49Z"/>
                  <path class="cls-19" d="M286.84,362.42c.99,2.17,1.84,6.15,1.5,8.49-5.94-7.4-6.54-16.4-16.99-18.24,4.42-4.07,14.12,6.76,15.49,9.74Z"/>
                </g>
                <g>
                  <path class="cls-3" d="M206.39,350.43c-10.2-4.81-17.98,7.02-13.24,5,1.75-.75,2.79-6.36,13.24-4.5,2.86,3.06,4.58,6.75,7.5,9.74.07.96-5.44,4.28-6.5,4.75-8.77,1.3-.65-1.86,0-4.75,1.51-6.76-3.14-2.83-3.5-2.75-.42.1-.9-.75-1.25-1-2.59,4.05-4.75,2.81-5,3-1.31.97.03,1.03-.25,2-.02.07-1.15.44-1,1-1.23-.88-9.12-7-8.99-7.75,6.51-4.89,11.35-12.39,18.99-4.75Z"/>
                  <path class="cls-4" d="M207.39,365.42c-7.21,3.19-5.97,1.09-10.99-2.5-.15-.56.98-.93,1-1,3.56,1.45,6.19-.26,6.5-4,.36-.08,5.01-4.01,3.5,2.75-.65,2.89-8.77,6.04,0,4.75Z"/>
                  <path class="cls-31" d="M206.39,350.43c.08.08-.08.41,0,.5-10.45-1.86-11.49,3.75-13.24,4.5-4.74,2.02,3.05-9.8,13.24-5Z"/>
                  <path class="cls-19" d="M203.89,357.92c-.31,3.74-2.94,5.44-6.5,4,.28-.97-1.06-1.03.25-2,.25-.19,2.4,1.05,5-3,.35.25.83,1.1,1.25,1Z"/>
                </g>
                <g>
                  <path class="cls-10" d="M221.38,351.93c-2.18-.24-.22,4.07,1.75,4.5,3.61.77,4.6-2.23,5.25-5.25.41-.56.28.48,1.5.25.35-.06.3,1,3-.5,2.08,7.07-3.62,12.18-4.75,12.49-7.03,1.94-13.67-8.17-17.24-12.99,3.36-.02,9.04-1.26,10.49,1.5Z"/>
                  <path class="cls-31" d="M232.87,350.93c-2.7,1.5-2.65.43-3,.5-4.08-4.71-6.67,1.43-8.49.5-1.45-2.76-7.13-1.52-10.49-1.5-1.28-1.73-2.77-2.67-2.25-3,5.8,1.35,22.25-3.25,24.23,3.5Z"/>
                  <path class="cls-10" d="M229.87,351.43c-1.22.23-1.09-.81-1.5-.25-.64,3.02-1.64,6.02-5.25,5.25-1.97-.42-3.93-4.73-1.75-4.5,1.83.93,4.41-5.21,8.49-.5Z"/>
                </g>
                <g>
                  <path class="cls-25" d="M169.91,353.43c.02,6.97-2.61,8.47-9.49,8.49-2.08-.98-3.61-2.26-5.5-3.5-.05-.6.37-.44.5-.5,1.87,1.12,3.95,1.03,6,.5-.64,2.09,4.8-.45,5.5-1.75,4.74-8.88-16.73-2.01-20.49-4.75-1.57-1.29-3.53-2.24-4.75-4h26.48c1.54,1.4,1.74,3.43,1.75,5.5Z"/>
                  <path class="cls-4" d="M161.42,358.42c7.56-1.96.9-3.73-6-.5-.13.06-.55-.1-.5.5-3.01-1.97-5.72-4.22-8.49-6.5,3.75,2.74,25.22-4.13,20.49,4.75-.69,1.3-6.14,3.84-5.5,1.75Z"/>
                  <path class="cls-3" d="M160.42,361.92c6.88-.03,9.51-1.52,9.49-8.49,1.35-.21,4.64,5.07,3.25,6.5-.3.31-6.91,3.42-7.5,3.5-5.56.72-4.98-1.37-5.25-1.5Z"/>
                  <path class="cls-19" d="M161.42,358.42c-2.05.53-4.13.62-6-.5,6.9-3.23,13.56-1.46,6,.5Z"/>
                </g>
                <g>
                  <path class="cls-21" d="M331.31,348.93c-2.01,1.49-3.6,3.45-5,5.5.21-2.28,1-2.4-1.5-2.5-3.74-.14-.79,2.76-5.5-4.5,1.81-.66,3.34.2,3.75,2,2.87-3.41,5.28-2.34,8.24-.5Z"/>
                  <g>
                    <path class="cls-3" d="M319.32,347.43c4.71,7.25,1.76,4.36,5.5,4.5,1.21,1.96,0,1.9,0,2-3.7,5.3-2.87,8.88.5,3.75.69-1.05.42-2.63.5-2.75.39-.57.48-.47.5-.5,1.4-2.05,2.99-4,5-5.5.75.47,3.59,2.89,3.5,3.75-.11,1.07-14.08,12.88-16.24,14.24,1.37-2.79-.37-6.38,2.25-8.24-1.87-2.88-5.23-9.87-1.5-11.24Z"/>
                    <path class="cls-21" d="M325.81,354.93c-.08.12.19,1.7-.5,2.75-3.37,5.13-4.2,1.55-.5-3.75,0,.92-.03,1.12,1,1Z"/>
                    <path class="cls-19" d="M326.31,354.43s-.11-.07-.5.5c-1.03.12-1-.08-1-1,0-.1,1.21-.04,0-2,2.5.09,1.71.22,1.5,2.5Z"/>
                    <path class="cls-21" d="M320.07,350.43c1.63,0-.52,2.76-1,2.5-.96-.54.64-2.5,1-2.5Z"/>
                  </g>
                </g>
              </g>
              <g>
                <path class="cls-38" d="M461.23,265.48c1.59-7.7,2.06-11.59.5-19.49-.64-3.22-2.43-10.93-5.5-9.99-.07-2.07-8.04-33.91-8.49-40.47,1.91-.59,1.9-1.58,4.5-.5,2.71,10.91,5.03,38.84,6.5,23.24.61-6.51-2.41-31.45-7-26.23-2.1-4.23-3.08-9-4.5-13.49-2.33-7.37-5.06-14.79-8.49-21.74-.2-1.75,4.41-4.83,5.5-3.75,15.73,37.11,16.92,29.77,3-3,1.25-.78,2.35-1.9,3.75-2.5,28.05,47.99,32.13,108.08,14.74,160.65-3.78,11.41-16.38,40.92-25.73,47.72l-6.75-12.74c11.96-25.82,15.95-33.35-2.25-4.25l-5.75-3.75c8.58-27.61,33.32-38.99,35.98-69.71Z"/>
                <path class="cls-16" d="M444.24,176.04c.61.93,1.71,2.46,3,2.5,1.42,4.49,2.39,9.26,4.5,13.49l.5,3c-2.6-1.08-2.59-.09-4.5.5-10.23-29.24-17.46,27.9-20.74,38.48,4.58.98,9.17,1.97,13.74,3-2.46,1.83,11.9,3.83,16.49,3.5.11,1.9,3.23,7.47,0,19.99-2.31-1.18-18.74-8.37-19.74-7.99-.44.17-.21,1.07-.25,1.5-5.72-1.93-11.69-4.26-9.99-2-1.94-8.63-8.9-18.22-15.99-23.49.32-3.93-.47-3.8-.5-4-2.2-15.82-4.41-20.22-7.99-33.98-.04-.16.85.11,0-3.25-1-3.94-2.79-7.85-4-11.74,11.24-5.05,10.54-8.76,11.24-8.99.59-.2,4.65,4.23,9.99-4,2.16.91,6.73-2.34,9.74-3.5.07.98,8.65,16.73,9.49,17.24.63.38,4.36.61,5-.25Z"/>
                <path class="cls-2" d="M461.23,265.48c-2.62,12.7-11.37,28.03-19.99,37.73-8.06,9.06-11.35,6.81-19.99,27.98.42-7.25,6.39-15.04,7-22.74,2.66.41,1.54-.82,2.5-1.5,16.16-11.55,31.94-40.29,29.98-60.46l1-.5c1.56,7.9,1.09,11.79-.5,19.49Z"/>
                <path class="cls-17" d="M457.23,260.49c-1.13,4.36-15.06,32.75-17.99,33.98,6.56-11.17,9.87-24.73,7.25-37.48-.23.22-.53.66-.75.5-.08-.06.22-.77-.25-1-2.93-.2-5.53-1.58-8.24-2.5.04-.42-.19-1.33.25-1.5,1-.37,17.43,6.82,19.74,7.99Z"/>
                <path class="cls-17" d="M444.24,176.04c-.63.86-4.37.63-5,.25-.84-.51-9.42-16.26-9.49-17.24-.01-.15.54,0,.75-3,7.28,2.07,9.33,13.26,13.74,19.99Z"/>
                <path class="cls-14" d="M439.24,294.46c-.99.42-1.54.22-2.5,0,4.73-11.86,9.81-23.87,8.99-36.98.22.16.52-.28.75-.5,2.63,12.75-.69,26.31-7.25,37.48Z"/>
                <path class="cls-28" d="M447.24,150.06c13.93,32.77,12.74,40.11-3,3-.42-1.74,1.85-2.28,3-3Z"/>
                <path class="cls-26" d="M461.73,245.99l-1,.5c-.79-8.11-3.77-10.8-3.5-6-4.59.33-18.95-1.66-16.49-3.5,11.11,2.51,15.68,5.16,15.49-1,3.06-.94,4.86,6.77,5.5,9.99Z"/>
                <path class="cls-38" d="M398.77,175.54c1.2,3.9,3,7.8,4,11.74.85,3.36-.04,3.09,0,3.25-.94-2.7-4.82-12.32-5-13.74-.47-3.9.85-1.18,1-1.25Z"/>
                <path class="cls-7" d="M410.76,224.51c.03.2.82.06.5,4-3.19-2.37-7.43-2.37-.5-4Z"/>
                <path class="cls-19" d="M452.23,195.03l-.5-3c4.58-5.22,7.61,19.73,7,26.23-1.47,15.61-3.78-12.32-6.5-23.24Z"/>
                <g>
                  <path class="cls-38" d="M437.24,253.99c2.72.92,5.31,2.3,8.24,2.5.47.23.17.94.25,1,.81,13.11-4.26,25.12-8.99,36.98-.3.74-1.96,7.23-2.75,7-1.58-7.86-3.01-11.95-9.24-17.24,3.32-8.93,4.57-23,2.5-32.23-1.69-2.26,4.27.07,9.99,2Z"/>
                  <path class="cls-14" d="M437.49,256.49c.36-.08,1.04-.11,1.25.25.65,10.14-3.64,19.5-5.75,29.23-1.7-3.61,1.58-28.87,4.5-29.48Z"/>
                </g>
                <g>
                  <path class="cls-18" d="M447.74,195.53c.46,6.56,8.43,38.41,8.49,40.47.19,6.16-4.39,3.51-15.49,1-4.57-1.03-9.16-2.02-13.74-3,3.27-10.58,10.51-67.72,20.74-38.48Z"/>
                  <path class="cls-2" d="M441.49,193.53c3.69,13.47,7.14,27.13,8.99,40.97l-18.74-4.75,9.74-36.23Z"/>
                </g>
              </g>
              <g>
                <path class="cls-12" d="M250.86,172.54c-1.69.37-4.9.26-6.5,0-.2-.03-2.8-1.01-3.75-1.5-2.12-.14-3.08.98-3.25,1-.21.02-2.4-1.14-3.5,1-1.25,2.44,4.61,7.3,6,9.49.42.67,1.49,1.63,1.5,1.75.11.99-.96,1.18-1,1.25-13.41-16.25-13.34-15.78-2.5,2-.05.03-.65.31-1,.5-1.14.61-.89,1.28-1.75,2-.56.27-.88-.64-1.25-.5l-13.74-16.99,12.74,16.99c-1.93.7-3.7,1.53-5.5,2.5-.95-.7-17.17-14.61-17.49-15.74-.44-1.56,1.07-5.67,1.25-7.75l36.48,1,2,.5c.3.16.78,1.95,1.25,2.5Z"/>
                <path class="cls-12" d="M199.64,127.07c6.61-2.08,9.69,9.05,14.49,14.49-.36-3.02-8.53-13.41-7-14.49,1.51.39,7.17.8,7.5,1,.9.56,7.08,17.65,1.5.5l9.74,1.75-12.24,24.23-13.99-27.48Z"/>
                <path class="cls-3" d="M181.16,127.57l.5,16.49c-10.66-15.89-7.7-20.45-17.24.25h-1l-5-9.49c.12-2.17,19.59-6.66,22.74-7.25Z"/>
                <path class="cls-4" d="M154.42,213.02c-1.46-3.75-5.53-7.34-8.49-10.49,8.63-2.86,5.43-1.38,13.24,6.5.81-.62-.36-1.08-.25-1.5.29-1.1,1.82-6.05,1.5-6.75-.11-.24-2.04-.32-4.5-2.75.53-.6.27-1.59,1.25-1.5.42.04,5.72,5.02,5.75,6.25-1.19,2.5-3.45,18.18-4,18.99-1.66,2.46-5.9,1.5-4.5-8.74Z"/>
                <path class="cls-3" d="M237.37,172.04l5.5,7c-1.94,12.55,2.08-1.25,4.75-2.5.74-.35,3.97-.53,5.25-.5.15.25,2.35,2.54,3.5,4.75-5.03,3.86-10.67,6.79-16.49,9.24l-3-2c.35-.19.95-.47,1-.5.88-.64.9.83,2.5-2,.04-.07,1.11-.26,1-1.25-.01-.11-1.08-1.08-1.5-1.75.64-2.41-4.4-5.88-6-9.49,1.1-2.13,3.29-.98,3.5-1Z"/>
                <path class="cls-12" d="M100.46,200.52c.88.19,3.62,0,4.5.5q-4.5,10.49-8.99,20.99c-1.03.27-5.28,1.67-6,.75,2.98-8.05,5.89-15.92,9.49-23.74-.03,1.32-.44,1.18,1,1.5Z"/>
                <path class="cls-3" d="M256.36,218.51c-.22-1.04.4-1.8,1-2.5,3.96-4.64,7.95-9.43,11.99-13.99.62-.69,1.75-1.39,2.5-2,.82.8,4.61,3.69,4.5,4.75-2.56,1.36-13.78,13.44-14.74,13.74-.49.15-4.05.06-5.25,0Z"/>
                <path class="cls-8" d="M234.62,214.02q5.25,3.5,10.49,7c43.34,3.57-3.88,2.25-16.49,2.5l-.25-1.25q3.12-4.12,6.25-8.24Z"/>
                <path class="cls-4" d="M164.92,223.01q1.75-8.49,3.5-16.99c2.01,1.9,4.13,3.69,6,5.75-2.47,13.07-1.05,13.9-9.49,11.24Z"/>
                <path class="cls-12" d="M189.65,127.07c.89-.63,7.94-.83,7.75,4.75-.04,1.01-7.64,15.21-8.74,18.24,1.42-6.84.06-22.32,1-22.99Z"/>
                <path class="cls-3" d="M145.93,202.52c2.96,3.15,7.03,6.74,8.49,10.49-3.27-.24-.86,12.68-5,9.24-.86-.71-1.5-9.72-2-10.99-2.37-6.06-11.19-5.53-1.5-8.74Z"/>
                <path class="cls-4" d="M184.65,127.07c.41-.16,3.5-.08,3.75.25-1.66,8.55,1.13,19.23-1.75,26.73-2.64,0-3.89-25.05-3.25-26.23.03-.06,1.11-.69,1.25-.75Z"/>
                <path class="cls-12" d="M269.35,202.02c-4.05,4.56-8.03,9.35-11.99,13.99l-2-4c2.77-3.65,7.29-10,9.99-12.99l4,3Z"/>
                <path class="cls-4" d="M114.95,190.53c0-.13-.57.08-.5-2.5,1.08-1.98,2.84-3.6,4-5.5,1.57-.96.4.48,1.5,0,2.62-1.16,6.21-7.48,7.25-7.5,6.43-.07-9.21,17.63-12.24,15.49Z"/>
                <path class="cls-3" d="M95.96,222.01q4.5-10.49,8.99-20.99c1.31.74,2.17,4.37,2,5.75-.1.84-7.35,14.43-7.99,14.99-.72.63-2.85.21-3,.25Z"/>
                <path class="cls-10" d="M168.41,206.02q-1.75,8.49-3.5,16.99c-.39-.12-1.46.19-2.75-.5.19-1.99,3-19.44,4-19.49.84.86,1.38,2.18,2.25,3Z"/>
                <path class="cls-27" d="M215.13,211.52q-.12,5.62-.25,11.24l-8.24.25,8.49-11.49Z"/>
                <path class="cls-12" d="M250.86,172.54c.96,1.12,1.29,2.31,2,3.5-1.28-.04-4.5.15-5.25.5-2.66,1.25-6.69,15.04-4.75,2.5.34-2.17.87-4.39,1.5-6.5,1.6.26,4.81.37,6.5,0Z"/>
                <path class="cls-31" d="M200.39,214.02c3.35-2.29,2.87,7.31,2.5,8.24-.45,1.14-7.88,2.91-9.49,3.75,1.13-2.18,4.21-.67,3-3.5,3.15-1.13,3.79-5.39,2-7,.81-1.76,1.91-1.42,2-1.5Z"/>
                <g>
                  <path class="cls-23" d="M173.91,138.56c1.17,1.72,8.55,12.49,7.99,13.74-8.8,2.73-5.56,7.87-9.99,4.75,1.21-1.85-3.8-5.97-4-6.75-.3-1.16,3.94-12.15,6-11.74Z"/>
                  <path class="cls-22" d="M173.91,138.56c-2.06-.4-6.3,10.58-6,11.74.2.77,5.21,4.9,4,6.75-1.14-.8-6.42-5.82-6.5-6.75l6.5-14.49h1c.39.73.92,2.63,1,2.75Z"/>
                </g>
                <path class="cls-6" d="M143.43,216.51c-1.21-2.02-2-2.77-4.5-1.5-1.66-5.67-4.31-9.81-.25-8.49.61.2,8.06,8.64,6.25,10.74l-1.5-.75Z"/>
                <path class="cls-32" d="M179.66,218.01c6.38,3.58,1.59,9.86,1,9.99-.23.05-4.17-1.82-4.25-2.25-.08-.41,2.9-6.61,3.25-7.75Z"/>
                <path class="cls-3" d="M111.45,222.01l-3.75-6.5-2.25,6c-.29-.03-1.67,1.42-3-.25l5.75-10.24,3.25,10.99Z"/>
                <path class="cls-4" d="M143.43,216.51c1.39,2.32,2.8,9.8-1.25,7.99-.46-.2-2.9-8.3-3.25-9.49,2.49-1.27,3.28-.52,4.5,1.5Z"/>
                <path class="cls-12" d="M185.15,223.51c.35-.03,5.25,4.39,5.25,4.75,0,.25-3.5,3.23-3.75,3.25-.25.01-4.19-2.5-4.25-2.75-.07-.29,2.37-5.21,2.75-5.25Z"/>
                <path class="cls-4" d="M239.87,190.03c-3.24,1.37-6.45,2.75-9.74,4-1.55.38-2.23-1.62-2.75-2,1.8-.97,3.57-1.8,5.5-2.5.24-.09.76.09,1,0,.37-.14.69.77,1.25.5.85-.72.61-1.39,1.75-2l3,2Z"/>
                <path class="cls-3" d="M171.41,164.05c-2.02,1.49-3.52-2.76-7-3-.03-.25.68-3.02.75-5,2.23,2.03,7.33,5.02,6.25,7.99Z"/>
                <path class="cls-31" d="M158.92,207.52c-1.57-5.61-6.2-5.87-3-9.49,2.46,2.43,4.38,2.51,4.5,2.75.33.69-1.21,5.65-1.5,6.75Z"/>
                <path class="cls-3" d="M257.36,216.01c-.6.7-1.22,1.46-1,2.5-.28-.01-2.87-.7-5.5-.75-.41-.5,4.03-5.13,4.5-5.75l2,4Z"/>
                <path class="cls-4" d="M271.85,200.02c-.74.61-1.88,1.3-2.5,2l-4-3c1.4-1.55,2.2-3.39,3.25-3,.25.06,1.8,2.59,3.25,4Z"/>
                <path class="cls-31" d="M111.45,222.01c-2.07.36-4-.27-6-.5l2.25-6,3.75,6.5Z"/>
                <path class="cls-21" d="M206.64,180.04c.98-.25,4.82,2.97,4.75,3.25-.12.47-6.14,4.95-5.5-2.5.29-.21.57-.7.75-.75Z"/>
                <path class="cls-21" d="M171.41,164.05c-1.86,5.09-6.62-.16-7-3,3.47.24,4.97,4.49,7,3Z"/>
                <g>
                  <path class="cls-4" d="M228.87,206.52c.39,2.86.46,3.19-.5,6-.76,2.25-5.79,7.24-3,8.99-2.62,2.43-3.8,1.57-7.99,1.25l.5-12.99c9.11-14.59,5.39,3.33,6.25,3.75l4.75-7Z"/>
                  <path class="cls-10" d="M230.87,214.02l-2.5-1.5c.96-2.81.89-3.14.5-6-.07-.48.1-1.05,0-1.5l.5-.5c5.74,7.17,3.91,5.86,1.5,9.49Z"/>
                  <path class="cls-3" d="M230.87,214.02c-1.16,1.75-4.32,6.4-5.5,7.5-2.8-1.75,2.23-6.75,3-8.99l2.5,1.5Z"/>
                  <path class="cls-21" d="M229.37,204.52l-.5.5c-.04-.19-2.5-.71-.75-3,1.21-.29,1.15,2.37,1.25,2.5Z"/>
                </g>
                <g>
                  <path class="cls-12" d="M228.87,150.06c.22,4.69.4,4.5,1,0,.71-5.36-.16-10.9,1.75-15.99,1.76-.26,12.97,28.66,15.74,31.73.28,1.14-4.12.95-5,.5-1.48-.76-14.62-29.05-2-.5-6.66,3.43-7.67-3.32-10.74-8.24,3.71,15.23-2.26,9.19-7.99-2.5l3.25,10.74-10.99-.5c3.1-6.34,5.34-13.19,8.49-19.49,12.17-24.34,5.94-7.53,6.5,4.25Z"/>
                  <path class="cls-4" d="M229.87,150.06c-.6,4.5-.78,4.69-1,0h1Z"/>
                </g>
                <g>
                  <path class="cls-12" d="M200.39,214.02c-.09.08-1.19-.27-2,1.5-.53-.48-1.3-.59-2-.5v-1.5c3.63-3.28-2.57-11.75,0-1.75-.7.49-.95,1.19-1,1.25-.68.77-3.18,1.9-4.5,1.5-.84-6.21,1.48-12.87,1-16.74-1.33-10.81-13.66-13.77-16.49-2.5.44.56,7.4-.44,9.24,3.75,1.67-8.19-3.8-8.7-3.75-9.24,3.15-2.5,8.32,1.41,8.99,4.5,3.03,13.8-4.84,5.57-12.49,6.5,10.84,2.57,12.64,3.3,12.49,15.24-.81-1.42-1.41-3.44-2.5-4.75-4.13-4.97-3.44-1.84,2.5,4.75,1.48,2.61,1.28,8.37,6.5,6.5,1.21,2.83-1.87,1.32-3,3.5-13.88-14.01-27.15-28.58-42.47-41.22,4.61-1.59,6.04-4.09,9.99-4l2-16.99c1.72,3.02,3.32,7.66,7.75,6.75,4.14-.85,4.27-10.57,8.74-13.74,4.07-2.89,8.25,5.08,10.99,7.5-1.77,5.89-1.58,11.9-1.5,17.99l-9.74,2.75.5-5c-.76,1.31-10.25,15.85-8.49,16.49,6.58-11.96,23.19-21.04,25.73-2.25,2.85-15.12-11.39-6.17-6-28.48h1c5.07,7.24-2.33,12.74,10.99,16.99v29.48c-4.27.28-2.36,1.62-2.5,1.75Z"/>
                  <g>
                    <path class="cls-19" d="M181.65,159.55c1.91,7.32-5.07,15.52-8.99,21.49l-7.25-7.75c11.14,4.1,12.21-5.85,16.24-13.74Z"/>
                    <path class="cls-19" d="M164.67,179.04c9.26,3.7,6.75,11.86-1.25,10.74,12.49-4.03-1.12-9.66,1.25-10.74Z"/>
                    <path class="cls-12" d="M164.92,187.03c-.06.07-1.21.28-1,1.5-3.92,1.05-5.38-2.39-4.5-4.75.11-.29,1.43,1.31,6.25.75,1.16.51.06,1.57-.75,2.5Z"/>
                    <path class="cls-19" d="M196.4,213.52c-1.07.66-1.89.86-1-.5.05-.06.3-.76,1-1.25-2.57-10,3.63-1.53,0,1.75Z"/>
                    <path class="cls-19" d="M181.16,205.52c8.87,1.86,8.87,4.26,0,1v-1Z"/>
                    <path class="cls-19" d="M189.9,216.01c-5.94-6.59-6.63-9.72-2.5-4.75,1.09,1.31,1.69,3.32,2.5,4.75Z"/>
                    <path class="cls-11" d="M163.92,188.53c-.21-1.21.94-1.43,1-1.5,1.78-.24.63,1.06-1,1.5Z"/>
                  </g>
                </g>
                <path class="cls-19" d="M240.37,185.53c-1.6,2.83-1.62,1.36-2.5,2-10.84-17.78-10.91-18.25,2.5-2Z"/>
                <path class="cls-12" d="M244.37,172.54c-.63,2.11-1.16,4.32-1.5,6.5l-5.5-7c.17-.02,1.13-1.14,3.25-1,.95.49,3.55,1.47,3.75,1.5Z"/>
                <path class="cls-28" d="M233.87,189.53c-.24.09-.76-.09-1,0l-12.74-16.99,13.74,16.99Z"/>
                <path class="cls-28" d="M239.87,182.53c-1.39-2.2-7.25-7.06-6-9.49,1.6,3.61,6.63,7.09,6,9.49Z"/>
                <g>
                  <path class="cls-3" d="M240.37,193.53l-3,14.99c-2.17-3.6-4.05-7.29-5.5-11.24.2-.81,7.28-3.15,8.49-3.75Z"/>
                  <path class="cls-12" d="M263.85,194.03c-4.6.1-6.24-5.69-10.49-7.5,1-.54,4.15-3.07,4.75-3,2.28,3.51,7.54,6.47,5.75,10.49Z"/>
                  <g>
                    <path class="cls-4" d="M263.85,194.03c-.61,1.36-16.79,23.14-18.24,23.49-3.3.79-6.85-6.69-8.24-8.99l3-14.99c4.46-2.18,8.64-4.63,12.99-7,4.26,1.8,5.89,7.59,10.49,7.5Z"/>
                    <path class="cls-19" d="M252.11,191.53c3.47-.49-5.71,13.03-6.75,14.24-6.88,8.02,5.69-14.09,6.75-14.24Z"/>
                  </g>
                </g>
                <g>
                  <path class="cls-12" d="M199.64,136.56q5.62,11.62,11.24,23.24c-8.4,10.37-1.9,18.7-12.49,13.49.1-7.32-5.57-11.98-9.49-17.49l10.74-19.24Z"/>
                  <path class="cls-19" d="M199.14,145.56c.33,1.59,1.94,10.32,1,10.99-.16.12-3.65-1.08-3.75-1.25-.65-1.16,2.39-7.93,2.75-9.74Z"/>
                  <path class="cls-19" d="M202.14,162.55c1.35,12.1-2.04,12.02-.25.25l.25-.25Z"/>
                </g>
                <g>
                  <path class="cls-12" d="M277.59,208.52q11.87,8.37,23.74,16.74l-13.24,7.25c-7.87-9.24-24.05-7.6-23.24-12.74.13-.84,11.58-9.33,12.74-11.24Z"/>
                  <path class="cls-19" d="M274.6,218.01c3.57.09,14.18,5.95,14.99,6,.52.03,6.64-2.89,6.25-.25-.05.35-5.08,3.33-6.25,3.25-.88-.06-13.99-7.18-14.99-8.99Z"/>
                </g>
                <g>
                  <path class="cls-12" d="M213.13,185.03c2.71.37,9.68,9.27,11.74,11.74-6.64,6.1-12.91,12.57-17.74,20.24.48-4.12-1.33-28.83-.75-30.23.39-.95,6.4-1.8,6.75-1.75Z"/>
                  <path class="cls-10" d="M211.64,187.03c.55-.14,3.77,11.62,2.5,10.49l-2.5-10.49Z"/>
                </g>
                <path class="cls-25" d="M118.44,182.53c-1.16,1.9-2.92,3.52-4,5.5.02-.73-1.57-5.6-.5-6.5,1.18-1.86,4.87-4,5.5-6,2.83,3.18.56,4.44-1,7Z"/>
                <g>
                  <path class="cls-25" d="M119.94,182.53c-1.09.48.07-.96-1.5,0,1.56-2.56,3.83-3.81,1-7,1.07-3.4-.42-5.87-1.5-3.25-.22.53.22,2.06,0,2.5-1,1.97-4.07,4.23-4,6.75-1.07.89.52,5.76.5,6.5-.07,2.58.5,2.37.5,2.5-.03.7-1.82,6.83-2.25,7-5.41-.6-13.1-5.49-12.24,3-1.44-.32-1.03-.18-1-1.5,7.62-16.51,18.02-31.11,29.73-44.97.91,6.41-4.91,12.26-2.75,18.74l-6.5,9.74Z"/>
                  <path class="cls-19" d="M119.44,175.54c-.63,2-4.31,4.14-5.5,6-.08-2.52,3-4.78,4-6.75.22-.43-.22-1.97,0-2.5,1.08-2.63,2.57-.16,1.5,3.25Z"/>
                  <path class="cls-19" d="M110.2,184.53c1.89,2.74,1.1,6.53-1,8.99l1-8.99Z"/>
                  <path class="cls-19" d="M109.2,187.03c.76-.11.7.13.75.75.24,3.19-6.68,10.66-.75-.75Z"/>
                </g>
                <g>
                  <path class="cls-12" d="M119.94,200.52c2.28-.91,1.24-1.48,1.5-2,1.21-.14,2.26-.43,3.5-.5,1.81-.11,3.2-.22,5-.5,7.74-1.19,21.7-3.91,8.49-11.99-1.77-1.08-4.68-1.29-5-1.5-.11-.07.34-1.12-1-2.5.08-.05.74-1.26,1.25-1.5,12.63,3.65,11.04,7.48,19.74,15.24l-.5,1c-10.95,4.2-21.26,7.33-32.98,4.25Z"/>
                  <path class="cls-12" d="M133.44,184.03c-3.23,4.42-10.12,8.55-10.49,12.49-2.23,1.5-1,1.02-1.5,2-.26.52.78,1.09-1.5,2-.66-.17-2.88-.57-3-.75-.9-2.57,14.44-17.55,15.49-18.24,1.34,1.38.89,2.42,1,2.5Z"/>
                  <path class="cls-4" d="M129.94,197.53c-1.8.28-3.19.39-5,.5,3.28-2.06,12.75-15.24,15.99-9.24,3.59,6.64-7.62,6.69-10.99,8.74Z"/>
                  <path class="cls-13" d="M129.94,197.53c3.37-2.05,14.58-2.11,10.99-8.74-3.24-6-12.71,7.18-15.99,9.24-1.24.07-2.29.36-3.5.5.49-.98-.73-.5,1.5-2,.1-.06.47,1.02,2.25-.5,2.08-1.77,8.97-8.82,10.49-9.49.85-.38,3.07.8,2.75-1,13.2,8.08-.76,10.8-8.49,11.99Z"/>
                  <path class="cls-27" d="M138.43,185.53c.32,1.8-1.9.62-2.75,1-1.52.68-8.42,7.72-10.49,9.49-1.78,1.52-2.15.44-2.25.5.37-3.94,7.27-8.07,10.49-12.49.32.21,3.22.41,5,1.5Z"/>
                </g>
                <g>
                  <path class="cls-12" d="M128.94,205.52c2.87,6.88-14.62-1.65-14.49,2.75.04,1.28,1.91,3.58,2.5,4.75,5.06,9.95,17.78,15.69-1,9.24-3.55-6.53-3.58-13.46-6-19.99,5.88,1.55,13.38,1.33,18.99,3.25Z"/>
                  <path class="cls-12" d="M138.43,226.51c-.34,3.42-5.51.9-9.24,1.5-.25-.1-.84-1.98-1.25-2.5,3.78-1.72,7.13-1.27,10.49,1Z"/>
                  <g>
                    <path class="cls-12" d="M138.43,226.51c-3.36-2.27-6.71-2.72-10.49-1-2-2.58-4.77-9-10.99-12.49-.59-1.16-2.46-3.47-2.5-4.75-.13-4.4,17.36,4.13,14.49-2.75.41.14,1.21-.09,1.75,0,1.28,2.35,7.86,19.87,7.75,20.99Z"/>
                    <path class="cls-19" d="M119.69,209.02c6.22,3.09,12.36,7.56,12.99,14.99l-12.99-14.99Z"/>
                  </g>
                </g>
                <g>
                  <path class="cls-12" d="M159.92,144.06c-3.98-4.91-1.32,4.05-1.5,6.25-.18,2.12-1.24,4.53-1.5,6.75-3.4-5.67-5.41,6.8-15.99,5.25,5.41,1.6,7.81-1.48,12.49-1.75-.88,1.12-2.94,4.61-3.75,5-6.65,3.2-16.93-10.36-13.49-9.49,10.63,9.73,15.89.19,16.74-10.99,1.72-.95-1.77-1.01-2.5-3-.07-.19.24-3.35,0-4,1.68-.86,3.2-2.39,5.25-2.5.48.15,3.88,7.43,4.25,8.49Z"/>
                  <path class="cls-12" d="M156.92,157.05c-.79,6.71-3.35,10.89,2,9.49-.68,3.4-1.02,6.82-1.5,10.24l-9.49,4.75c0-1.76.69-2.47-.5-4,.15.01.36.03.5,0,4.12-.94.73-6.96,1.5-9.74.13-.48,4.31-3.89,4.75-8.24-.79.58-.69,1-.75,1-4.68.27-7.08,3.35-12.49,1.75,10.58,1.55,12.59-10.92,15.99-5.25Z"/>
                  <path class="cls-4" d="M135.43,161.05c.35.57,9.11,8.79,9.74,8.99.53.17,3.33-5.27,2.75,7.5-.14.03-.35.01-.5,0-.53-.04-1.81-1.85-9.49-4.5-.78-3.43-3.31-5.89-6-7.99.1-1.29.34-2.29.5-3.5,1.43-2.41,2.04,1.02,3-.5Z"/>
                  <path class="cls-4" d="M159.92,144.06c.87,2.53,2.33,4.92,2,7.75-1.54,4.79-2.01,9.84-3,14.74-5.35,1.4-2.79-2.78-2-9.49.26-2.22,1.32-4.62,1.5-6.75.18-2.2-2.48-11.16,1.5-6.25Z"/>
                  <path class="cls-25" d="M150.42,142.06c-4.37,4.5-9.75,7.58-14.99,10.99-.13-.32.12-1.07,0-1.5-.25-.9.64-1.76-1.5-1.5.94-2.54,13.45-10.45,16.49-11.99.24.65-.07,3.81,0,4Z"/>
                  <path class="cls-12" d="M137.93,173.04c7.69,2.64,8.96,4.46,9.49,4.5,1.19,1.53.5,2.23.5,4-8.23-6.4-16.91-2.97-16.49-15.49.54,1.57,2.83,5.91,4,6.75,2.09,1.51,2.04.09,2.5.25Z"/>
                  <path class="cls-25" d="M137.93,173.04c-.46-.16-.4,1.26-2.5-.25-1.16-.84-3.46-5.18-4-6.75.02-.47.46-.51.5-1,2.69,2.1,5.21,4.56,6,7.99Z"/>
                  <path class="cls-25" d="M135.43,151.55c-1.48-.31-1.84,6.49,0,9.49-.96,1.52-1.57-1.91-3,.5.51-3.83,1.25-7.63,1.5-11.49,2.14-.26,1.25.59,1.5,1.5Z"/>
                  <path class="cls-19" d="M153.42,160.55c.06,0-.04-.42.75-1-.44,4.36-4.62,7.77-4.75,8.24-.77,2.78,2.62,8.8-1.5,9.74.58-12.76-2.22-7.32-2.75-7.5-.63-.21-9.4-8.43-9.74-8.99-1.84-3.01-1.48-9.8,0-9.49.12.43-.13,1.18,0,1.5,3.56,8.65,6.28,1.78,8.24-3.5,1.1.24-.58,6.59-2.75,8.74,7.31.48,8.51-8.52,11.99-13.24-.85,11.19-6.11,20.73-16.74,10.99-3.44-.87,6.84,12.7,13.49,9.49.8-.39,2.87-3.88,3.75-5Z"/>
                  <path class="cls-12" d="M152.92,145.06c-3.49,4.72-4.69,13.72-11.99,13.24,2.16-2.16,3.85-8.5,2.75-8.74-1.97,5.28-4.69,12.15-8.24,3.5,5.24-3.41,10.62-6.49,14.99-10.99.73,1.99,4.22,2.05,2.5,3Z"/>
                </g>
                <g>
                  <path class="cls-19" d="M190.9,214.51c.98,7.25,8.7,6.56,5.5.5.7-.09,1.46.02,2,.5,1.79,1.6,1.15,5.87-2,7-5.22,1.87-5.02-3.89-6.5-6.5.15-11.94-1.65-12.67-12.49-15.24,7.66-.93,15.52,7.3,12.49-6.5-.68-3.09-5.85-7-8.99-4.5-.05.54,5.42,1.06,3.75,9.24-1.84-4.18-8.81-3.18-9.24-3.75,2.83-11.27,15.16-8.31,16.49,2.5.48,3.87-1.84,10.53-1,16.74Z"/>
                  <path class="cls-25" d="M195.4,213.02c-.89,1.36-.07,1.16,1,.5v1.5c3.2,6.07-4.51,6.75-5.5-.5,1.32.41,3.82-.73,4.5-1.5Z"/>
                  <path class="cls-25" d="M179.16,191.53c1.93-1.27,4.95,3.11,2.5,4-2.32.84-4.25-2.84-2.5-4Z"/>
                </g>
              </g>
            </g>
          </g>
          <g>
            <path class="cls-34" d="M330.31,92.09c-3.23,2.11,7.7,7.8,13.24,12.99,16.88,15.82,20.49,31.99,23.74,35.73,2.7,3.1,2.37-1.4,4-.25,4.29,6.29,13.54,8.42,20.74,7.5,11.09-1.43,7.06-9.6,8.99-10.49,1.86-.05,6.44,1.49,7.75.75.68-.38,6.72-9.91,7-13.74,5.21-.24,4.16-7.41,2.5-10.99,1.21.44,7.48,1.44,8.24,1,.66-1-1.3-3.43-2.25-5,.6-2.1,2.2-.84,3.75-1.5,1.08-.46,2.11-1.94,2.25-2,.36-.15,2.46-.71,4.5-1.5.76-.29.45-1.61,1.5-.75,9.35,11.84,19.41,24.77,23.24,39.23-5.13-7.14-14.41-8.76-17.74-1-1.76,1.94,7.56.6,7.5,2.25-2.54.65-14.82,9.7-15.74,9.74-.54.03-4.92-2.82-6-3.5l-.75.75c3.28,6.66-3.62,7.75-8.74,6.75-4.27,11.04-6.51,3.36-9.99,4.5-.88.29-6.35,12.4-13.49,6.5-.9.29-2.07,11.21-4.25,18.49-6.89-.45-4.44,1.87-6,4.75-3.95,7.27-8.21,13.66-9.99,21.49-1.27-1.46-9.69,4.73-10.74,7.75-2.02-2.44.78,1.67-2.25,5.5-10.64,5.41-19.33,3.06-26.23,17.49-1.15.27-2.51-5.78-3.25-7,1.31,1.62,1.79-3.94.75-5-.52-.54-13.02-6.53-13.74-3-8.29-4.51-15.29-7.57-23.24-13.49-15.12-11.27-34.79-34.9-44.22-51.22-17.43-30.15-6.4-37.73-41.72-41.22-21.96-2.17-48.65,1.74-67.46,13.99-11.45,7.46-25.44,23.86-33.23,35.23-17.86,26.08-22.25,49.2-23.98,51.47-.3.39-6.2,4.93-7.99,0-1.53-4.2,5.88-33.99,8.49-40.47l-8.49-6c.27-3.11,2.2-6.2,2.5-9.24,5.77,1.47,4.98-1.17,5.5-1.5,1.7-1.09,3.97-2.27,5.5-3.5,1.77,3.5,9.14-2.92,10.49-5.25.84-1.45,2.15-6.21,2.5-7.99,2.37-12-3.68-16.45,11.74-15.24,6.34-3.09,12.37-6.95,18.99-9.49,9.84-3.78,32-6.59,27.73-12.49,6.7-1.73,15.99-2.33,20.24-3.5,18.95-5.18,13.16-16.71,19.24-22.49-.69,3.21,18.05-1.82,24.73-3,8.48-1.61,29.89.55,30.73-.75.1-.16.18-2.79.5-3.75,4.46-.5,10.43-2.65,14.74-3,20.37-1.62,40.99,5.36,58.21,15.49Z"/>
            <path class="cls-2" d="M321.32,216.51c-1.08,4-9.84-1.44-14.24-4-9.87-5.72-14.24-10.62-20.74-19.74-.05-.06.76-.37.5-1.5-12.74-11.21-21.57-44.02-29.48-57.46-6.56-11.15-15.15-12.98-13.99-17.24,24.9,13.19,23.49,45.05,46.47,74.7,7.38,9.52,20.19,20.98,31.48,25.23Z"/>
            <path class="cls-2" d="M323.82,217.51c1.89.55,3.92.76,5.75,1.5,16.24-.72,28.45-.92,38.73-15.24,8.79-12.24,10.57-25.9,11.99-40.22.24-2.42-1.09-3.13,1.25-3,.23.01,2.94,1.21,3.25,3.25.68,4.44-5.32,32.41-10.99,41.47-9.44,15.09-34.51,19.78-44.72,16.74-1.66-.49-3.16-3.28-3.5-3.5-.13-.08-1.95,1.86-1.75-1Z"/>
            <g>
              <path class="cls-18" d="M380.28,163.55c-1.42,14.33-3.21,27.98-11.99,40.22-10.28,14.32-22.49,14.52-38.73,15.24-1.82-.74-3.85-.95-5.75-1.5-.78-.23-1.69-.69-2.5-1-11.29-4.26-24.1-15.71-31.48-25.23-22.98-29.66-21.57-61.51-46.47-74.7-3.07-1.62-7.46-3.57-10.74-4.5-25.4-7.14-37.57,1.04-5.5-12.99l3.5-1c36.77,1.44,51.45-20.34,93.94,5,31.2,18.6,28.82,40.51,42.97,51.97,4.36,3.53,12.06,5.82,12.74,8.49Z"/>
              <path class="cls-2" d="M279.59,94.59c7.36-1.04,21.52,1.99,28.73,5.25q-8.37,22.36-16.74,44.72c-4.78-16.55-11.09-33.12-15.49-49.47,2.96.32,3.32-.47,3.5-.5Z"/>
              <path class="cls-16" d="M278.84,117.58c1.62,5.08,11.94,36.94,11.99,38.98,0,.1-.9.67-.5,2-3.21-5.4-10.94-29.69-15.49-38.23-.52-2.09,2.21-2.82,4-2.75Z"/>
              <path class="cls-35" d="M307.08,184.03c.81-.06,9.04,10.5,4.5,10.49-.49,0-6.63-6.76-6.75-7.25-.1-.41,1.91-3.22,2.25-3.25Z"/>
              <path class="cls-24" d="M304.08,189.53c1.25.08,6.87,7.01,5.5,7.5l-5.5-7.5Z"/>
              <g>
                <path class="cls-16" d="M278.84,117.58c-1.79-.08-4.52.66-4,2.75,4.55,8.53,12.28,32.83,15.49,38.23.05.09.13,1.22.75,2,9.42-18.02,15.62-38.04,21.24-57.71l11.24,5.25.25-1c28.17,15.9,29.64,38.34,37.98,47.97-.79,3.82,10.19,10.89,14.49,13.49,1.01,11.89-7.26,32.44-16.74,39.97-11.31,8.99-19.77,4.58-26.98,7.99-21.55-3.19-37.03-20.79-48.22-38.23l20.24,1.75.75.75-5.5,9.49,9.74,10.24,6.25-8.24-6.5-9.99c2.88-3.06,18.93-27.73,18.99-29.48.03-.86-2.81-2.23-3-2.25-1.58-.15-1.06,1.31-1.5,2-1.86,2.92-13.43,23.47-14.74,23.98-7.54-.67-23.34.11-28.23-6.25-3.51-4.56-11.9-33.61-21.49-45.22,3.78-1.51-13.07-13.18-13.49-10.99-7.55-4.04-15.93-5.78-24.23-7.5,7.34-7.5,20.13-4.34,30.48-6,2.82-.45,18.18-5.62,19.49-5,2.85,7.19,4.91,14.63,7.25,21.99Z"/>
                <g>
                  <path class="cls-15" d="M323.82,107.08l-.25,1-11.24-5.25c-5.62,19.67-11.82,39.69-21.24,57.71-.62-.78-.7-1.91-.75-2-.4-1.33.5-1.9.5-2,0,.62.6.76,1,.25,3.45-4.36,17.21-45.73,19.99-54.97.82-.76,10.57,4.44,11.99,5.25Z"/>
                  <path class="cls-17" d="M376.28,168.54c-4.3-2.6-15.28-9.67-14.49-13.49,2.85,3.3,10.08,7.5,14.24,9.49.55.91.15,2.83.25,4Z"/>
                  <path class="cls-17" d="M259.36,125.07c-3.47-4.2-8.72-8.44-13.49-10.99.42-2.19,17.28,9.48,13.49,10.99Z"/>
                  <path class="cls-29" d="M325.31,150.56l-1.5,2c.44-.69-.08-2.15,1.5-2Z"/>
                  <path class="cls-18" d="M318.07,172.04c1.56,0,6.09,20.76,9.24,29.73,2.06,5.85,7.92,13.45,3.25,13.24-2.89-.13-14.98-37.61-14.74-39.72.02-.2,2.05-3.25,2.25-3.25Z"/>
                  <path class="cls-15" d="M329.31,193.53c5.99,2.42,30.54,4.35,32.48-2,0,.08,1.32-.47,1,1.25-2.74,8.22-34.78,6-33.48.75Z"/>
                  <g>
                    <path class="cls-18" d="M361.79,191.53c-1.94,6.35-26.49,4.41-32.48,2-.18-2.97,14.2-54.23,15.99-57.21.32-.54,1.3-1.15,1.75-1.75,4.8,12.47,13.26,45.19,14.74,56.96Z"/>
                    <path class="cls-2" d="M346.55,143.06c1.34,5.67,11.35,43.45,10.74,45.72-.91,3.39-18.98,1.05-22.74,1.75-.95-.65-.75-1.27-.75-2.25.01-2.35,11.38-38.3,12.74-45.22Z"/>
                  </g>
                </g>
              </g>
            </g>
          </g>
        </g>
      </g>
    </g>
  </g>
</svg>