<?xml version="1.0" encoding="UTF-8"?>
<svg id="Layer_2" data-name="Layer 2" xmlns="http://www.w3.org/2000/svg" viewBox="0 0 54.09 54.09">
  <g id="Layer_1-2" data-name="Layer 1">
    <g>
      <circle cx="27.05" cy="27.05" r="27.05" fill="#1e2323" stroke-width="0"/>
      <g>
        <path d="M44.6,8.18c-.11.28-.78-.06-1.03,0-.04,0-.38.39-.62.44-.66.13-2.87-.74-3.75-.87-.08.02-.49.98-.47,1.09.05.25,2.53,1.61-.12,3.09-8.3-6.26-19.9-4.81-26.46,3.19-2.03-1.45-4.47-2.03-6.93-1.69-.12-.08.83-1.39.97-1.59C14.9-.41,33.03-2.73,44.6,8.18Z" fill="#1a6f59" stroke-width="0"/>
        <path d="M5.65,13.87c1.87-.16,4.57.51,6.03,1.78-4.92,6.71-4.97,16.17.12,22.8-1.93,1.45-4.49,1.98-6.87,1.69C.02,32.28.03,21.9,4.77,13.99c.29-.02.59-.1.87-.12Z" fill="#313b36" stroke-width="0"/>
        <path d="M47.25,13.87c.38-.02,1.73-.02,2,.12,4.74,8.14,5.02,18.15-.12,26.18-2.36.12-4.83-.21-6.78-1.66,5.06-6.58,5.12-16.25,0-22.8,1.25-1.05,3.3-1.74,4.9-1.84Z" fill="#313b36" stroke-width="0"/>
        <g>
          <path d="M17.05,50.79c-.73-2.54,1.51-2.03,1.12-4.03-.03-.16-.19-.45-.37-.5l.12-2.47c7.93,4.42,18.42,2.34,24.02-4.81,2.18,1.57,4.27,1.87,6.9,1.72-6.78,10.84-19.96,15.14-31.8,10.09Z" fill="#135241" stroke-width="0"/>
          <path d="M17.92,43.79l-.12,2.47c.19.05.34.34.37.5.38,2-1.86,1.49-1.12,4.03-5.12-2.19-8.64-5.37-11.68-10.03,2.39.12,4.97-.23,6.84-1.84,1.57,1.96,3.53,3.65,5.72,4.87Z" fill="#1a6f59" stroke-width="0"/>
        </g>
        <path d="M44.6,8.18c1.64,1.54,3.06,3.25,4.22,5.19-2.4-.23-4.96.27-6.87,1.81-1.01-1.18-2.1-2.31-3.34-3.25,2.66-1.49.18-2.84.12-3.09-.02-.11.39-1.07.47-1.09.87.14,3.08,1,3.75.87.24-.05.59-.43.62-.44.25-.06.92.28,1.03,0Z" fill="#135241" stroke-width="0"/>
        <g>
          <path d="M26.14,8.49c7.37-.33,14.64,3.98,17.71,10.71,4.2,9.2.34,20.38-8.9,24.64-13.6,6.28-28.51-4.99-26.14-20.02,1.33-8.43,8.85-14.96,17.34-15.34Z" fill="#e7e8d6" stroke-width="0"/>
          <g>
            <path d="M26.01,11.55c10.91-.6,18.89,9.37,15.96,19.9-2.97,10.68-16.43,14.57-24.89,7.59-10.5-8.66-5.29-26.71,8.93-27.49Z" fill="#151815" stroke-width="0"/>
            <path d="M26.01,12.87c12.56-.79,19.6,13.53,12.21,22.96-6.08,7.76-18.48,7.01-23.43-1.56-5.28-9.16.83-20.75,11.21-21.4Z" fill="#e5e9e3" stroke-width="0"/>
          </g>
          <g>
            <g>
              <path d="M17.75,20.79c.03.07.06.15.1.22.09.58-.09.35-.12.45,0,.03.08.48-.06.57-.38-.46-.48-.09-.74-.18.19-.51.48-.52.2-1.05.03-.12.32.17.4.16.01,0,.09-.08.23-.17Z" fill="#e8b460" stroke-width="0"/>
              <g>
                <path d="M18.61,20.23c.06.13.11.26.17.39-.12,0,.02.06.02.11.02.16-.23.03-.22.2,0,.04.27.24.37.68.03.14.11.87.05.95-.25.34-.38-.36-.49-.56-.19-.36-.52-.76-.66-.99-.04-.07-.07-.15-.1-.22.04-.03.01-.1.09-.1l.31.27c.45.54.49.71.66,1.4.12-.66-.26-1.23-.73-1.65.15.08.18.04.33.05.14-.01.12-.53.04-.55-.03-.13.06-.08.07-.18.03.07.07.13.1.2Z" fill="#dfe2df" stroke-width="0"/>
                <path d="M18.07,20.72c.47.42.85.99.73,1.65-.17-.7-.21-.87-.66-1.4-.15-.18-.33-.33-.49-.5l.04-.04c.12.08.26.23.38.29Z" fill="#1d1815" stroke-width="0"/>
              </g>
            </g>
            <g>
              <path d="M36.24,23.94c-.35-.08-.29-.19-.59-.39.03-.04.11-.07.13-.15l.45.54Z" fill="#dfe2df" stroke-width="0"/>
              <g>
                <path d="M36.24,23.94c.06.01.25-.02.31.02.16.13-.25.29.51.12.11.17.36.38.29.42-.34-.14-.67.33-.62.16.03-.13.54-.28-.13-.09-.29-.14-.4-.26-.73-.15-.01,0,.09-.24.09-.26-.04-.22-.54.27-.51-.12,0-.03.2-.48.22-.5.29.2.23.31.59.39Z" fill="#e8b460" stroke-width="0"/>
                <path d="M36.65,24.04s.05,0,.02.05c-.03.06-.06-.03-.02-.05Z" fill="#b09158" stroke-width="0"/>
              </g>
            </g>
            <g>
              <path d="M19.46,19.3s-.02-.03-.02-.05c-.16-.41-.39-.8-.56-1.21-.03-.03-.04.08-.05.09-.13.21-.23.5-.32.73-.05.07-.27.5-.27.53,0,.02.11.25.15.35-.12.49-.06.21-.37-.35.38-.46.67-1.35.79-1.94.07-.05.13.37.26.67.15.37.38.75.54,1.12-.02.09-.1.02-.15.06Z" fill="#dfe2df" stroke-width="0"/>
              <path d="M19.24,20.35c-.05.41-.45.84-.37.44.03-.12.23-.48.29-.64,0,.01.08.13.07.2Z" fill="#dfe2df" stroke-width="0"/>
              <path d="M19.54,19.67c-.15-.02-.03.18-.05.33,0,.04-.15.34-.22.26,0-.11-.02-.21-.02-.32,0,0,.01.01.02-.02.05-.14.1-.28.16-.42.02,0,.06.09.11.17Z" fill="#dfe2df" stroke-width="0"/>
              <g>
                <path d="M19.44,19.25s.02.03.02.05c-.02.02-.24.55-.2.61-.01.03-.02.02-.02.02-.02.05-.09.07-.07.22-.07.16-.27.52-.29.64-.04-.05-.07-.11-.1-.17-.06-.13-.11-.26-.17-.39-.3-.97-.4-.57-.1-1.37.09-.23.19-.52.32-.73.26.31.35.78.61,1.12Z" fill="#f4832b" stroke-width="0"/>
                <path d="M18.61,20.23c-.03-.07-.07-.13-.1-.2-.04-.1-.09-.2-.12-.29-.04-.1-.15-.33-.15-.35,0-.03.22-.46.27-.53-.3.8-.2.4.1,1.37Z" fill="#8c4b1e" stroke-width="0"/>
                <path d="M19.54,19.67c-.05-.08-.09-.18-.11-.17-.06.13-.11.28-.16.42-.04-.06.17-.59.2-.61.03.09.25.68.07.37Z" fill="#433b25" stroke-width="0"/>
                <path d="M19.27,20.25c0,.13-.02.09-.02.1,0-.07-.07-.19-.07-.2-.02-.15.06-.17.07-.22,0,.11.03.21.02.32Z" fill="#36230e" stroke-width="0"/>
                <path d="M19.44,19.25c-.26-.34-.35-.82-.61-1.12,0,0,.02-.11.05-.09.17.41.4.79.56,1.21Z" fill="#8c4b1e" stroke-width="0"/>
              </g>
            </g>
            <g>
              <path d="M35.66,19.79s0-.02,0-.02c.04-.13.16-.27.15-.4,0-.07-.52-1.07-.56-1.32h-.05l-.37.82c-.05-.08-.1-.08-.1-.09,0-.07.47-1.07.46-1.27l.07-.02c-.03.44.78,1.87.78,1.98,0,.11-.24.4-.39.33Z" fill="#dfe2df" stroke-width="0"/>
              <path d="M34.78,19.74l.05.56v.02c-.16-.17-.32-.37-.32-.61.07-.07.12-.15.15-.24.06.08.09.18.12.27Z" fill="#dfe2df" stroke-width="0"/>
              <path d="M34.85,20.38c-.03.06-.02-.04-.02-.05v-.02h.02s0,.05,0,.07Z" fill="#726f67" stroke-width="0"/>
              <g>
                <path d="M35.63,19.74c-.02.09-.05.18-.07.27-.02.07-.05.15-.07.22-.07.21-.17.42-.23.64-.1-.26-.25-.5-.35-.76-.05-.11-.07-.25-.12-.37-.04-.09-.06-.19-.12-.27.02-.07.03-.11-.02-.17.05-.15.13-.27.2-.42.56-1.15.3-.73.9.4l.02.12c-.04.11-.09.21-.12.33Z" fill="#f4832b" stroke-width="0"/>
                <path d="M35.66,19.77l-.02-.02c.03-.11.08-.22.12-.33l-.02-.12c-.61-1.13-.35-1.56-.9-.4v-.02l.37-.82h.05c.05.25.56,1.25.56,1.32.01.14-.11.28-.15.4Z" fill="#8c4b1e" stroke-width="0"/>
                <path d="M34.66,19.47c-.03.09-.08.18-.15.24,0-.11.08-.3.12-.42.06.06.04.1.02.17Z" fill="#4d361a" stroke-width="0"/>
                <path d="M35.66,19.77s0,.02,0,.02c-.03.11.1.19-.1.22.03-.08.05-.18.07-.27l.02.02Z" fill="#311308" stroke-width="0"/>
                <path d="M34.9,20.11c-.01.07-.04.13-.05.2h-.02l-.05-.56c.05.12.08.25.12.37Z" fill="#2f2516" stroke-width="0"/>
              </g>
            </g>
            <g>
              <path d="M18.71,23.99c-.33.28-.97.38-1.29.61.06-.3-.36-.24-.29-.39.4.13.44.07.83-.24.04,0,.11,0,.13,0,.04-.02.3-.43.37-.42.07.05.24.42.26.44Z" fill="#e8b460" stroke-width="0"/>
              <path d="M17.12,24.21c-.07.15.35.09.29.39-.07.05.01.07-.12.1,0-.08-.07-.12-.12-.17-.11-.11-.19-.15-.32-.22.02-.02.1-.13.12-.15.07,0,.14.05.15.05Z" fill="#e6c681" stroke-width="0"/>
              <path d="M17.17,24.53c-.51-.12-.44-.04-.32-.22.13.07.21.11.32.22Z" fill="#e8b460" stroke-width="0"/>
              <g>
                <path d="M17.95,23.97c-.39.32-.43.38-.83.24,0,0-.07-.06-.15-.05.21-.18.14.13.5-.2.15.03.28.04.48,0Z" fill="#d99e46" stroke-width="0"/>
                <path d="M17.67,24.04c.19,0-.24.16-.33.13.05-.04.31-.13.33-.13Z" fill="#f6e5c0" stroke-width="0"/>
              </g>
            </g>
            <g>
              <path d="M35.68,33.03c0,.18-.43,0-.45.22-1.8.15-3.61.11-5.42.12-1.08.23-1.7,1.08-2.59,1.66-.02.65-.3.7-.32.05-2.34-1.99-1.94-1.71-4.96-1.69-.97-.06-1.94-.03-2.91-.1-.15-.01-.72-.04-.76-.05-.02,0,0-.07-.02-.07-.2.06-.07,0-.27-.07-.14-.05-.26.02-.23-.1,1.08.04,2.16.07,3.24.1.71.02,3.27,0,3.52.02.56.07,1.97,1.42,2.52,1.81.39-.24,2.13-1.76,2.39-1.81,2.09.03,4.18-.03,6.26-.1Z" fill="#dfe2df" stroke-width="0"/>
              <path d="M17.8,28.39c-.22.21-1.05-.59-1.05-.67,0-.01.07-.03.07-.13.24.3.64.62.98.81Z" fill="#dfe2df" stroke-width="0"/>
              <g>
                <path d="M21.05,20.18c-1.04,1.29-1.69,2.99-2.03,4.6-.57.14-2.97.67-2.86,1.47.03.23,1.32,1.54,1.58,1.75.71.59,1.6.93,1.67,1-.07.05-.04.09-.06.1-.06.02-.09-.03-.15-.02l-.95-.54c-.18-.08-.17.04-.28-.07,0-.03-.03-.04-.05-.05-.25-.17-1.23-1.14-1.44-1.39,0-.02-.02-.05-.05-.05-.2-.45-.7-.6-.34-1.14.18-.28,1.2-.76,1.22-.83.02-.05-.13-.28-.09-.33,0,0,.02.03.06.02.13-.03.05-.05.12-.1.32-.23.97-.33,1.29-.61,0,0,.1,0,.13.05.03-.12.12-.04.18-.11.3-.95.62-1.9,1.12-2.76.08-.13.69-1.05.77-1.06.09-.02.07.09.13.07Z" fill="#dfe2df" stroke-width="0"/>
                <path d="M17.92,28.41v.02s-.05,0-.12-.05c-.34-.19-.73-.51-.98-.81-.14-.17-.27-.35-.34-.56.21.25,1.19,1.23,1.44,1.39Z" fill="#121816" stroke-width="0"/>
                <path d="M17.97,28.46c-.06,0-.05-.02-.05-.02v-.02s.05.02.05.05Z" fill="#726f67" stroke-width="0"/>
                <path d="M16.48,27.02s-.06.02-.05-.05c.03,0,.04.03.05.05Z" fill="#726f67" stroke-width="0"/>
                <path d="M18.4,24.26c.12-.02-.17.16-.27.24-1.33.83.11-.22.27-.24Z" fill="#908667" stroke-width="0"/>
              </g>
              <g>
                <path d="M32.04,19.33c.04.06.11.11.02.1-.9-.71-4.04-1.97-5.14-1.88-.25.02-.52.14-.55.15-1.01.18-2.14.35-3,.95.02-.11-.05-.05-.07-.1,2.24-1.32,4.51-1.48,6.9-.42.39.18,1.61.89,1.84,1.2Z" fill="#d8e9e9" stroke-width="0"/>
                <path d="M33.8,22.21c.13.54.27,1.39.32,1.51.03.08.14.22.2.29,0,.05-.02.06-.02.07-.53-.03-.52-.96-.54-1.4,0-.23-.02-.51.05-.48Z" fill="#7dd4c0" stroke-width="0"/>
                <path d="M23.98,22.04c-.33-.12-.83-.14-1.14-.27-.44-.19.05-.08.56-.02-.38-.39-.77-.25-1.2-.49l-.17.27c.39.02.29.27.49.37.11.05.89.13.93.17.03.03-.14.12-.1.2.47.03.94.12,1.39.24-.13-.1-.49-.34-.6-.39.15,0,1,.36,1.03.4.04.06.05.48-.04.5-.08.02-1.17-.73-1.47-.59.55.61,1.33.93,2.03,1.34.49.09.98.17,1.48.24.15.02.31.08.46.05.02.02.1.02.06.05-.96,0-1.76-.1-2.64-.51-.19-.09-1.33-.7-1.61-.85-.6-.33-1.18-.7-1.78-1.03-.02-.04.37-.66.51-.66.1,0,1.71.71,1.8.98Z" fill="#121816" stroke-width="0"/>
                <path d="M24.4,19.96c1.08,1.65,1.49,1.5,2.81,2.66l-.15.05c-1.11-1.12-1.73-.86-2.81-2.75-.08-.14-.14-.39-.16-.4-.28-.28.19.86.53,1.21-.41-.27-.59-.62-.72-1.09-.1-.03-.18.55-.04.81,0,0-.02,0-.02,0-.04,0-.41-.23-.27.23,0,.02.12.1.12.12.06.21-.11.32.39.62-.04.14.11.08.12.2-.12-.06-.28-.17-.4-.22-.4-.15-1.23-.3-1.76-.56-.51.57-.86,1.32-1.58,1.66.18-.16,1.12-1.46,1.39-1.78.21-.05.42.11.62.17.11.03.89.27.93.24-.32-.52.13-1.64.42-1.69.37-.05.38.21.57.51Z" fill="#121816" stroke-width="0"/>
                <path d="M27.06,22.67l.15-.05.1.05c.07.09.05.12.07.15,0,0,.07.04.07.05.27.34.52.69.78,1.04-.48.07-.67-.15-1-.46-.22-.2-1.04-1.24-1.07-.98-.01.09,1.05,1.13,1.2,1.28-.03.02-.09.04-.1.05-.29-.25-.6-.5-.85-.78-.22-.23-.37-.54-.61-.76-.17-.11-.69-.2-.94-.29-.23-.09-.43-.24-.65-.34,0-.11-.16-.06-.12-.2.13.08.48.22.64.28-1.04-.8-.46-.75-.88-1.26,0,0,.02,0,.02,0,.09,0,.05-.01.11-.07.12.01.35.94,1.2,1.47.26.16.4.16.61.24.17.07.29.29.59.17.16.12,1.43,1.84,1.65,1.55-.32-.37-.6-.78-.95-1.14Z" fill="#121816" stroke-width="0"/>
                <path d="M33.34,22.53l-.02-.02c.04-.41.07-1.1-.12-1.48-.11-.21-.2,0-.2.05,0,.08.33.6.15,1.48,0-.46-.05-.94-.22-1.38l-.04-.04-.31.33c.08.6.13,1.19.15,1.8,0,0,0,.13-.05-.06-.11-.45-.11-1.11-.23-1.58l-.33.35c-.02,1.03.06,1.8-.23.26-.44.43-.26.38-.31.79-.02.2-.09.99-.15.32-.01-.18.02-.49,0-.6-.03-.14-.23.3-.15-.07.62-.65,1.19-1.35,1.83-1.98.38.73.36,1.03.22,1.83Z" fill="#121816" stroke-width="0"/>
                <path d="M23.98,22.04c.05.02.12.05.17.07.11.05.47.3.6.39-.46-.13-.92-.22-1.39-.24-.04-.08.13-.17.1-.2-.04-.04-.82-.12-.93-.17-.2-.1-.09-.35-.49-.37l.17-.27c.43.24.82.1,1.2.49-.51-.06-1-.17-.56.02.31.13.81.15,1.14.27Z" fill="#dfe2df" stroke-width="0"/>
                <path d="M33.14,22.55c0,.17-.05.11-.05.12l-.2-.31.12.92c-.12.02-.18.02-.29-.02-.01-.6-.07-1.2-.15-1.8l.31-.33.04.04c.17.44.22.92.22,1.38Z" fill="#dfe2df" stroke-width="0"/>
                <path d="M33.09,22.67c0,.09-.05.58-.07.61l-.12-.92.2.31Z" fill="#121816" stroke-width="0"/>
                <g>
                  <path d="M35.93,24.5c.26.05.47.28.71.39,0,0-.03.04.06.12.21.19,1.38.56,1.43,1.06.02.25-.28.64-.44.84-.29.37-1.04,1.12-1.42,1.42-.07.05-.07.05-.09.15-.46.07-1.32.8-1.58.61.04-.11,1.06-.6,1.26-.73.42-.28,2.09-1.76,2.04-2.23-.08-.68-2.3-1.22-2.88-1.32-.09-1.28-.78-3.02-1.58-4.04-.01.01-.04.03-.04.04-.03.14,1.08,2.01,1.07,2.59,0,.1-.14.47-.17.62-.06-.08-.16-.21-.2-.29,0-.85-.23-1.69-.55-2.47.04.31.16.64.23.95-.07-.03-.06.24-.05.48.01.45,0,1.37.54,1.4,0,.05-.08.39-.01.39.37-.92.26-.72.15.27-3.14-.45-6.37-.5-9.51-.53.03-.05.17-.07.17-.12,0-.2-3-1.99-3.41-2.16-.2,0-1.92,1.41-2.04,1.65-.08.14-.02.22-.02.23-.05.29-.1.6,0,.88-.06,0-.3.07-.33.05.28-1.82,1.12-3.6,2.41-4.93-.38.55-.86,1.04-1.2,1.62-.12.2-.57,1.02-.44,1.18.11.14.31-.03.42-.12.71-.34,1.07-1.09,1.58-1.66.53.26,1.36.41,1.76.56.12.05.28.16.4.22.22.1.42.25.65.34.25.1.77.18.94.29-.21-.02-.05.18.17.45.12.15.39.5.44.31.26.28.57.53.85.78-.02.02-.09.17-.07.22-.49-.08-.99-.16-1.48-.24-.7-.41-1.47-.73-2.03-1.34.29-.14,1.39.6,1.47.59.08-.02.07-.44.04-.5-.03-.05-.87-.4-1.03-.4-.05-.02-.12-.05-.17-.07-.08-.26-1.69-.98-1.8-.98-.14,0-.53.62-.51.66.6.33,1.18.7,1.78,1.03.28.15,1.42.76,1.61.85.87.41,1.68.51,2.64.51.04-.03-.04-.03-.06-.05-.09-.12-.19-.21-.29-.32-.15-.15-1.21-1.2-1.2-1.28.04-.27.86.77,1.07.98.33.31.52.54,1,.46-.26-.34-.51-.7-.78-1.04v-.02c.16.12.35.2.5.34.4.37.42.73,1.27.98l-.74-.72c.4-.56.33-.2,1.11.33.98.67-.42-.51-.56-.73l-.23-.06c.54-.64.32.09.94-.21l.24.61c.05-.45-.37-1.08.23-.39.06.07.29.4.33.42.28.09.66-.51.89-.66.02.11-.01.42,0,.6.06.67.12-.12.15-.32.05-.42-.14-.36.31-.79.29,1.54.21.77.23-.26l.33-.35c.12.46.13,1.13.23,1.58.05.19.04.06.05.06.11.05.17.04.29.02.03-.03.06-.52.07-.61,0,0,.05.05.05-.12.18-.87-.14-1.4-.15-1.48,0-.05.09-.25.2-.05.19.37.16,1.07.12,1.48-.02.2-.02.27.02.02.14-.81.16-1.1-.22-1.83-.04-.07-.08-.13-.12-.2-.24-.39-.57-.79-.93-1.07.09,0,.02-.04-.02-.1.24.17.45.39.66.6.06.06.7.89.73.59,0-.08-.99-1.13-1.14-1.26-3-2.7-7.46-2.66-10.44.05-.33.03.18-.38.48-.61,1.33-1.03,3.45-1.73,5.13-1.64,2.48.14,4.94,1.58,6.26,3.68.87,1.37.9,1.9,1.39,3.08.05.13.16.27.17.29.02.05-.03.16.12.22l-.02.17c.18.06.37,0,.54.01Z" fill="#dfe2df" stroke-width="0"/>
                  <g>
                    <path d="M36.63,24.9c-.24-.12-.45-.34-.71-.39,0,0,.08-.05.11-.02.23.1.41.26.6.42Z" fill="#908667" stroke-width="0"/>
                    <g>
                      <path d="M30.31,22.94l-.1.05c-.6-.69-.18-.05-.23.39l-.24-.61c-.62.3-.4-.44-.94.21l.23.06c.14.22,1.54,1.4.56.73-.78-.53-.71-.89-1.11-.33l.74.72c-.85-.25-.87-.61-1.27-.98-.15-.14-.34-.22-.5-.34,0,0-.04-.1-.07-.02-.02-.03,0-.06-.07-.15.36.16.68.4.99.64.11,0,.59-.76.95-.76.14,0-.03.25.32.17.08-.02.14-.16.24-.17.25-.03.37.24.5.39Z" fill="#121816" stroke-width="0"/>
                      <path d="M34.12,23.72c-.05-.13-.19-.98-.32-1.51-.08-.32-.19-.64-.23-.95.32.78.55,1.62.55,2.47Z" fill="#121816" stroke-width="0"/>
                      <path d="M25.46,23.19c.5-.09.49.24.96.6-.39-.12-.73-.36-1.07-.56.06,0,.1-.04.11-.04Z" fill="#07260b" stroke-width="0"/>
                      <path d="M25.79,22.26c.24.22.39.52.61.76-.05.2-.32-.16-.44-.31-.22-.27-.38-.48-.17-.45Z" fill="#dfe2df" stroke-width="0"/>
                      <path d="M27.65,24.06c-.15.03-.31-.03-.46-.05-.02-.05.05-.2.07-.22,0,0,.07-.03.1-.05.1.11.2.2.29.32Z" fill="#38bfa1" stroke-width="0"/>
                      <path d="M33.34,22.53c-.04.25-.04.17-.02-.02l.02.02Z" fill="#8e9c98" stroke-width="0"/>
                    </g>
                  </g>
                </g>
                <path d="M27.45,22.84v.02s-.07-.04-.07-.05c.03-.07.07.02.07.02Z" fill="#888988" stroke-width="0"/>
                <g>
                  <path d="M23.37,18.64s-.08.1-.15.12c-.04-.02-.02-.09-.06-.1-.05,0-.69.53-.76.54-.02,0-.01-.03-.01-.05.29-.23.59-.43.9-.61.02.05.09-.01.07.1Z" fill="#9de7d5" stroke-width="0"/>
                  <path d="M32.99,20.5c.04.07.08.12.12.2-.64.63-1.21,1.33-1.83,1.98-.78.81-.57.71-.98.27-.13-.15-.26-.42-.5-.39-.1.01-.16.15-.24.17-.35.08-.18-.17-.32-.17-.37,0-.84.76-.95.76-.31-.24-.63-.48-.99-.64l-.1-.05c-1.32-1.16-1.73-1.02-2.81-2.66.03-.01.05-.04.09-.02.15.05,2,1.79,2.39,2.08.15.11,1.27.8,1.34.81,1.12-.57,1.42-.91,2.52,0,.7-.83,1.49-1.56,2.26-2.32Z" fill="#29aa8b" stroke-width="0"/>
                  <path d="M21.86,20.72c-.27.33-1.21,1.62-1.39,1.78-.11.09-.3.26-.42.12.18-.28,1.65-1.87,1.81-1.91Z" fill="#7dd4c0" stroke-width="0"/>
                  <path d="M31.43,22.75c-.23.15-.61.75-.89.66-.04-.01-.27-.35-.33-.42l.1-.05c.41.45.2.54.98-.27-.08.38.12-.06.15.07Z" fill="#082116" stroke-width="0"/>
                  <path d="M26.38,17.69c0,.06-.04.14-.05.2,0,.02,0,.03,0,.05-1.01-.02-2.12.57-2.82.78-.06.02-.23.08-.28.05.06-.02.13-.11.15-.12.86-.61,1.99-.77,3-.95Z" fill="#121816" stroke-width="0"/>
                  <g>
                    <path d="M32.07,19.42c.36.28.69.68.93,1.07-.77.76-1.56,1.49-2.26,2.32-1.1-.91-1.39-.57-2.52,0-.08,0-1.2-.7-1.34-.81-.39-.28-2.24-2.03-2.39-2.08-.04-.01-.06.01-.09.02-.19-.3-.21-.57-.57-.51-.29.04-.73,1.16-.42,1.69-.04.02-.81-.21-.93-.24-.2-.06-.41-.22-.62-.17-.16.04-1.63,1.62-1.81,1.91-.13-.16.32-.98.44-1.18.34-.58.82-1.07,1.2-1.62.27-.29.39-.41.71-.66,0,.02,0,.05.01.05.07,0,.71-.55.76-.54.04,0,.02.07.06.1.05.04.22-.03.28-.05.7-.22,1.81-.8,2.82-.78.26,0,.26.01,0-.05,0-.06.04-.13.05-.2.03,0,.3-.13.55-.15,1.1-.08,4.24,1.17,5.14,1.88Z" fill="#38bfa1" stroke-width="0"/>
                    <g>
                      <path d="M23.65,19.42s.03,0,.04.01c-.11.04-1.27.78-1.29.71.18-.11,1.17-.72,1.26-.72Z" fill="#7dd4c0" stroke-width="0"/>
                      <g>
                        <path d="M27.5,19.42c.4-.51.24-.99-.1-1.47-.17-.25-.23-.34.11-.07.85.67.31,2.09-.77,2.02.33-.1.54-.2.76-.48Z" fill="#121816" stroke-width="0"/>
                        <path d="M27.21,18.35c.22.11,0,.35-.17.23.17.23.4-.06.24-.26.43-.03-.06.85-.32.29-.01-.03.04-.34-.17-.24.06-.24.23.08.28.07,0,0,.05-.07.13-.1Z" fill="#d9f0e1" stroke-width="0"/>
                        <path d="M26.23,18.11v.02c-.49.27-.39,1.31.12,1.51.13.12.52.38-.01.1-.65-.34-.62-1.42-.11-1.64Z" fill="#121816" stroke-width="0"/>
                        <path d="M26.18,18.25c-.32.5-.27.98.17,1.39-.51-.2-.61-1.25-.12-1.51.12-.04,0,.05-.05.12Z" fill="#d8e9e9" stroke-width="0"/>
                        <path d="M27.5,19.42c.13-.31.22-.63.1-.95-.01-.19-.11-.26-.12-.27.01-.06-.05-.07-.05-.07-.03-.05-.06-.1-.1-.15l.07-.02c.34.48.5.96.1,1.47Z" fill="#d9f0e1" stroke-width="0"/>
                        <path d="M26.74,18.72s.03,0,.02.02c-.36.27-.69-.33-.42-.64-.12.56.29.57.39.61Z" fill="#d9f0e1" stroke-width="0"/>
                        <path d="M26.94,18.62c-.03.19-.33.51-.54.39.19,0,.3-.09.37-.27.08-.22,0-.36.09-.37.07,0,.09.19.09.24Z" fill="#d9f0e1" stroke-width="0"/>
                        <path d="M26.73,19.42c.26-.04.24.21,0,.24-.37.05-.13-.22,0-.24Z" fill="#d9f0e1" stroke-width="0"/>
                        <path d="M26.35,18.11c-.28.3.05.9.42.64-.07.18-.18.26-.37.27-.14-.08.13,0,.24-.13-.4-.09-.44-.24-.42-.64h-.05c.05-.06.17-.15.05-.11v-.02s.09-.06.13-.05v.05Z" fill="#13644e" stroke-width="0"/>
                        <path d="M26.96,18.62h-.02c0-.05-.02-.25-.09-.24-.09,0,0,.14-.09.37,0-.03-.02-.02-.02-.02.03-.12.02-.22.05-.34.21-.09.16.21.17.24Z" fill="#13644e" stroke-width="0"/>
                        <path d="M27.28,18.33c.16.2-.07.48-.24.26.18.12.39-.12.17-.23,0,0-.02-.02.07-.02Z" fill="#0f2c2a" stroke-width="0"/>
                        <path d="M27.33,17.98s.06.1.1.15c-.02-.03-.29-.22-.21-.27.04.03.07.08.11.12Z" fill="#13644e" stroke-width="0"/>
                        <path d="M26.33,17.93s0-.03,0-.05c.26.06.26.05,0,.05Z" fill="#13644e" stroke-width="0"/>
                        <path d="M27.6,18.47l-.12-.27s.11.08.12.27Z" fill="#087c63" stroke-width="0"/>
                        <path d="M27.47,18.2s-.04-.05-.05-.07c0,0,.06.01.05.07Z" fill="#13644e" stroke-width="0"/>
                      </g>
                    </g>
                  </g>
                </g>
                <g>
                  <path d="M21.91,23.21c.02.05.03.16.05.21,0,.02.05,0,.05.01.05.09.04.2.11.2.35-.25.45-.19-.04-.22-.1-.38-.3-.75-.32-1.15.14.06.33.22.44.32.5.44,1.14,1.39,1.23,1.42.02,0,.05,0,.06-.01,0-.02,0-.05,0-.07,0-.07-.85-.97-.9-1.07,0-.02,0-.04.02-.04.28.16.67.32.99.51.34.21,1,.67,1.27.95-1.77.01-3.51.24-5.26.44-.1-.28-.05-.59,0-.88.19-.12.39-.27.56-.42.51-.31.92-.75,1.37-1.15,0,0,.02-.05.04-.05.12.33.18.68.33,1Z" fill="#087c63" stroke-width="0"/>
                  <g>
                    <path d="M22.61,22.79s-.03.02-.02.04c.06.1.89,1.01.9,1.07,0,.02,0,.05,0,.07-.01.02-.04.02-.06.01-.09-.03-.74-.98-1.23-1.42-.16-.25.31.16.42.22Z" fill="#5c4c32" stroke-width="0"/>
                    <path d="M21.76,22.26c.02.4.21.77.32,1.15-.04,0-.05.02-.07.02,0,0-.04.01-.05-.01-.02-.05-.03-.16-.05-.21-.04-.11-.27-.87-.27-.92,0-.14.11-.04.12-.04Z" fill="#62613a" stroke-width="0"/>
                    <path d="M21.54,22.26c-.44.39-.86.83-1.37,1.15.31-.26,1.06-1.01,1.37-1.15Z" fill="#7dd4c0" stroke-width="0"/>
                    <path d="M21.72,23.23c.25,0-.43.42-.46.46-.5-.09-.48.13-.74.13.36-.37.52-.21.7-.26.1-.02.48-.34.51-.34Z" fill="#6c4d2f" stroke-width="0"/>
                    <path d="M22.46,23.41c.2-.06.88.75.84.79-.01.02-.07.02-.09.01-.05-.02-.66-.71-.76-.81Z" fill="#795a30" stroke-width="0"/>
                    <path d="M22.08,23.41c.48.03.39-.03.04.22-.07,0-.06-.1-.11-.2.03,0,.03-.03.07-.02Z" fill="#987f37" stroke-width="0"/>
                  </g>
                </g>
                <path d="M23.84,20.45c.42.51-.16.46.88,1.26-.16-.06-.51-.2-.64-.28-.5-.31-.33-.41-.39-.62,0-.02-.12-.1-.12-.12-.14-.46.23-.23.27-.23Z" fill="#fcfbfb" stroke-width="0"/>
                <g>
                  <path d="M27.06,22.67c.35.35.63.76.95,1.14-.22.29-1.49-1.43-1.65-1.55-.3.12-.41-.1-.59-.17-.21-.08-.35-.08-.61-.24-.84-.52-1.08-1.46-1.2-1.47-.06.06-.02.07-.11.07-.14-.25-.06-.84.04-.81.13.46.31.81.72,1.09-.33-.35-.81-1.49-.53-1.21.02.02.08.26.16.4,1.08,1.89,1.7,1.63,2.81,2.75Z" fill="#dfe2df" stroke-width="0"/>
                  <path d="M24.82,20.89c.12.07.78.82.61.88-.2.07-.59-.68-.61-.88Z" fill="#7dd4c0" stroke-width="0"/>
                </g>
              </g>
              <g>
                <path d="M36,30.71c.03.2-.24.24-.31.29-.52.43-.19.55-.38.77.34.15.38.03.4.04.77.08,1.55.23,2.32.32.17.08.39.32.35.5-.01.06-.53.52-.59.42,0-.03,0-.06,0-.09,0-.05.01-.48.02-.5.01-.03.45-.06.23-.18-.13-.07-2.55-.22-2.94-.55-.07-.54.37-.95.88-1.01Z" fill="#dfe2df" stroke-width="0"/>
                <path d="M38,30.68c.42-.25-.66-1.69-1.01-1.61-.06.01-.67.71-.88.83-.06,0,0-.47.01-.68.22,0,.31.14.38.12.04,0,.34-.42.42-.49.19-.05.9.61,1.04.79.7.93.25,1.76.05,1.04Z" fill="#dfe2df" stroke-width="0"/>
                <path d="M17.66,29.58c-.56-.53-.44-.7-.92-.29-.25.21-.76.93-.7,1.26.05.23.41.15.68.16.05.13-.33.06-.43.1-.03.01-.29.41-.43-.01-.23-.7.75-1.62,1.26-2.02.05.11.63.7.62.74,0,.02-.08.05-.1.06Z" fill="#dfe2df" stroke-width="0"/>
                <path d="M18.66,31.83c-.38.12-.79.21-1.18.27-.2.03-1.36.11-1.42.15-.02.02-.03.15.02.17.17.07.27-.24.23.5.03.06.14.03.2.04-.22.53-.94-.57-.5-.81.1-.05,1.85-.28,2.12-.32.17-.02.36.03.53,0Z" fill="#dfe2df" stroke-width="0"/>
                <path d="M18.88,29.58c.09.11.47.78.21.83-.12.03-.92-1.09-1.05-1.25-.06.13.06.68-.02.73-.04,0-.03-.02-.04-.02.11-.75-.08-.62-.1-.65,0-.01-.02-.23.11-.26.25-.04.81,1.05.89.61Z" fill="#dfe2df" stroke-width="0"/>
                <path d="M36.12,29.17c-.11.17-1.1,1.31-1.18,1.29-.22-.05.27-.77.31-.88.22-.15.22-.02.33-.05.04,0,.4-.47.54-.51.08.07.01.13.01.15Z" fill="#dfe2df" stroke-width="0"/>
                <path d="M36.27,28.34c.38-.3,1.13-1.05,1.42-1.42-.28.58-.8,1.21-1.42,1.42Z" fill="#121816" stroke-width="0"/>
                <path d="M18.68,31.83c0-.08.22-.09.24-.18.02-.07-.04-.28-.06-.16-.13-.13-.51-.54-.33-.61.29.15.7.81.15.95Z" fill="#dfe2df" stroke-width="0"/>
                <g>
                  <path d="M32.04,19.33c-.23-.31-1.45-1.02-1.84-1.2-2.39-1.07-4.66-.91-6.9.42-.31.19-.62.39-.9.61-.32.25-.43.37-.71.66-1.29,1.33-2.13,3.11-2.41,4.93.03.02.27-.04.33-.05,1.75-.2,3.5-.43,5.26-.44-.27-.28-.93-.74-1.27-.95-.32-.2-.71-.35-.99-.51-.1-.06-.58-.47-.42-.22-.11-.1-.3-.26-.44-.32-.01,0-.12-.1-.12.04,0,.05.23.81.27.92-.15-.32-.21-.68-.33-1-.02,0-.03.05-.04.05-.3.13-1.05.89-1.37,1.15-.18.15-.37.29-.56.42,0-.01-.05-.09.02-.23.12-.24,1.84-1.66,2.04-1.65.41.17,3.4,1.96,3.41,2.16,0,.06-.15.07-.17.12,3.15.02,6.37.08,9.51.53.12-.99.22-1.19-.15-.27-.07,0,0-.34.01-.39,0-.01.01-.03.02-.07.03-.15.17-.52.17-.62,0-.58-1.1-2.45-1.07-2.59,0,0,.03-.02.04-.04.79,1.02,1.49,2.76,1.58,4.04.59.1,2.81.64,2.88,1.32.05.47-1.62,1.95-2.04,2.23-.2.13-1.22.62-1.26.73-.07.18-.1.68.2.31-.02.23-.15.48-.01.7.04.01.34-.43.45-.51-.03.11-.53.83-.31.88.09.02,1.08-1.13,1.18-1.29,0,.02,0,.03,0,.05,0,.21-.07.68-.01.68.21-.12.82-.82.88-.83.36-.07,1.43,1.37,1.01,1.61-.14.08-1.68-.02-2,.02-.51.06-.95.48-.88,1.01.4.33,2.81.48,2.94.55.22.12-.22.16-.23.18-.01.02-.03.45-.02.5-.71.04-1.42.05-2.12.07-2.09.06-4.18.13-6.26.1-.26.05-2,1.57-2.39,1.81-.55-.39-1.95-1.73-2.52-1.81-.25-.03-2.8,0-3.52-.02-1.08-.03-2.16-.06-3.24-.1-.34-.01-.99,0-1.25-.05-.05,0-.17.03-.2-.04.04-.74-.07-.43-.23-.5-.05-.02-.05-.15-.02-.17.06-.04,1.22-.12,1.42-.15.4-.06.8-.15,1.18-.27,0,0,.02,0,.02,0,.55-.14.14-.8-.15-.95-.38-.2-1.34-.15-1.81-.17-.28-.01-.64.07-.68-.16-.06-.33.45-1.05.7-1.26.47-.41.35-.24.92.29.08.07.22.27.32.29,0,0,0,.03.04.02.08-.05-.04-.61.02-.73.13.15.93,1.27,1.05,1.25.26-.06-.12-.72-.21-.83v-.05c.45.65.54.63.42-.18.31.36.21.36.2-.29,0-.02-.06-.04-.07-.06-.07-.07-.96-.41-1.67-1-.25-.21-1.54-1.52-1.58-1.75-.11-.79,2.28-1.32,2.86-1.47.34-1.61.98-3.31,2.03-4.6.2-.24.58-.67.81-.88,2.98-2.71,7.45-2.74,10.44-.05.14.13,1.15,1.17,1.14,1.26-.04.31-.67-.52-.73-.59-.2-.21-.42-.43-.66-.6Z" fill="#121816" stroke-width="0"/>
                  <g>
                    <path d="M34.67,23.72c.07.13.2,1.03.15,1.07-.02.01-.25-.02-.26-.04-.03-.04.07-.91.11-1.04Z" fill="#fcfbfb" stroke-width="0"/>
                    <g>
                      <path d="M19.57,30.59s.14-.02.18.04c.08.09-.05.11-.05.12,0,.05.57.52.68.83.07.18.15.75-.09.82-.21.06.09-.14-.04-.7-.02-.1-.32-.61-.35-.6.2.51.26,1.35-.48,1.33.66-.37.36-1.52.28-1.5.07.33.03.94-.29,1.12-.32.18.13-.19.18-.62.04-.32-.07-.82-.04-.84Z" fill="#fcfbfb" stroke-width="0"/>
                      <path d="M27.32,24.65c.53.02.22.41,0,.32-.06-.03-.03-.34-.1-.02-.05.03-.98-.03-1.15-.02-.01,0-.06.07-.07.07-.11,0-.46-.07-.85,0-.16-.44.12-.27.15-.27.62,0,1.67-.09,2.03-.07Z" fill="#dfe2df" stroke-width="0"/>
                      <path d="M30.88,24.82c.05-.04,1.19.08,1.34.1.53.07,1.02.09.87.38-.02.05-.54-.1-1.01-.13-.37-.03-1.12,0-1.17-.02-.06-.03-.04-.31-.02-.32Z" fill="#dfe2df" stroke-width="0"/>
                      <path d="M22.24,30.83l2.23,2.04c-.03.06-.68-.27-.77-.33-.12-.09-1.3-1.43-1.47-1.71Z" fill="#dfe2df" stroke-width="0"/>
                      <path d="M31.83,30.83c-.55.84-1.26,1.82-2.31,2.04.85-.59,1.62-1.27,2.31-2.04Z" fill="#dfe2df" stroke-width="0"/>
                      <path d="M23.29,24.75c.26-.06.24.29.17.32-.02.01-.51.05-.54.05-.22-.01-.28-.43.17-.34.15.34.02.02.2-.02Z" fill="#dfe2df" stroke-width="0"/>
                      <path d="M24.41,24.7c.06,0,.26,0,.27,0,.05.02.05.28.02.29-.03.02-.66.05-.67.01l.11-.28c.2.02.26-.02.27-.02Z" fill="#dfe2df" stroke-width="0"/>
                      <path d="M18.18,26.43c.12.49.33.95.51,1.42-.43-.05-.6-1.41-.51-1.42Z" fill="#dda774" stroke-width="0"/>
                      <g>
                        <path d="M34.2,30.83c.08.04-.31,1.31.35,1.62-.69.06-.62-.82-.53-1.28-.55.71-.26,1.17-.28,1.23-.05.15-.22-.01-.24-.27-.06-.61.36-.88.7-1.31Z" fill="#fcfbfb" stroke-width="0"/>
                        <path d="M34.4,30.59c.07.02,0,.73.01.87.01.13.18.52.13.55-.32-.04-.28-1.26-.26-1.33,0-.02.1-.09.11-.09Z" fill="#fcfbfb" stroke-width="0"/>
                      </g>
                      <path d="M28.93,24.68c.2,0,.35,0,.28.26-.06.24-.13-.1-.18-.11-.07-.02-.33.42-.48.11-.16-.35.26-.18.28-.18,0,0,.08-.07.1-.07Z" fill="#dfe2df" stroke-width="0"/>
                      <path d="M29.81,24.72c.06-.02.71-.06.55.31-.04.08-.4,0-.38-.13-.25.36-.3-.12-.17-.17Z" fill="#dfe2df" stroke-width="0"/>
                      <g>
                        <path d="M20.89,25.04s.16.22.12.24c-.11,0-.72.11-.76.1-.06-.02-.08-.2-.05-.24.02-.03.65-.11.68-.1Z" fill="#dfe2df" stroke-width="0"/>
                        <path d="M21.5,24.94c.15.02.09.28.05.29-.42,0-.44.16-.6-.18.08-.02.52-.11.55-.11Z" fill="#fcfbfb" stroke-width="0"/>
                      </g>
                      <path d="M35.91,26.51c.05.52-.12,1.06-.54,1.39.26-.44.4-.91.54-1.39Z" fill="#d2b083" stroke-width="0"/>
                      <g>
                        <path d="M35.93,25.85s.04.05,0,.05c-.26-.09-.53-.13-.79-.22.78-.05,0-.03-.27-.07-.07-.01-.59-.12-.61-.15-.02-.02-.02-.1-.01-.11.05-.07,1.51.34,1.58.38,0,0,.06.07.11.12Z" fill="#d2b083" stroke-width="0"/>
                        <g>
                          <path d="M36.71,25.99l-.1.15c-.23-.08-.46-.17-.68-.24.04,0,0-.04,0-.05-.03-.23.42,0,.78.15Z" fill="#887656" stroke-width="0"/>
                          <path d="M36.61,26.14l.1-.15c.35.14.75.26.68.38-.07.12-.49-.13-.78-.23Z" fill="#72664c" stroke-width="0"/>
                        </g>
                      </g>
                      <path d="M31.37,31.91c0,.67-1.04,1.01-.78.78.13-.12.53-.3.78-.78Z" fill="#fcfbfb" stroke-width="0"/>
                      <path d="M23.65,24.72c.26-.07.38.27.27.32-.63.13-.36-.29-.27-.32Z" fill="#dfe2df" stroke-width="0"/>
                      <path d="M29.29,24.72c.14-.06.51.02.4.26-.02.05-.41.02-.43.01-.02-.01-.03-.24.02-.27Z" fill="#fcfbfb" stroke-width="0"/>
                      <path d="M22.72,31.86c.18.39.47.68.81.93-.47-.08-.76-.47-.81-.93Z" fill="#fcfbfb" stroke-width="0"/>
                      <path d="M19.01,31.91c.06.24-.28.53-.49.56-.51.07,0-.12.15-.22.13-.09.24-.22.34-.34Z" fill="#fcfbfb" stroke-width="0"/>
                      <path d="M22.04,24.85c.22-.1.33.08.33.28-.46.21-.39-.25-.33-.28Z" fill="#dfe2df" stroke-width="0"/>
                      <path d="M34.96,32.03s.6.37.7.4c-.05.18-.95-.32-.7-.4Z" fill="#fcfbfb" stroke-width="0"/>
                      <path d="M22.41,24.82c.37-.15.4.51.02.32-.03-.01-.09-.29-.02-.32Z" fill="#dfe2df" stroke-width="0"/>
                      <path d="M20.79,29.93l.46.66c-.35-.16-.44-.25-.46-.66Z" fill="#dfe2df" stroke-width="0"/>
                      <path d="M33.23,29.98c.05.32-.16.53-.46.59l.46-.59Z" fill="#fcfbfb" stroke-width="0"/>
                      <path d="M17.59,26.8c.2.14.44.41.44.66l-.44-.66Z" fill="#debd9f" stroke-width="0"/>
                      <path d="M36.45,26.85s.03,0,.04.01l-.43.62c-.02-.19.22-.61.39-.64Z" fill="#f2d1a8" stroke-width="0"/>
                      <g>
                        <path d="M18.72,25.53c.09-.01.46-.02.49.05-.85.19-1.72.46-2.48.87-.09-.18.09-.22.26-.31.19-.1,1.59-.59,1.73-.61Z" fill="#b09158" stroke-width="0"/>
                        <path d="M19.13,25.41l.33.11c-.12.07-.27.02-.33-.11Z" fill="#d2b083" stroke-width="0"/>
                        <path d="M19.38,25.38s.11,0,.15,0c.2.05.14.26-.15,0Z" fill="#d2b083" stroke-width="0"/>
                      </g>
                      <g>
                        <path d="M26.92,31.54c.85-.07,1.45,1.04,1.33,1.38,0,.02-.06.06-.09.06-.11,0-.09-.34-.11-.43-.16-.63-.11-.13-.15.05-.08.4-.57.93-.87,1.21-.26.04-1.64-1.89-.28-1.6-.02-.66.04-.51.1.15-.06.07-.48-.23-.56.05-.03.11,0,.26.13.26.14,0,.09-.24.53-.21v-.77c-.54.12-1.25.71-.9,1.28-.38.13-.35-.43-.02-.85.16-.21.62-.55.89-.57Z" fill="#fcfbfb" stroke-width="0"/>
                        <g>
                          <path d="M27.34,32.64c.63.12-.07.76-.29,1-.02-.31-.18-.69-.01-.94-.01.71.57.48.31-.06Z" fill="#121816" stroke-width="0"/>
                          <path d="M26.53,32.76c.19,0,.38.62.39.81-.07.04-.59-.72-.51-.78,0,0,.12-.02.12-.02Z" fill="#121816" stroke-width="0"/>
                          <path d="M27.1,31.66c.18.05.13.82.02.81l-.02-.81Z" fill="#1d1815" stroke-width="0"/>
                          <path d="M27.17,32.64c.19-.16.02.72-.01.13,0-.03,0-.12.01-.13Z" fill="#1d1815" stroke-width="0"/>
                          <path d="M26.9,32.61l-.07.24c0-.16-.09-.2-.09-.21.03-.03.12.01.16-.04Z" fill="#0d0b0f" stroke-width="0"/>
                          <g>
                            <path d="M27.32,31.73c.34.09.56.41.5.77-.06.38-.08-.02-.54-.02.14-.44,0-.73.04-.74Z" fill="#121816" stroke-width="0"/>
                            <path d="M27.66,32.17c.24.02-.08.38-.31.26.05-.05.25-.26.31-.26Z" fill="#fcfbfb" stroke-width="0"/>
                          </g>
                        </g>
                      </g>
                      <g>
                        <path d="M26.29,25.41c1.79.11,3.59.03,5.37.22.52.06,2.64.37,2.98.61.66.47-.38,2.03-1.12,2.69-3.4,3-10.65,2.67-13.37-.45-.37-.42-1.28-1.79-.65-2.23.81-.57,5.62-.83,6.79-.83Z" fill="#dfe2df" stroke-width="0"/>
                        <g>
                          <path d="M28.13,30.76c-.39-1.12-.73-1.24-1.1-1.7-.16-.2-1.22-1.6-1.33-1.62-.06-.01-.27.05-.35.07-.08-.09-.18-.16-.27-.24-.26-.25-.69-.64-.99-.83-.51-.32-.28-.17-.57.77-.23.74-1.01,2.36-.5,2.65,1.14-.41.85-.25.06.27-.24-.11-.45-.17-.49-.48-.07-.61.81-2.71.98-3.47.02-.08.19-.16.26-.16.26.02,1.47,1.12,1.56,1.15.1.03.28-.07.44,0,.19.09,1.37,1.82,1.49,1.81.06,0,.03-.28.16-.16.08.07.88,1.62,1.12,1.88-.01.04-.39.05-.46.06Z" fill="#121816" stroke-width="0"/>
                          <g>
                            <path d="M34.29,26.43c.22.52-.37,1.63-.84,1.93-.07,0-.66-.37-.76-.44-1.01-.71-.81-.88-1.04-1.32-.05-.1-.04-.11-.05.02,0,.12.06.34.01.51l-.84-1.32c.28.02.58,0,.87.02.41.04,2.51.24,2.65.59Z" fill="#f4832b" stroke-width="0"/>
                            <path d="M31.65,26.6l-.05.02c0-.13,0-.12.05-.02Z" fill="#5c2803" stroke-width="0"/>
                          </g>
                          <g>
                            <path d="M30.77,25.82l.84,1.32c.05-.17-.02-.39-.01-.51l.05-.02c.23.44.03.61,1.04,1.32.1.07.69.45.76.44.47-.3,1.06-1.41.84-1.93.62-.2.26.82.02,1.26-.1.18-.67.97-.87.96-1.67-1-3.41-1.88-5.12-2.82.81-.21,1.63-.06,2.44-.01Z" fill="#121816" stroke-width="0"/>
                            <path d="M29.34,25.95c.09-.03,1.12.05,1.22.1l.74,1.11c-.23-.08-2-.96-2.03-1.07-.01-.05.02-.12.06-.13Z" fill="#dfe2df" stroke-width="0"/>
                          </g>
                          <g>
                            <path d="M25.65,25.68c.19,0,1.38-.02,1.45.06.03.57.25,2.24.24,2.56,0,.34-.06.29-.46-.15-.57-.61-.92-1.43-1.48-1.23l-1.45-1.09c.01-.08,1.54-.16,1.7-.16Z" fill="#121816" stroke-width="0"/>
                            <path d="M25.73,25.9c.17,0,1.11-.03,1.18.06l.21,2.14c-.17-.21-1.03-1.32-1.17-1.37-.06-.02-.4,0-.54-.05-.05-.02-.76-.59-.89-.67.39-.05.81-.1,1.21-.11Z" fill="#f4832b" stroke-width="0"/>
                          </g>
                          <g>
                            <path d="M21.98,25.92s0,.04.01.05c.16.04,1.09.05,1.14.16-.11.39-.31,1.31-.46,1.6-.11-.04-.19-.1-.29-.15-1.21-.92-1.89.51-2.04.46-.34-.48-.59-1.04-.55-1.64.55-.3,1.56-.42,2.2-.49Z" fill="#f4832b" stroke-width="0"/>
                            <path d="M19.78,26.41c-.04.6.21,1.16.55,1.64.15.04.83-1.39,2.04-.46-.25-.11-.54-.21-.82-.2.39.05.73.25,1.05.46.08-.06.06-.11.06-.12.15-.29.35-1.21.46-1.6-.04-.11-.98-.12-1.14-.16-.02,0-.01-.03-.01-.05.22-.02,1.39-.19,1.44-.01.03.11-.55,1.95-.7,2.19-1.1-.61-1.51-.69-2.42.24-.44-.48-.82-1.12-.79-1.8.02-.04.18-.09.27-.13Z" fill="#121816" stroke-width="0"/>
                            <path d="M22.37,27.58c.1.05.19.11.29.15,0,0,.02.06-.06.12-.32-.21-.66-.42-1.05-.46.28-.01.57.08.82.2Z" fill="#62613a" stroke-width="0"/>
                            <g>
                              <path d="M21.36,27.83c.44-.04.96.23,1.28.53-.09.49-.21.98-.23,1.48-.3-.09-1.85-1.08-1.89-1.26-.06-.25.49-.71.84-.74Z" fill="#121816" stroke-width="0"/>
                              <path d="M21.31,28.07c.37-.05.8.16,1.06.43l-.16.99c-.23-.15-1.31-.76-1.36-.96-.05-.23.25-.43.45-.45Z" fill="#f4832b" stroke-width="0"/>
                            </g>
                          </g>
                          <g>
                            <path d="M27.32,25.73c.18.06.38.06.56.12.33.11,4.76,2.51,5.1,2.76.05.03.26.19.26.23-1.06,1.05-2.92,1.67-4.38,1.84-.96-1.55-2.48-2.96-.04-4.04-.17-.28-1.13.48-1.38.67-.04-.14-.2-1.57-.12-1.59Z" fill="#121816" stroke-width="0"/>
                            <g>
                              <path d="M29.4,27.44c-.09-.01-.69-.34-1.07.26-.05.07-.23.53-.24.61-.12.91.83,1.02,1,1.16.12.1.15.25.2.32-.03.19.12.41,0,.59-.18-.15-.46-.74-.96-.9-.7-.9-.74-2.02.46-2.47.63-.23.66-.02,1.22.22v.05c-.25.15-.3.22-.6.17Z" fill="#c69b3f" stroke-width="0"/>
                              <path d="M27.54,26.04c.36-.01.66.22.96.38l-.89.55c-.02-.13-.14-.9-.07-.93Z" fill="#c7823d" stroke-width="0"/>
                              <path d="M28.46,29.66c.09.09.73.74.72.79-.03.32-.73-.68-.72-.79Z" fill="#d99e46" stroke-width="0"/>
                              <g>
                                <path d="M30.77,28.51c-.15-.46-1.21-.55-1.12.11.03.2.28.4.37.56.09.16.11.36.17.48.17.32.46.3.77.32-.53.17-1.07.34-1.61.46-.03-.02-.06-.07-.06-.07.12-.17-.03-.39,0-.59.06.09.12.19.21.27l.04-.04c-.17-.6-.09-.6-.54-.77-.21-.08-.41-.07-.61-.28-.6-.65.17-1.83,1.12-1.38.4.03.61-.27.67-.27l2.69,1.51.04.04c-.61.52-.9.87-1.72.5-.6-.27-.3-.54-.4-.85Z" fill="#05916d" stroke-width="0"/>
                                <path d="M29.4,27.44c-.03.16.1.05.1.15-.96-.45-1.72.73-1.12,1.38.2.21.4.2.61.28l.1.22c-.17-.14-1.12-.25-1-1.16.01-.08.2-.54.24-.61.39-.59.99-.27,1.07-.26Z" fill="#082116" stroke-width="0"/>
                                <g>
                                  <path d="M30.55,28.46c.26.32-.15.61.45.98.2.12.45.17.67.26-.18.1-.38.17-.57.26-.08-.09-.36-.02-.59-.17-.2-.14-.27-.45-.38-.65-.06-.11-.21-.23-.27-.38-.26-.59.47-.56.68-.29Z" fill="#d99e46" stroke-width="0"/>
                                  <path d="M30.77,28.51l-.22-.05c-.22-.27-.94-.3-.68.29.03.22.53.73.32.9-.06-.11-.09-.32-.17-.48-.09-.17-.34-.36-.37-.56-.09-.66.97-.57,1.12-.11Z" fill="#082116" stroke-width="0"/>
                                </g>
                                <path d="M29.28,29.78c-.05-.07-.07-.22-.2-.32l-.1-.22c.44.17.37.17.54.77l-.04.04c-.09-.07-.14-.17-.21-.27Z" fill="#023321" stroke-width="0"/>
                              </g>
                            </g>
                          </g>
                          <g>
                            <path d="M25.08,27.26c.08.08.19.16.27.24.21.23.97,1.24,1.2,1.56.06.2-.43.2-.45-.22-.09.11-.26.02-.31.02.05-.08.3-.05.42-.05.39.51-.21-.44-.49-.77-.1-.12-.4-.45-.5-.53-.38-.28.38.33.26.55-.05,0-.32-.05-.33-.06-.11-.08-.09-.64-.13-.1,0,.04,0,.04-.02.07-.31.11-.36.11-.64.32-.09.04-.11.04-.17-.05.05-.05.14-.14.15-.2.25-.24.59-.7.64-.71.1.16.12.02.02,0l.1-.1Z" fill="#e6c681" stroke-width="0"/>
                            <path d="M26.2,28.83c-.12,0-.37-.04-.42.05-.27.03-.48.18-.37.17.24.05.39-.02.56.21.05.07.25.56.17.65-.07-.88-1.56-1-1.98-.51,0-.1.04-.11.07-.17.05-.1.16-.09-.1-.12-.06-.04-.21-.03-.1-.12.05.02.05.02.05.02.03.01.43.02.71.05.1.01.2.08.35.05.68-.53.93-.21.6-.71-.16-.24-.28-.22-.26-.49.29.26.46.62.7.93Z" fill="#f7e091" stroke-width="0"/>
                            <path d="M24.32,28.07c0,.05-.1.15-.15.2-.24.24-.52.44-.76.67.31.17.38-.13.88-.55.03,0,.02.02.02.02-.04,0-.05.05-.05.05-.17.17-.35.4-.39.44-.22.18-.21.12-.53.1-.02-.01-.02-.04-.01-.06.02-.06.86-.75.98-.87Z" fill="#49220c" stroke-width="0"/>
                            <path d="M24.15,29s-.03,0-.05,0c0,0,0,0-.05-.02-.01,0,.05-.06-.17-.07.04-.04.22-.27.39-.44.1.3.03.31-.12.54Z" fill="#e8b460" stroke-width="0"/>
                            <g>
                              <path d="M25.08,27.26l-.1.1s-.02,0-.02,0c-.05.01-.39.47-.64.71-.12.12-.96.8-.98.87,0,.02,0,.05.01.06.31.02.3.09.53-.1.23.01.16.07.17.07-.11.09.04.08.1.12.07.05.09.04.1.12-.03.07-.07.07-.07.17-.02.31-.02-.16.48-.22.66-.08,1.28.04,1.5.73.08-.09-.12-.57-.17-.65-.17-.23-.32-.15-.56-.21.62-.4.69.37,1.11.17.16-.07.02-.14.01-.15-.23-.32-.99-1.33-1.2-1.56.08-.02.29-.08.35-.07.11.02,1.17,1.42,1.33,1.62.37.46.71.58,1.1,1.7-1.38.14-3.79-.05-5.06-.64.79-.52,1.08-.67-.06-.27-.51-.29.27-1.91.5-2.65.29-.94.06-1.09.57-.77.3.19.73.58.99.83Z" fill="#f4832b" stroke-width="0"/>
                              <g>
                                <path d="M26.16,29.9c-.22-.69-.84-.82-1.5-.73-.49.06-.5.53-.48.22.42-.49,1.91-.36,1.98.51Z" fill="#49220c" stroke-width="0"/>
                                <path d="M26.55,29.07s.14.07-.01.15c-.42.2-.49-.57-1.11-.17-.11,0,.1-.14.37-.17.04,0,.22.08.31-.02.02.42.51.42.45.22Z" fill="#311308" stroke-width="0"/>
                                <path d="M24.24,27.02c.23.07-.55.82-.21.21.02-.03.18-.22.21-.21Z" fill="#e6c681" stroke-width="0"/>
                                <path d="M24.48,27.22c.19.03-.47.6-.23.18.04-.07.17-.13.23-.18Z" fill="#e6c681" stroke-width="0"/>
                                <path d="M23.97,27.75c.16-.02.12.12.02.17-.26.14-.17-.16-.02-.17Z" fill="#fcfbfb" stroke-width="0"/>
                                <path d="M24.25,29.22c0-.08-.02-.07-.1-.12.26.03.14.03.1.12Z" fill="#723411" stroke-width="0"/>
                              </g>
                            </g>
                            <path d="M24.96,27.36s.02,0,.02,0c.1.02.08.16-.02,0Z" fill="#251503" stroke-width="0"/>
                            <path d="M24.35,28.31s-.04.07-.05.07c-.5.42-.57.72-.88.55.24-.23.52-.43.76-.67.06.09.08.09.17.05Z" fill="#fdf7d2" stroke-width="0"/>
                            <path d="M25.76,28.39c.33.5.09.18-.6.71-.16.03-.25-.04-.35-.05-.05-.05-.16-.09-.22-.1l-.24-.54s.04-.07.11-.1c.49-.17.68.28,1.03-.12l.28.2Z" fill="#d97b2a" stroke-width="0"/>
                            <path d="M24.59,28.95c.06,0,.17.05.22.1-.28-.03-.68-.04-.71-.05.02,0,.04,0,.05,0,.15-.05.28-.07.44-.05Z" fill="#220601" stroke-width="0"/>
                            <path d="M24.35,28.41l.24.54c-.16-.02-.28,0-.44.05.15-.22.22-.24.12-.54,0,0,.01-.05.05-.05,0,0,.02,0,.02,0Z" fill="#e6c681" stroke-width="0"/>
                            <g>
                              <path d="M26.2,28.83c-.24-.31-.41-.66-.7-.93-.03.27.1.25.26.49l-.28-.2c-.35.4-.54-.05-1.03.12-.07.03-.08.08-.11.1,0,0-.02,0-.02,0,0,0,0-.03-.02-.02,0,0,.04-.07.05-.07.28-.21.33-.2.64-.32.03-.01.14.07.02-.07.05-.54.02.02.13.1.01,0,.28.06.33.06.13-.22-.64-.83-.26-.55.1.08.4.41.5.53.28.33.88,1.28.49.77Z" fill="#251503" stroke-width="0"/>
                              <path d="M24.98,28s.02-.04.02-.07c.11.14,0,.06-.02.07Z" fill="#7e7848" stroke-width="0"/>
                              <path d="M24.9,28.09c.72-.09.54.39-.02.1-.53.14-.19-.07.02-.1Z" fill="#d99e46" stroke-width="0"/>
                            </g>
                          </g>
                        </g>
                      </g>
                    </g>
                  </g>
                </g>
              </g>
            </g>
          </g>
        </g>
      </g>
    </g>
  </g>
</svg>